<svg width="88" height="28" viewBox="0 0 88 28" fill="none" xmlns="http://www.w3.org/2000/svg">
<path fill-rule="evenodd" clip-rule="evenodd" d="M29.4947 8.51381C28.4787 7.34581 26.8807 5.01581 27.7717 4.94981C29.0737 4.85281 29.9777 9.06981 29.4947 8.51381ZM19.6037 15.2448C21.2757 10.1948 23.9767 7.60481 24.1697 9.15881C24.4687 11.5638 19.1967 16.4738 19.6037 15.2448ZM57.0977 15.8278C50.2547 22.1288 52.1457 15.8928 52.1457 15.8928C52.1457 15.8928 53.4987 10.6828 55.1057 7.76981C55.4117 7.21581 52.6557 7.07281 52.3407 8.15781C48.8677 20.1378 42.2567 21.4938 45.7487 15.6528C50.4227 7.83681 48.0807 9.04781 47.9197 8.56281C47.7847 8.15581 46.4017 6.72081 46.2477 7.88281C45.6367 12.4798 41.4697 18.6768 41.0847 18.6768C40.3647 18.6768 41.6977 15.0048 42.2767 12.7388C42.8557 10.4728 41.3597 11.3788 41.3597 11.3788C40.0097 12.6088 38.6097 17.7168 36.1507 18.9548C35.8617 19.1008 35.9107 17.7898 37.1637 14.7788C39.3087 9.62881 41.7457 9.24281 41.5047 10.3588C40.9717 12.8278 44.9737 4.26781 41.2637 6.66881C36.5367 9.72881 34.7037 16.9638 34.7037 16.9638C32.8387 20.3308 31.8237 20.4248 31.1797 19.4538C30.3657 18.2238 33.0447 14.5978 33.0447 14.5978C34.9737 11.0738 30.4947 9.46081 30.4947 9.46081C31.4407 6.69081 29.4597 2.48881 26.9997 1.90581C22.9677 0.950811 27.8997 8.70581 29.1867 9.93581C28.4147 12.7198 25.9067 16.2158 25.9067 16.2158C22.0467 22.8858 18.5107 18.9358 19.6677 17.4458C23.7837 15.4388 29.4437 9.93581 24.4917 6.50381C21.2147 4.23381 17.4167 15.9568 17.4167 15.9568C16.9086 16.1042 16.3972 16.2395 15.8827 16.3628C15.4611 16.4636 15.0376 16.557 14.6127 16.6428C16.7487 9.92981 21.2327 3.05081 21.2327 3.05081C21.6107 2.10081 20.0247 1.59381 20.0247 1.59381C20.0247 1.59381 19.2527 1.33981 18.3577 1.86181C17.4617 2.38481 16.4237 3.44081 15.8877 4.03181C13.1407 7.06281 10.7677 11.0178 10.9777 10.3968C12.9357 4.61681 14.3627 0.506811 12.8027 0.106811L9.4667 0.00681243C8.6107 -0.0731876 7.84469 0.577812 7.84469 0.577812C7.84469 0.577812 5.51972 2.59381 4.68472 3.18481C4.17472 3.54481 1.47073 4.65681 1.47073 2.91281C1.46973 1.17681 3.61369 0.198811 3.90969 0.356811C4.20469 0.514811 3.83669 2.07981 3.83669 2.07981C3.83669 2.07981 4.49071 1.41381 4.46371 0.729812C4.43671 0.042812 3.48574 0.300811 3.48574 0.300811L2.85268 0.60081C2.85268 0.60081 0.072705 2.40081 1.28671 4.31081C2.3497 5.98381 4.7557 3.71481 4.7557 3.71481C4.7557 3.71481 8.16372 0.80481 9.43472 0.40681C10.1707 0.17681 10.1817 1.64281 10.1817 1.64281C10.1817 1.64281 10.6807 4.51981 8.0577 10.3298C4.7387 17.6798 3.80374 16.6058 4.40774 17.4638C5.26974 18.4148 7.81371 16.8958 8.50771 16.0598C10.2197 13.9978 13.8307 7.74181 15.6897 5.38481C16.5657 4.27481 18.2787 3.04581 18.2117 3.31381C18.0997 3.76581 16.4867 5.85281 15.7567 7.38981C14.8567 9.28181 14.0307 10.4968 11.6687 16.2968C11.5427 16.6048 11.4357 16.9018 11.3367 17.1938C6.79069 17.8408 3.30769 18.0508 1.01669 21.2018C-2.84031 26.5118 5.51974 28.0008 5.51974 28.0008C5.51974 28.0008 -2.4223 21.7238 10.8857 18.8888C10.4757 21.0588 10.8517 22.7188 11.5577 24.0698C13.7777 27.4698 19.2807 27.6598 21.5887 26.1928C24.3387 24.4448 24.8687 22.7928 24.8687 22.7928C24.8687 22.7928 22.9347 24.4198 20.8657 24.8328C15.7187 25.8598 13.5657 21.3588 14.1627 18.2448C14.5207 18.1698 14.8407 18.1018 15.1257 18.0398C16.2217 17.8018 16.8157 17.6598 17.2257 17.6408C16.3247 21.3308 19.6687 23.9858 23.3987 20.7488C26.7157 17.8698 29.9807 10.5388 29.9807 10.5388C31.9747 11.8348 31.9307 11.8558 31.1167 13.5828C30.8887 14.0658 29.3797 17.1138 29.1227 18.0938C28.6947 19.7338 29.7657 21.3318 31.2457 21.3958C32.7247 21.4608 33.1297 20.5568 34.5257 17.8358C34.1907 19.3438 34.5817 21.4978 36.1517 20.7518C37.8887 19.9258 38.5737 17.8008 39.0917 16.6478C39.3817 16.0028 40.7497 13.5648 40.4847 14.1878C39.6057 16.2588 39.0917 17.9958 39.0917 19.0878C39.2847 20.7708 39.8447 20.4118 40.3557 20.3178C41.2157 20.1578 42.7917 18.3238 43.8207 16.5748C43.2397 18.4988 43.4487 18.6928 43.5287 19.3248C43.6457 20.2348 46.7637 20.5088 49.5607 16.6728C49.3037 18.7768 50.5707 19.7778 51.6647 19.8098C53.2077 19.8558 54.4397 19.8638 56.4527 18.5098C58.6787 17.0098 64.4607 9.66981 74.1087 9.18381C83.2287 8.72481 87.9317 12.3358 88.0007 12.3888C73.7217 -3.24919 61.4487 11.8228 57.0987 15.8278" fill="#97B3DF"/>
</svg>
