<svg width="19" height="19" viewBox="0 0 19 19" fill="none" xmlns="http://www.w3.org/2000/svg">
<path d="M13.4584 7.25957C13.31 7.11212 13.1094 7.02936 12.9002 7.02936C12.6911 7.02936 12.4904 7.11212 12.3421 7.25957L9.50003 10.0621L6.69753 7.25957C6.5492 7.11212 6.34855 7.02936 6.13941 7.02936C5.93026 7.02936 5.72961 7.11212 5.58128 7.25957C5.50708 7.33316 5.44818 7.42072 5.40799 7.5172C5.3678 7.61367 5.34711 7.71714 5.34711 7.82165C5.34711 7.92616 5.3678 8.02964 5.40799 8.12611C5.44818 8.22258 5.50708 8.31014 5.58128 8.38374L8.93795 11.7404C9.01154 11.8146 9.0991 11.8735 9.19557 11.9137C9.29205 11.9539 9.39552 11.9746 9.50003 11.9746C9.60454 11.9746 9.70801 11.9539 9.80449 11.9137C9.90096 11.8735 9.98852 11.8146 10.0621 11.7404L13.4584 8.38374C13.5326 8.31014 13.5915 8.22258 13.6317 8.12611C13.6718 8.02964 13.6925 7.92616 13.6925 7.82165C13.6925 7.71714 13.6718 7.61367 13.6317 7.5172C13.5915 7.42072 13.5326 7.33316 13.4584 7.25957Z" fill="#78BE21"/>
</svg>
