<svg width="24" height="12" viewBox="0 0 24 12" fill="none" xmlns="http://www.w3.org/2000/svg">
<path d="M19.8843 5.85132C18.0991 5.85132 16.6611 7.23975 16.6611 8.9257V11.3555C16.6611 11.7026 16.9587 12.0001 17.3058 12.0001C17.6529 12.0001 17.9504 11.7026 17.9504 11.3555V8.9257C17.9504 7.98355 18.7934 7.19016 19.8347 7.19016H20.7272C21.7686 7.19016 22.6115 7.98355 22.6115 8.9257V11.3555C22.6115 11.7026 22.9091 12.0001 23.2562 12.0001C23.6033 12.0001 23.9008 11.7026 23.9008 11.3555V8.9257C23.9008 7.23975 22.4628 5.85132 20.6777 5.85132C20.7768 5.85132 19.8843 5.85132 19.8843 5.85132Z" fill="#78BE21"/>
<path d="M17.752 2.57851C17.752 4.01653 18.9421 5.15702 20.3306 5.15702C21.719 5.15702 22.9091 3.96694 22.9091 2.57851C22.9091 1.19008 21.7686 0 20.3306 0C18.8925 0 17.752 1.19008 17.752 2.57851ZM21.6198 2.57851C21.6198 3.27273 21.0744 3.86777 20.3306 3.86777C19.5868 3.86777 19.0413 3.32231 19.0413 2.57851C19.0413 1.83471 19.5868 1.28926 20.3306 1.28926C21.0248 1.33884 21.6198 1.8843 21.6198 2.57851Z" fill="#78BE21"/>
<path d="M4.562 7.19016C5.60332 7.19016 6.44629 7.98355 6.44629 8.9257V11.3555C6.44629 11.7026 6.74381 12.0001 7.09092 12.0001C7.43803 12.0001 7.73555 11.7026 7.73555 11.3555V8.9257C7.73555 7.23975 6.29753 5.85132 4.51241 5.85132H3.71902C1.9339 5.85132 0.49588 7.23975 0.49588 8.9257V11.3555C0.49588 11.7026 0.793401 12.0001 1.14051 12.0001C1.48762 12.0001 1.78514 11.7026 1.78514 11.3555V8.9257C1.78514 7.98355 2.62811 7.19016 3.66943 7.19016C3.71902 7.19016 4.562 7.19016 4.562 7.19016Z" fill="#78BE21"/>
<path d="M4.16527 5.20658C5.60329 5.20658 6.74378 4.0165 6.74378 2.62807C6.74378 1.23964 5.5537 0.0495605 4.16527 0.0495605C2.77684 0.0495605 1.53717 1.19006 1.53717 2.62807C1.53717 4.06609 2.72725 5.20658 4.16527 5.20658ZM4.16527 1.33882C4.85948 1.33882 5.45453 1.88427 5.45453 2.62807C5.45453 3.37187 4.85948 3.91733 4.16527 3.91733C3.47105 3.91733 2.87601 3.32229 2.87601 2.62807C2.87601 1.93386 3.47105 1.33882 4.16527 1.33882Z" fill="#78BE21"/>
<path d="M15.8678 11.3555V8.9257C15.8678 7.23975 14.4298 5.85132 12.6447 5.85132H11.7521C9.96698 5.85132 8.52896 7.23975 8.52896 8.9257V11.3555C8.52896 11.7026 8.82648 12.0001 9.17359 12.0001C9.5207 12.0001 9.81822 11.7026 9.81822 11.3555V8.9257C9.81822 7.98355 10.6612 7.19016 11.7025 7.19016H12.5951C13.6364 7.19016 14.4794 7.98355 14.4794 8.9257V11.3555C14.4794 11.7026 14.7769 12.0001 15.124 12.0001C15.4711 12.0001 15.8678 11.7026 15.8678 11.3555Z" fill="#78BE21"/>
<path d="M9.61987 2.62807C9.61987 4.06609 10.81 5.20658 12.1984 5.20658C13.5868 5.20658 14.7769 4.0165 14.7769 2.62807C14.7769 1.23964 13.5868 0.0495605 12.1984 0.0495605C10.81 0.0495605 9.61987 1.19006 9.61987 2.62807ZM13.4876 2.62807C13.4876 3.32229 12.9422 3.91733 12.1984 3.91733C11.4546 3.91733 10.9091 3.37187 10.9091 2.62807C10.9091 1.88427 11.4546 1.33882 12.1984 1.33882C12.9422 1.33882 13.4876 1.93386 13.4876 2.62807Z" fill="#78BE21"/>
</svg>
