<svg width="24" height="23" viewBox="0 0 24 23" fill="none" xmlns="http://www.w3.org/2000/svg">
<path d="M20.6449 3.83867C20.2776 3.44683 20.0816 3.00602 20.0816 2.46724C20.0816 1.92846 20.2776 1.46316 20.6449 1.09581C21.0367 0.703975 21.502 0.508057 22.0408 0.508057C22.5551 0.508057 23.0204 0.703975 23.4122 1.07132C23.8041 1.43867 24 1.90397 24 2.44275C24 2.98153 23.8041 3.44683 23.4122 3.81418C23.0204 4.18153 22.5796 4.37744 22.0408 4.37744C21.502 4.40193 21.0367 4.20602 20.6449 3.83867Z" fill="white"/>
<path d="M19.7388 13.0712C19.249 12.5079 16.8245 9.93651 13.249 8.71202L13.8367 8.02631C14.9388 8.39366 16.5306 9.20182 17.5102 9.91202L19.9592 7.07121C19.9592 7.07121 21.0857 5.6508 20.3265 4.4508C19.8367 3.64264 18.9796 3.54468 18.6367 3.54468H18.6122H9.86939C9.25714 3.54468 8.76735 4.03447 8.76735 4.64672C8.76735 5.25896 9.25714 5.74876 9.86939 5.74876H15.7959L13.8367 8.02631C12.7347 7.63447 11.5102 7.38958 10.2122 7.41407C9.47755 7.43856 8.81633 7.561 8.25306 7.75692C7.49388 6.8508 7.07755 5.94468 7.07755 5.92019L6.31837 6.23856C6.34286 6.31202 6.73469 7.14468 7.4449 8.07529C6.85714 8.34468 6.31837 8.66304 5.82857 8.95692C5.33878 9.2508 4.84898 9.54468 4.40816 9.71611C1.76327 10.5977 0.759184 8.95692 0.710204 8.90794L0 9.32427C0.0244898 9.34876 1.37143 11.6018 4.67755 10.5243C5.19184 10.3039 5.70612 10.01 6.22041 9.69162C6.78367 9.34876 7.34694 9.0059 7.98367 8.761C8.44898 9.2508 9.03673 9.69162 9.69796 10.01C10.3592 10.3039 11.0204 10.4998 11.5837 10.6222L9.3551 13.2181H4.89796C4.53061 13.2181 4.21224 13.3406 3.96735 13.561C3.72245 13.7814 3.6 14.0998 3.6 14.4426C3.6 14.7855 3.72245 15.0794 3.96735 15.3243C4.21224 15.5692 4.53061 15.6916 4.87347 15.6916H10.1388C10.3592 15.6916 10.5551 15.6671 10.7265 15.6426C11.1673 15.5692 11.4857 15.4222 11.6571 15.2263L14.1551 12.5324C14.1551 12.5324 16.5796 13.659 17.6327 14.7855C19.5673 16.8671 19.2735 20.9324 19.249 21.0059C19.2245 21.5447 19.7633 22.3528 20.6204 22.2304C21.3551 22.1324 21.649 21.4222 21.649 20.81C21.649 20.761 21.9184 15.6916 19.7388 13.0712ZM12.2449 9.88753C11.6327 9.78958 10.8735 9.59366 10.0653 9.22631C9.62449 9.03039 9.23265 8.761 8.8898 8.44264C9.30612 8.34468 9.74694 8.27121 10.2367 8.24672C11.2898 8.22223 12.3184 8.41815 13.249 8.71202L12.2449 9.88753Z" fill="white"/>
</svg>
