<svg width="362" height="321" viewBox="0 0 362 321" fill="none" xmlns="http://www.w3.org/2000/svg">
<g opacity="0.6">
<path d="M360.691 131.067C361.317 130.129 361.316 130.129 360.378 129.503C359.44 128.878 358.501 129.19 357.563 129.19V129.503C356.624 129.503 356.624 130.129 356.624 130.755C356.624 131.693 356.624 132.944 356.311 133.883C355.998 136.072 355.686 138.262 354.747 140.764C353.809 143.892 353.183 147.021 353.183 150.462C353.183 154.528 351.932 158.595 350.367 162.348C349.116 165.164 348.178 168.292 347.239 171.107C345.675 174.861 343.798 178.302 341.295 181.43C339.418 183.932 337.854 186.435 335.977 188.937C332.223 194.568 328.469 200.511 324.403 206.142C320.962 211.147 316.895 215.839 313.141 220.531C311.264 222.721 309.074 224.91 306.571 226.474C305.633 227.413 304.382 228.038 303.443 228.977C303.443 229.602 303.13 229.602 302.505 229.915C302.192 230.228 301.879 230.541 301.566 230.854C300.002 232.418 298.125 233.669 296.248 234.92C294.684 235.859 293.12 237.11 291.556 238.048C291.243 238.361 291.243 238.674 291.556 238.987C292.807 239.612 293.745 239.925 295.31 239.299C298.751 237.11 302.505 235.233 305.633 232.731C307.823 231.166 310.013 229.915 311.577 228.038C313.767 225.223 317.208 223.346 319.085 220.218C320.649 218.028 322.526 216.152 324.403 214.275C327.218 211.459 330.034 208.331 332.223 204.578C335.039 199.573 338.167 194.881 340.983 189.876C344.111 184.871 346.926 179.553 349.742 174.235C351.619 170.169 353.183 166.102 354.747 161.723C356.311 157.343 356.937 152.964 358.501 148.897C360.065 143.893 360.378 138.888 360.691 133.883C360.691 133.883 360.691 133.883 360.691 133.57C361.004 132.944 361.004 132.006 360.691 131.067Z" fill="#6A6A57"/>
<path d="M297.499 233.043C298.751 232.418 299.689 231.167 300.628 230.228C302.192 228.664 303.756 227.1 305.633 225.536C308.448 223.346 311.264 220.531 313.454 217.716C316.582 213.649 319.71 209.896 322.839 205.829C325.028 203.327 326.593 200.511 328.469 197.696C330.346 194.568 332.536 191.753 334.413 188.937C336.603 185.496 338.793 182.368 341.295 179.24C343.172 177.051 344.111 174.235 345.362 171.733C346.613 168.605 347.865 165.164 349.116 162.036C350.367 158.282 351.306 154.841 351.619 150.774C351.932 146.708 352.557 142.641 353.809 138.575C354.747 136.072 354.747 133.257 355.06 130.755C355.06 130.129 354.747 130.129 354.121 129.816C353.183 130.129 352.557 130.129 351.619 130.129C350.68 130.129 350.367 130.442 350.055 131.38C349.742 132.006 349.742 132.631 349.429 133.257C349.116 134.508 348.803 136.072 348.178 137.324C346.926 141.703 345.362 145.77 343.485 149.836C342.547 152.026 341.608 154.215 340.67 156.405C340.044 157.969 339.106 159.533 339.106 161.097C338.48 161.41 338.48 162.348 338.167 162.974C337.854 163.6 337.854 164.225 337.541 164.851C335.665 169.23 333.788 173.61 331.285 177.676C329.721 180.179 328.469 182.994 326.905 185.809C325.654 187.686 324.403 189.563 323.151 191.44C321.9 193.317 320.649 195.506 319.397 197.696C316.895 201.137 314.392 204.578 311.89 208.019C310.325 210.521 308.448 212.711 306.571 215.213C304.695 217.716 302.505 219.905 300.628 222.408C300.002 223.346 299.376 224.285 298.438 225.223C296.248 227.726 293.746 229.915 292.181 232.731C291.869 233.356 291.243 233.669 290.617 233.982C289.679 234.608 289.366 235.233 289.679 236.484C289.679 236.797 289.992 237.11 289.992 237.11C290.304 237.423 290.93 237.423 291.243 237.11C293.433 235.546 295.31 234.295 297.499 233.043Z" fill="#6A6A57"/>
<path d="M313.454 218.654C314.079 218.029 314.705 217.09 315.331 216.465C315.643 216.152 315.956 215.839 316.269 215.526C315.956 215.839 315.643 216.152 315.331 216.777C314.705 217.09 314.079 218.029 313.454 218.654Z" fill="#6A6A57"/>
<path d="M280.919 103.54C279.981 103.54 279.355 103.54 278.417 103.54C277.791 103.853 277.478 104.166 277.478 104.791C277.478 108.545 276.54 112.299 275.601 115.74C274.975 118.242 274.35 121.057 274.35 123.56C274.037 127.939 273.099 132.319 271.534 136.385C270.283 139.2 269.345 142.328 268.093 145.144C266.842 148.897 264.652 152.026 262.15 155.154C259.96 157.656 258.396 160.471 256.519 162.974C252.765 168.604 249.011 174.235 245.257 179.553C241.503 184.558 237.436 189.563 233.682 194.255C231.805 196.445 229.928 198.321 227.738 199.885C225.861 201.45 223.984 203.013 222.42 204.89C221.169 206.142 219.918 207.393 218.354 208.018C216.789 208.957 215.225 210.208 213.661 211.147C213.348 211.459 213.035 211.459 212.723 211.772C212.097 212.398 212.097 212.398 212.723 212.711C213.974 213.336 214.912 213.649 216.164 212.711C220.23 210.208 224.61 208.018 228.364 204.89C228.99 204.265 229.928 203.952 230.554 203.326C232.431 201.137 234.308 199.26 236.498 197.383C237.749 196.445 238.687 194.881 239.626 193.629C241.19 191.752 243.067 189.563 244.944 187.999C248.072 185.183 250.575 182.055 252.765 178.302C255.58 173.609 258.708 168.917 261.211 164.225C263.714 159.846 266.529 155.466 268.719 150.774C269.97 147.959 271.534 145.144 272.786 142.328C274.663 137.636 276.227 133.257 277.165 128.252C277.478 127.314 277.478 126.688 277.791 125.75C279.668 121.37 279.981 116.365 280.606 111.673C280.919 109.483 281.232 107.607 281.232 105.417C281.232 105.104 281.232 104.479 281.232 104.166C282.17 104.166 281.858 103.853 280.919 103.54Z" fill="#6A6A57"/>
<path d="M212.723 211.147C213.974 209.896 215.226 208.957 216.79 208.332C218.667 207.393 220.231 205.829 221.795 204.265C223.046 202.701 224.61 201.45 226.175 200.199C229.303 198.009 232.118 195.194 234.308 192.066C237.436 187.999 240.565 183.933 243.693 179.866C245.57 177.364 247.447 174.548 249.011 172.046C250.888 169.23 253.078 166.102 254.955 163.287C257.144 159.846 259.334 156.718 261.837 153.59C263.401 151.713 264.652 149.211 265.591 147.021C267.468 142.329 269.345 137.324 270.909 132.319C271.535 130.442 271.847 128.565 271.847 126.688C272.16 121.996 272.786 117.304 274.037 112.925C274.976 110.422 274.976 107.92 275.289 105.417C275.289 104.479 275.289 104.479 274.35 104.166H274.037C270.596 104.792 270.909 103.853 270.283 107.607C269.032 112.612 267.155 117.304 265.591 121.996C263.714 127.001 261.211 132.006 259.334 137.324C258.083 140.452 256.832 143.58 255.268 146.708C253.391 150.462 250.888 154.216 249.011 157.969C248.698 158.908 248.072 159.846 247.447 160.785C245.257 163.6 243.38 166.415 241.816 169.23C240.877 170.795 239.626 172.671 238.688 174.235C237.124 176.112 235.872 178.302 234.308 179.866C234.308 179.866 233.995 180.179 233.995 180.492C233.057 182.994 231.18 184.871 229.616 187.061C227.113 190.189 224.61 193.317 222.108 196.445C221.169 197.383 220.544 198.635 219.605 199.573C217.415 202.076 214.913 204.265 213.036 207.081C212.723 207.706 212.097 208.019 211.472 208.332C210.533 208.645 210.22 209.583 210.533 210.521C210.533 210.834 210.846 211.147 210.846 211.46C211.472 212.085 212.097 211.46 212.723 211.147Z" fill="#6A6A57"/>
<path d="M231.806 195.819C231.493 196.132 231.18 196.445 230.867 196.758C231.18 196.445 231.493 196.132 231.806 195.819Z" fill="#6A6A57"/>
<path d="M232.744 194.881L232.431 195.194C232.744 194.881 232.744 194.881 232.744 194.881Z" fill="#6A6A57"/>
<path d="M232.431 195.193C232.118 195.506 232.118 195.819 231.805 195.819C232.118 195.819 232.118 195.506 232.431 195.193Z" fill="#6A6A57"/>
<path d="M123.88 247.433C123.567 247.433 123.567 247.433 123.88 247.433C123.254 246.494 122.316 245.869 121.377 245.243C121.065 245.243 120.752 245.243 120.439 245.556C117.936 248.371 115.121 250.248 111.993 252.438C109.177 254.314 106.674 256.504 104.485 258.694C101.669 261.509 98.5408 263.699 95.0997 265.263C92.2843 266.827 89.4689 268.078 86.6534 269.642C82.8995 271.519 79.1455 272.77 75.0788 273.396C74.1403 273.709 72.889 273.709 71.9505 274.021C64.7554 275.898 57.5604 277.462 50.3653 279.652C46.2986 280.903 41.919 281.529 37.8522 282.154C35.0368 282.78 32.2213 283.093 29.4058 283.406C26.2775 283.718 23.1493 284.031 19.7082 283.718C18.1441 283.718 16.8927 283.718 15.3286 283.718C14.3901 284.031 13.4516 283.719 12.826 284.031C10.6362 284.344 8.44636 284.031 6.25656 283.718C4.69242 283.406 3.12828 283.406 1.56414 283.093C0.938484 283.093 0.312828 282.78 0 283.718C0.312828 284.344 0.625637 284.97 1.25129 285.595C1.87695 286.221 2.1898 286.221 3.12828 286.221C7.19505 286.847 10.949 288.098 15.0158 288.411C17.5184 288.723 20.3339 289.036 22.8365 288.723C24.7135 288.411 26.2776 288.411 28.1545 288.723C29.7187 288.723 30.97 288.723 32.5341 288.098C32.8469 287.785 33.4727 287.785 33.7855 287.785C36.9138 287.472 40.3548 287.159 43.7959 286.847C46.9242 286.847 50.3653 285.908 53.4936 284.97C55.6834 284.344 57.8732 283.719 60.063 282.78C67.8837 280.278 76.3301 278.401 83.838 274.96C86.9663 274.334 89.7817 272.77 92.5971 271.206C96.9767 269.016 101.044 266.827 105.11 264.012C106.362 263.073 107.613 262.135 109.177 261.509C110.115 260.883 111.367 260.258 111.993 259.319C112.618 259.007 113.244 258.694 113.557 258.068C115.746 256.504 117.936 254.627 119.813 252.438C121.065 251.186 122.629 250.248 123.567 248.684C123.567 248.371 123.88 248.371 124.193 248.371C124.193 248.371 124.193 248.371 123.88 247.433Z" fill="#6A6A57"/>
<path d="M7.8205 283.093C9.38464 283.406 10.6359 283.406 12.2001 283.093C14.3899 282.78 16.8925 282.78 19.0823 283.093C23.1491 283.406 26.903 283.093 30.9698 282.467C35.6622 281.529 40.3546 280.903 45.3599 279.965C48.801 279.339 52.2422 278.088 55.6833 277.462C61.9398 275.898 67.8835 274.021 74.1401 273.083C79.4582 272.145 84.1506 269.955 88.843 267.452C91.6584 265.888 94.4739 264.637 97.2894 262.76C99.1663 261.822 100.731 260.571 102.295 259.007C104.484 256.817 106.674 254.627 109.177 253.063C110.428 252.125 111.367 251.499 112.618 250.873C114.808 249.622 116.685 248.058 118.562 246.181C119.187 245.869 119.813 245.556 120.126 244.93C119.5 244.617 119.187 244.304 118.562 243.992C116.372 242.115 116.059 242.115 113.869 243.992C109.802 246.807 105.11 249.309 100.731 251.499C96.0381 254.002 91.3457 255.878 86.6532 258.381C78.8325 262.76 70.699 265.263 62.5654 268.078C60.6885 268.704 58.8116 269.016 57.2474 269.329C53.1806 270.268 49.4266 271.832 45.3599 272.457C42.2316 273.083 39.1033 273.709 36.2879 274.647C32.5339 275.898 28.4672 276.211 24.4004 276.837C22.2107 277.149 20.0208 277.462 17.831 277.775C16.8926 278.088 15.6412 278.401 14.7028 278.401C11.5745 278.713 8.13335 279.026 5.00506 279.652C4.37941 279.965 3.75373 279.965 3.12808 279.652C1.87676 279.339 0.938316 279.965 0.625488 281.216C0.625488 281.529 0.625488 282.154 0.625488 282.467C2.81529 282.154 5.31787 282.467 7.8205 283.093Z" fill="#6A6A57"/>
<path d="M191.138 165.476C190.199 164.225 188.948 163.6 187.697 162.661C187.071 162.974 187.071 163.287 186.758 163.912C185.507 166.102 184.569 168.605 183.943 171.107C183.317 172.984 182.379 174.861 181.753 177.05C181.44 177.363 181.44 177.989 181.127 178.614C181.127 178.927 180.815 179.24 180.815 179.553C180.502 183.619 178.625 187.06 177.373 190.814C177.061 191.44 176.748 192.065 176.435 192.691C176.435 193.004 176.122 193.317 176.122 193.629C175.809 194.255 175.184 194.881 174.871 195.506C174.245 196.757 173.932 198.322 173.307 199.886C172.368 202.388 171.117 204.891 169.866 207.393C167.05 213.024 164.235 218.654 161.419 223.972C158.604 229.602 155.788 235.233 152.66 240.551C150.47 244.305 147.968 248.058 145.778 251.812C143.901 255.253 142.024 258.381 140.46 261.822C140.147 262.135 139.834 262.76 139.521 263.073C138.896 264.324 138.27 265.576 137.331 266.514C137.019 266.827 137.019 267.452 137.331 267.452C138.27 268.078 139.208 268.704 140.46 269.016C141.085 269.016 141.711 269.017 142.337 268.391C142.962 267.765 143.588 266.827 144.214 266.201C146.091 263.699 148.593 261.822 150.157 259.007C150.47 258.381 151.096 257.443 151.409 256.817C153.598 253.689 155.475 250.874 157.352 247.433C159.542 243.679 161.106 239.925 163.296 236.171C166.112 230.854 169.24 225.849 172.368 220.844C174.558 217.403 176.435 213.649 177.999 209.895C179.563 206.142 181.127 202.075 183.004 198.634C184.256 196.132 185.194 193.629 185.82 191.127C186.758 187.373 188.01 183.619 188.948 180.179C190.199 176.738 191.451 172.984 192.076 169.23C192.076 167.353 191.764 166.415 191.138 165.476Z" fill="#6A6A57"/>
<path d="M137.644 263.073C138.27 261.196 139.521 259.632 140.46 257.756C143.275 253.063 146.091 248.371 148.906 243.679C152.034 238.674 154.537 233.669 157.353 228.664C159.855 223.972 162.358 219.28 164.548 214.275C166.425 210.208 168.927 206.455 170.491 202.388C171.743 199.573 172.681 196.445 173.62 193.317C173.62 193.004 173.62 192.691 173.932 192.691C173.932 192.378 174.245 192.065 174.245 191.753C174.245 191.44 174.245 191.44 174.558 191.127C174.558 190.814 174.871 190.501 174.871 190.188C174.871 190.188 174.871 189.876 175.184 189.876V189.563C174.558 188.624 175.184 187.999 175.809 187.373C176.748 183.619 177.999 180.178 179.563 176.738C179.563 176.738 179.563 176.738 179.563 176.425C179.563 176.112 179.876 175.799 179.876 175.486C180.189 174.548 181.128 173.922 181.753 172.984C182.692 171.42 183.005 169.856 183.63 168.292C184.256 166.415 185.194 164.851 185.82 163.287C186.446 162.036 186.446 162.036 185.194 161.723C183.943 161.41 182.692 161.097 181.753 162.036C181.44 162.348 180.815 162.348 180.502 162.036C178.625 164.851 178.312 167.979 177.061 171.107C176.435 171.42 176.435 171.733 176.122 172.358C174.558 176.112 172.994 179.866 171.743 183.619C171.43 184.245 171.43 184.871 171.43 185.496C169.866 188.937 167.989 192.378 166.425 195.819C165.486 197.696 164.548 199.573 163.922 201.762C163.609 202.701 163.296 203.326 162.983 203.952C158.917 211.46 155.163 218.967 151.096 226.787C150.47 227.726 150.158 228.664 149.532 229.603C148.281 232.418 147.029 234.92 145.778 237.423C144.839 239.3 143.588 241.489 142.65 243.366C141.086 246.182 140.147 248.997 138.583 251.812C137.019 254.315 135.455 256.817 133.89 259.632C132.326 262.448 131.701 262.448 134.203 264.95C135.455 266.201 135.455 266.201 136.706 264.95C137.019 264.637 137.332 264.325 137.644 263.699C137.332 263.386 137.332 263.073 137.644 263.073Z" fill="#6A6A57"/>
<path d="M132.013 191.127C135.455 187.373 138.583 183.307 141.711 179.553C143.588 177.363 145.465 175.174 146.716 172.984C147.655 172.046 148.593 170.794 149.219 169.543C149.219 169.543 149.219 169.543 149.219 169.23C149.219 168.917 149.532 168.917 149.532 168.605C151.096 165.789 152.66 162.661 153.598 159.533C155.475 153.903 156.414 147.959 157.04 142.329C157.665 137.636 158.291 133.257 159.229 128.565C160.168 123.873 161.106 119.181 161.419 114.488C161.732 111.673 162.045 109.171 162.67 106.355C162.983 104.479 163.609 102.915 163.609 101.038C162.983 95.0943 163.296 88.838 163.609 82.8946C163.609 82.269 163.609 81.9562 163.922 81.3306C164.547 78.8281 164.548 76.3256 165.173 73.5103C165.486 72.5719 165.173 72.5719 164.235 72.2591C163.609 72.2591 162.983 71.9463 162.358 71.9463C160.793 71.9463 159.855 72.5719 159.542 73.8232C159.229 76.6385 158.917 79.7666 158.604 82.5819C158.291 85.3972 158.291 88.5253 157.352 91.3405C156.727 93.843 156.414 96.6583 156.101 99.1608C155.788 101.038 156.101 102.914 155.788 104.791C154.85 108.545 154.537 112.612 153.598 116.365C152.347 121.058 151.722 125.75 150.783 130.442C150.47 131.693 150.47 132.631 149.845 133.883C149.219 134.821 148.906 136.072 148.28 137.011C146.716 140.765 145.152 144.205 143.901 147.959C142.65 152.339 141.085 156.405 139.521 160.472C138.583 162.661 137.644 164.851 136.706 166.728C135.455 169.23 133.89 171.733 132.326 173.922C130.762 176.425 128.885 178.302 127.634 180.804C127.008 182.055 126.382 182.994 125.444 184.245C122.316 188.312 119.5 192.378 116.372 196.132C115.121 197.696 114.495 199.573 113.869 201.45C113.244 203.327 113.869 204.891 115.746 205.516C116.059 205.516 116.372 205.829 116.685 205.829C117.936 206.142 117.936 206.142 118.562 205.203C119.187 204.265 119.813 203.639 120.752 202.701C124.506 199.573 128.259 195.193 132.013 191.127Z" fill="#6A6A57"/>
<path d="M172.994 77.2641C172.994 76.6385 172.368 76.3257 172.055 76.0129C170.804 74.7617 169.24 74.4488 167.676 73.8232C166.425 73.5104 166.425 73.5104 166.112 74.7617C165.799 77.577 165.173 80.3922 165.173 83.2075C165.173 88.8381 164.86 94.4687 165.486 99.7865C165.486 101.663 165.486 103.227 164.86 104.791C164.548 106.355 164.235 107.607 163.922 109.171C162.983 115.114 162.045 121.058 160.794 127.314C159.855 131.693 159.23 136.385 158.604 140.765C157.978 145.457 157.353 150.149 156.101 154.841C154.537 161.41 151.722 167.666 147.655 172.984C141.711 180.491 135.767 187.999 129.511 195.194C128.885 196.132 127.947 197.07 127.321 197.696C126.383 198.322 125.757 199.26 125.131 200.198C124.506 200.824 123.567 201.763 122.942 202.388C122.316 203.014 121.377 203.639 121.065 204.578C120.439 205.516 119.5 206.142 118.875 207.393C119.5 207.393 120.126 207.706 120.752 207.706C122.003 208.019 123.254 207.706 124.506 207.706C125.757 207.706 127.008 207.08 127.947 206.455C128.572 205.829 129.198 205.203 129.824 204.578C132.639 201.45 135.767 198.634 138.583 195.506C139.834 194.255 140.773 192.691 142.024 191.127C144.214 188.624 145.778 185.496 147.968 182.681C148.281 182.368 148.281 181.743 148.906 181.43C149.219 180.804 149.532 180.491 149.845 180.179C150.157 179.866 150.157 179.866 150.157 179.553C151.409 177.051 153.599 175.487 154.85 173.297C155.788 171.733 157.04 170.481 157.978 168.917C158.917 167.041 159.855 165.164 161.106 163.287C162.358 161.097 163.296 158.282 164.235 155.779C164.86 154.528 164.86 152.964 165.173 151.713C166.737 144.518 168.614 137.636 169.866 130.442C170.179 127.939 171.117 125.437 171.43 122.934C172.056 118.555 172.994 114.176 173.307 109.796C173.62 103.54 173.932 96.9711 173.932 90.7149C173.932 87.8996 173.62 85.0844 173.932 82.2691C173.62 80.3922 173.307 78.8282 172.994 77.2641Z" fill="#6A6A57"/>
<path d="M253.078 24.7119C253.078 20.6454 252.765 16.5788 252.452 12.5123C252.452 11.261 252.452 9.69701 252.452 8.44577C252.452 6.88172 251.827 5.6305 251.514 4.06645C251.514 3.44083 250.888 3.12804 250.575 2.81523C249.324 1.8768 248.073 1.56397 246.821 0.938355C244.945 0.312735 244.632 -7.50124e-05 244.632 2.5024C244.632 5.6305 244.006 8.44577 244.319 11.5739C244.632 16.266 244.632 20.6453 244.945 25.3375C245.257 27.2143 245.257 29.404 244.945 31.2808C244.632 32.5321 244.319 34.0962 244.319 35.3474C243.693 40.6652 243.068 45.6702 242.442 50.9879C241.816 55.9929 240.878 60.685 240.252 65.6899C239.627 71.3205 239.314 76.6383 238.062 81.9561C236.498 88.5251 234.308 94.7812 230.242 100.099C224.924 107.294 219.605 114.488 213.974 121.37C212.723 122.934 211.159 124.498 209.908 126.375C209.282 127.001 208.656 127.626 208.344 128.565C207.718 129.19 207.092 129.816 206.779 130.442C205.841 131.38 204.903 132.318 204.277 133.57C203.651 134.195 203.026 134.821 202.713 135.447C202.713 135.759 203.025 135.759 203.338 135.759C204.902 136.072 206.467 136.072 208.031 135.759C209.908 135.759 211.472 134.821 212.723 133.257C213.349 132.318 214.287 131.38 215.226 130.442C217.103 128.565 218.667 126.688 220.231 124.811C222.734 121.996 224.924 118.555 227.113 115.74C227.426 115.427 227.426 115.114 227.426 115.114C229.616 111.36 232.119 107.607 234.621 104.166C235.56 102.914 236.811 101.663 237.437 100.099C237.437 99.7862 237.749 99.7863 237.749 99.4734C239.001 98.2222 239.626 96.6581 240.565 95.4069C241.503 93.8428 242.129 91.966 243.068 90.402C244.319 87.8995 245.257 85.3969 246.196 82.8945C246.509 81.3304 246.822 79.7664 247.134 78.2023C248.073 73.1974 249.011 68.1925 249.95 63.5003C250.263 61.3106 250.575 59.121 250.888 57.2441C251.827 51.9264 252.452 46.2957 253.078 40.978C253.078 35.973 253.078 30.3425 253.078 24.7119Z" fill="#6A6A57"/>
<path d="M220.544 111.673C222.734 108.545 225.549 105.73 227.426 102.289C228.99 100.412 230.242 98.5352 231.493 96.3455C233.057 93.5302 234.308 90.4021 235.247 86.9612C236.811 81.6434 237.437 76.0128 238.062 70.3822C238.375 65.6901 239.001 60.998 239.627 55.993C240.565 51.3009 241.191 46.2959 241.504 41.6038C241.816 38.4757 242.129 35.3476 242.755 32.5323C243.068 30.6554 243.38 28.7785 243.068 26.9017C242.755 22.5223 242.442 17.8302 242.442 13.4509C242.442 9.69716 242.755 5.6306 243.38 1.87688C243.693 1.90178e-05 243.693 0 241.816 0C241.504 0 241.191 0 240.878 0C239.001 0 238.062 0.625658 238.062 2.18971C237.75 5.94343 237.437 9.69716 237.437 13.4509C237.437 15.3277 237.124 17.2045 236.811 18.7686C236.498 20.9583 236.185 23.4608 235.873 25.6504C235.56 27.8401 235.873 30.3426 235.56 32.5323C234.934 37.2245 234.621 41.9166 233.37 46.6087C232.744 49.1112 232.431 51.6137 232.119 54.1162C231.493 57.2443 231.493 60.3724 229.929 63.5005C229.929 63.8133 229.929 63.8132 229.616 64.126C228.99 65.6901 228.365 67.2541 227.739 68.8182C225.549 73.8231 224.298 78.8282 222.734 84.1459C221.795 85.71 221.483 87.274 220.857 89.1508L220.544 89.7765C220.231 90.7149 219.606 91.9661 219.606 92.9046C218.98 93.843 218.354 94.7814 218.041 95.7198C217.416 97.2839 216.79 98.5352 215.852 99.7864C214.287 102.602 212.41 105.104 210.846 107.919C208.969 110.735 207.405 113.55 205.528 116.365C203.339 119.181 201.774 122.309 199.585 124.811C198.02 126.688 197.395 128.878 196.456 130.755C196.456 131.067 196.143 131.38 196.143 131.693C195.831 133.257 196.143 134.821 198.333 135.447C198.646 135.447 199.272 135.759 199.585 136.072C200.21 136.385 200.836 136.385 201.149 135.447C202.087 133.883 203.651 132.631 204.59 131.38C210.221 124.498 215.539 118.555 220.544 111.673Z" fill="#6A6A57"/>
<path d="M226.8 287.785C229.929 285.596 233.057 283.406 236.185 280.904C237.749 279.965 239.001 279.027 240.252 277.463C242.755 274.96 244.944 272.458 246.821 269.642C249.637 265.263 251.827 260.571 254.016 255.566C255.893 251.499 257.458 247.12 259.334 243.054C261.524 238.987 263.401 234.608 265.278 230.228C266.53 226.787 267.781 223.659 269.658 220.531C270.909 218.342 271.535 216.152 272.16 213.962C273.725 207.393 275.289 200.511 278.104 194.255C278.417 193.317 278.73 192.378 279.043 191.44C280.607 188.937 280.607 189.25 277.479 187.999C277.166 187.999 277.166 187.999 276.853 187.999C274.976 187.999 274.663 187.999 274.037 189.876C273.412 191.127 273.099 192.378 272.473 193.63C270.596 198.009 269.345 202.701 266.842 207.08C266.217 208.019 265.904 208.957 265.591 210.209C264.027 213.649 263.088 217.09 261.524 220.531C259.647 224.598 257.77 228.664 255.581 232.731C254.642 234.295 254.016 235.859 253.078 237.423C252.139 239.3 251.201 240.864 250.262 242.741C249.637 243.679 249.011 244.618 248.385 245.556C247.76 246.182 247.134 247.12 246.509 247.746C244.632 250.248 242.755 252.438 240.878 254.94C239.001 257.756 237.124 260.571 235.247 263.386C233.683 265.263 232.118 267.14 230.867 269.33C230.554 269.955 230.241 270.581 229.929 270.894C227.739 273.083 225.549 275.273 223.359 277.463C218.667 281.529 213.974 285.908 208.969 289.662C206.467 291.539 203.964 293.729 201.148 295.606C199.272 296.857 197.707 298.734 196.456 300.298C196.143 300.611 195.83 301.236 195.83 301.549C195.205 302.8 195.517 304.051 196.769 304.99C197.082 305.303 197.707 305.616 198.02 305.928C198.646 306.554 198.959 306.241 199.584 305.928C202.087 304.364 204.902 302.487 207.405 300.923C213.974 296.544 220.544 292.477 226.8 287.785Z" fill="#6A6A57"/>
<path d="M285.925 193.942C284.986 192.378 283.422 191.44 282.171 190.501C281.545 189.876 281.232 189.876 280.919 190.814C279.981 193.317 278.73 195.819 278.104 198.322C276.54 203.952 274.663 209.583 273.724 215.213C273.412 216.777 272.786 218.342 272.16 219.906C271.222 221.47 270.596 223.034 269.658 224.598C267.781 228.977 265.904 233.356 263.714 237.423C261.211 242.741 258.396 248.058 256.206 253.689C254.329 258.068 252.452 262.135 250.262 266.201C246.821 272.458 242.442 277.775 236.811 281.842C228.051 288.098 219.292 294.354 210.533 300.298C209.907 300.611 208.969 301.236 208.343 301.549C207.405 301.862 206.779 302.487 206.153 303.113C204.902 303.739 203.651 304.364 202.712 305.303C202.087 305.615 201.148 305.928 200.835 306.867C202.4 308.118 204.276 308.431 206.153 308.744C207.405 309.056 208.656 308.744 210.22 308.431C210.846 308.118 211.472 307.492 212.097 307.18C214.913 305.616 217.728 304.051 220.544 302.175C224.61 299.672 228.677 296.857 232.118 293.729C234.308 291.852 236.498 290.288 238.375 288.411C239.313 287.473 240.252 286.847 241.503 286.221C242.442 285.596 243.38 284.97 244.006 284.344C244.319 284.032 244.631 283.719 244.944 283.719C246.508 282.78 247.76 281.529 249.011 280.278C249.949 279.339 250.888 278.088 251.826 277.15C254.955 274.022 257.77 270.581 259.647 266.201C260.898 263.386 262.463 260.571 264.027 258.068C265.904 254.627 267.781 251.499 269.345 247.746C270.909 244.305 272.473 241.177 274.037 238.049C274.976 236.797 275.601 235.546 275.601 233.982C276.54 231.792 277.478 229.29 278.417 227.1C280.607 221.157 282.484 215.213 284.048 209.27C284.673 206.455 285.299 203.639 286.238 201.137C286.863 199.573 286.863 198.009 286.863 196.445C286.863 195.194 286.55 194.568 285.925 193.942Z" fill="#6A6A57"/>
<path d="M148.906 181.742C148.906 181.117 149.219 180.491 149.844 180.491C149.844 180.804 149.219 181.43 148.906 181.742Z" fill="#6A6A57"/>
<path d="M136.393 264.637C136.705 264.012 137.018 263.699 137.331 263.386C137.331 264.012 137.018 264.637 136.393 264.637Z" fill="#6A6A57"/>
<path d="M147.968 182.681C147.968 182.055 148.281 181.742 148.906 181.43C148.593 182.055 148.594 182.681 147.968 182.681Z" fill="#6A6A57"/>
<path d="M149.219 169.23C148.906 168.917 149.219 168.605 149.531 168.605C149.531 168.605 149.531 168.917 149.219 169.23Z" fill="#6A6A57"/>
<path d="M117.624 308.43C120.752 307.805 123.567 306.866 126.696 306.241C127.008 306.241 127.321 306.241 127.634 305.928C128.573 305.928 129.198 305.615 129.824 305.302C131.701 304.677 133.265 304.364 135.142 303.738C138.583 302.487 141.711 300.61 144.527 298.733C148.906 295.605 152.973 291.852 156.727 288.098C159.855 284.657 163.296 281.529 166.738 278.401C171.117 274.647 175.184 270.893 178.938 266.827C180.502 265.263 182.066 263.699 183.63 262.448C185.507 260.883 187.071 259.319 188.636 257.13C192.702 251.186 196.769 245.556 201.774 240.864C202.4 240.238 203.026 239.3 203.964 238.674C204.59 238.048 205.841 237.736 205.528 236.797C205.215 235.859 204.277 235.233 203.651 234.92H203.338C201.774 234.295 201.461 234.295 200.21 235.546C198.333 237.736 196.143 239.612 194.266 241.802C192.389 243.992 190.2 246.181 188.01 248.058C186.758 248.997 185.82 250.248 184.569 251.186C182.066 253.689 179.876 256.504 177.374 259.007C174.558 261.509 171.743 264.012 168.927 266.514C166.737 268.391 164.548 270.581 162.045 272.457C159.855 274.334 157.978 276.211 155.163 277.462C152.973 278.401 150.783 279.965 148.593 281.216C143.901 283.719 139.834 287.159 135.455 289.975C134.829 289.975 134.516 290.287 133.891 290.913C133.265 290.913 132.952 291.226 132.326 291.852C131.075 292.477 129.824 293.103 128.885 294.041C128.573 294.041 127.947 294.354 127.634 294.354C124.819 295.605 122.003 296.857 118.875 297.795C113.557 299.359 108.239 301.549 102.921 303.113C99.4795 304.051 96.3513 305.302 92.9101 305.928C90.7204 306.241 88.5306 307.492 86.6536 308.743C84.7766 309.682 84.4638 311.559 85.4023 313.435C85.7151 313.748 85.7151 314.061 86.0279 314.374C86.3407 314.999 86.6536 315.312 87.592 314.999C90.4075 314.374 93.5358 314.061 96.3513 313.435C103.546 311.559 110.741 310.307 117.624 308.43Z" fill="#6A6A57"/>
<path d="M209.282 243.366C208.969 241.802 208.031 240.238 207.092 238.987C206.467 238.049 206.467 238.049 205.841 238.987C203.964 240.864 202.087 242.741 200.523 244.93C197.082 249.31 193.641 253.376 190.825 258.068C189.574 259.945 188.01 261.509 186.446 263.073C184.882 264.012 183.63 265.263 182.379 266.514C179.564 269.33 177.061 271.832 174.245 274.334C169.24 279.027 163.922 283.406 159.23 288.411C156.101 291.539 152.973 294.354 149.845 297.17C144.527 301.549 138.583 304.677 132.014 306.554C123.254 308.744 114.182 311.246 105.423 312.81C104.172 313.123 102.921 313.123 101.669 313.749C100.418 313.749 99.1667 314.061 97.9154 314.374H97.6026C97.2897 314.374 97.2897 314.374 96.9769 314.374C96.664 314.374 96.3513 314.374 96.0384 314.374C96.0384 314.374 96.0384 314.374 95.7256 314.374C95.4128 314.374 95.0999 314.374 94.4743 314.687C92.9102 314.687 91.346 315 89.7819 315.625C89.1562 315.625 88.8434 315.625 88.5306 316.251C88.5306 316.564 89.1562 316.877 89.469 317.189C91.9716 319.692 94.4743 321.882 98.541 320.318H98.8539C101.982 320.005 105.11 319.379 108.239 319.066C111.993 318.441 115.747 317.189 119.813 316.564C119.813 316.564 120.126 316.564 120.126 316.251C126.07 313.749 132.014 312.185 138.27 310.62C139.834 310.308 141.086 309.995 142.337 309.369C144.527 308.431 147.029 307.18 149.219 306.241C150.47 305.616 151.722 305.303 152.66 304.364C153.912 303.739 155.163 303.113 156.101 302.175C157.04 301.549 157.666 300.611 158.604 299.985C162.671 296.544 166.738 293.103 170.804 289.662C173.307 287.472 175.809 285.283 177.999 283.093C179.251 281.842 180.815 280.904 182.066 279.652C183.317 278.401 184.569 276.837 186.133 275.586C188.323 273.709 189.887 271.519 191.764 269.642C195.518 265.576 198.959 261.196 202.4 256.504C203.964 254.315 205.528 252.125 207.405 249.935C208.657 248.684 209.282 247.12 209.908 245.556C209.282 244.618 209.282 243.992 209.282 243.366Z" fill="#6A6A57"/>
<path d="M51.9294 213.649C52.2422 213.336 52.555 213.024 52.8678 212.398C56.3089 208.019 60.0629 203.639 63.8168 199.26C68.5093 194.255 72.8889 188.937 77.2685 183.619C80.7096 179.24 84.1507 174.548 87.5918 170.169C89.4688 167.353 91.6586 164.851 93.5355 162.036C96.351 158.595 98.228 154.528 100.418 150.774C100.731 150.774 100.418 150.462 100.731 150.149C101.043 149.836 101.043 149.21 101.669 148.898L101.982 148.272C101.982 147.334 102.608 146.395 102.92 145.769C104.797 142.016 106.987 138.575 109.49 135.134C109.803 134.821 109.803 134.821 110.116 134.508C109.803 133.57 111.054 133.57 111.367 132.944C113.557 129.816 115.121 126.375 117.623 123.56C117.936 122.934 118.249 122.621 118.249 121.996C117.936 121.996 117.623 121.683 117.311 121.683C116.059 121.058 115.121 120.745 113.557 121.37C112.618 121.683 111.68 121.683 111.367 122.622C110.116 124.811 108.864 127.314 107.3 129.816C106.674 130.442 106.049 131.067 105.736 131.693C105.423 132.006 105.11 132.319 104.797 132.631C103.546 134.821 101.982 137.011 100.731 139.2C100.418 139.826 100.105 140.452 99.7921 141.077C98.228 143.893 96.351 146.395 94.1612 148.898C92.2843 151.4 90.4073 153.902 88.8431 156.405C88.2175 157.031 88.2175 157.969 87.5918 158.907C86.3405 160.472 85.0892 162.348 83.8379 163.912C79.7712 169.23 75.3916 174.548 71.3248 179.866C70.6991 180.491 70.0735 181.117 69.7606 182.055C67.8837 184.871 65.6938 187.373 63.8168 190.188C62.5655 191.753 61.3143 193.004 60.3758 194.568C59.1245 196.445 57.5603 198.321 56.309 200.198C54.1192 203.326 51.3037 206.142 48.8011 208.957C46.6113 211.46 46.6113 212.085 48.4882 214.588C49.4267 215.839 49.4268 215.839 50.6781 214.9C50.9909 214.9 50.9909 214.588 51.3037 214.588C51.6165 214.275 51.9294 213.962 51.9294 213.649Z" fill="#6A6A57"/>
<path d="M122.628 127.314C122.003 126.062 121.377 124.811 120.125 123.873C119.813 123.56 119.813 123.247 119.5 123.247C118.874 123.247 118.561 123.873 118.249 124.185C116.059 127.314 114.182 130.442 112.305 133.57C111.992 134.195 111.679 135.134 111.053 135.447L109.489 137.949C108.238 141.703 106.048 145.144 104.171 148.585C103.546 149.836 102.92 151.713 101.043 152.338C100.73 152.651 100.417 153.277 100.104 153.902C100.104 154.215 100.104 154.528 99.7916 154.528C99.166 155.154 98.8532 156.092 98.2275 157.031C96.9762 159.22 95.4121 161.41 93.8479 163.6C93.5351 163.912 93.5352 164.225 93.2223 164.538C93.2223 164.538 93.2223 164.851 92.9095 164.851C92.9095 165.476 92.5966 165.476 92.2838 165.789C92.2838 166.102 91.9709 166.102 91.9709 166.415C91.9709 166.728 91.6582 167.04 91.6582 167.04C91.6582 167.353 91.6582 167.353 91.6582 167.666C91.6582 167.979 91.3453 167.979 91.3453 168.292C91.0325 168.917 90.7197 169.543 90.094 170.169L89.7812 170.481C89.4684 170.794 89.1555 171.107 88.8427 171.107C88.5298 171.42 88.217 171.42 87.9042 171.733L87.5914 172.045C87.5914 172.358 87.2786 172.671 86.9658 172.984C85.4016 174.548 84.1503 176.738 82.8989 178.302C78.8322 183.619 74.7654 188.937 70.3858 193.942C65.3806 199.573 60.3754 204.89 55.6829 210.834C54.7445 211.772 54.4316 213.024 53.1803 213.649C52.2418 214.588 51.6161 215.839 50.3648 216.464C50.052 216.777 49.7392 217.09 50.3648 217.403C51.3033 218.341 51.9289 218.967 53.1803 219.593C53.8059 219.905 54.4316 219.905 55.0572 219.28C55.9957 218.654 56.9342 218.028 57.5598 217.403C59.4368 215.839 61.6267 214.588 63.1908 212.711C64.1293 211.772 65.0677 210.834 66.0062 209.895C68.5089 207.393 71.0114 204.89 73.2012 202.388C76.0167 198.947 78.8322 195.193 81.3348 191.752C85.0887 187.06 89.1556 182.368 93.2223 177.989C95.0993 175.799 96.9762 173.609 98.5404 171.42C101.356 167.04 104.484 162.661 107.3 158.282C107.925 157.343 108.551 156.718 109.176 155.779C110.428 153.902 111.366 151.713 112.618 149.523C113.556 147.646 114.495 145.457 115.433 143.58C117.623 139.2 120.126 135.134 122.002 130.754C122.941 128.878 122.941 127.939 122.628 127.314Z" fill="#6A6A57"/>
</g>
</svg>
