<svg width="386" height="256" viewBox="0 0 386 256" fill="none" xmlns="http://www.w3.org/2000/svg">
<g opacity="0.5">
<path d="M112.618 174.09C112.618 169.711 112.305 165.957 111.367 162.516C110.741 159.701 110.115 157.198 109.177 154.383C107.925 150.942 106.674 147.188 105.11 143.747C104.484 142.183 103.546 140.932 102.607 139.681C102.295 139.055 101.669 138.743 101.043 139.055C100.73 139.055 100.73 139.681 100.418 140.307C99.7919 144.06 99.4791 147.814 98.8534 151.568C98.5406 154.383 97.6022 157.511 96.3509 160.014C95.4124 162.203 94.161 164.393 92.9096 166.583C90.407 171.275 87.9046 175.967 87.5917 181.597C87.2789 184.413 87.5916 187.228 88.8429 189.731C89.7814 191.607 91.0328 192.859 93.2226 193.484C98.2278 195.361 102.607 193.797 106.674 190.669C108.551 189.105 109.49 186.915 110.428 185.038C111.992 181.285 112.618 177.531 112.618 174.09ZM101.356 158.45C101.356 158.762 101.356 159.075 101.043 159.075C100.73 158.762 100.73 158.137 101.043 157.824C101.356 155.009 101.669 151.881 101.669 149.065C101.669 146.25 101.982 143.435 101.669 140.307C102.92 141.558 102.607 143.122 102.92 144.373C102.607 149.065 101.982 153.757 101.356 158.45Z" fill="#1E2D74"/>
<path d="M176.122 215.068C175.183 212.879 173.619 211.002 171.742 209.438C171.117 208.812 170.491 208.499 169.865 208.187C167.988 207.248 166.111 206.622 163.921 206.622C160.48 206.31 156.727 206.31 153.285 206.935C149.532 207.561 146.09 208.812 142.649 210.689C138.582 212.566 134.516 214.756 130.762 217.258C127.946 219.135 124.818 221.012 122.628 223.514C122.628 223.514 122.315 223.827 122.003 223.827C121.69 224.14 121.377 224.453 121.064 224.765C120.751 225.391 121.064 226.017 121.69 226.017C123.254 226.017 124.505 226.017 126.069 225.704C127.946 225.704 129.823 225.391 131.7 225.391C134.829 225.078 138.27 225.078 141.398 225.704C143.588 226.017 145.778 226.955 147.967 227.581C151.096 228.519 154.224 229.458 157.665 230.083C162.045 230.709 166.424 231.022 170.491 229.145C173.306 227.894 175.496 226.017 176.122 222.889C177.686 220.073 177.373 217.571 176.122 215.068ZM123.88 224.453C124.192 223.514 124.818 223.514 125.131 223.201C128.885 222.263 132.639 221.325 136.705 221.325C138.27 221.325 139.834 221.012 141.398 221.012C141.398 221.325 141.398 221.325 141.398 221.637C135.767 222.263 129.823 223.201 123.88 224.453Z" fill="#1E2D74"/>
<path d="M329.095 194.423C328.469 192.233 328.156 190.356 326.592 188.792C325.341 187.228 323.777 185.977 322.213 185.038C321.274 184.413 320.023 183.787 319.084 183.787C316.582 183.474 314.392 183.474 311.889 183.787C308.135 184.1 304.381 185.664 300.94 187.228C298.438 188.479 295.935 190.043 293.745 191.607C289.991 194.11 286.55 196.925 283.422 200.053C281.232 202.243 278.73 204.433 277.165 206.935C276.853 207.248 276.853 207.561 276.54 207.873C276.54 208.186 276.853 208.186 277.165 208.186C277.478 208.186 277.791 207.873 277.791 207.873C279.668 206.622 281.858 205.997 283.735 205.058C286.863 203.807 290.617 203.181 293.745 202.243C294.058 202.243 294.058 202.243 294.371 202.243C294.371 202.556 293.745 202.556 293.432 202.868C289.679 204.12 285.924 205.371 282.171 206.935C280.919 207.561 279.668 207.873 278.417 208.499C278.104 209.125 277.165 209.125 277.165 210.063C277.478 210.063 277.791 209.75 278.104 209.75C278.417 209.75 279.042 209.75 279.355 209.437C279.355 209.437 279.355 209.437 279.668 209.437C281.858 209.125 283.735 208.499 285.925 207.873C291.243 206.622 296.248 205.997 301.566 206.622C305.633 207.248 309.7 207.561 313.766 207.248C317.833 206.935 321.587 206.309 325.028 204.12C327.531 201.617 329.72 197.864 329.095 194.423Z" fill="#1E2D74"/>
<path d="M62.5655 203.494C62.5655 203.181 62.2527 202.556 61.627 202.556C61.0014 202.556 60.6885 203.181 60.6885 203.807C58.1859 207.561 55.6832 211.627 52.8678 215.381C51.6164 217.258 50.0523 218.822 48.1753 220.073C45.6727 221.95 43.1701 223.514 40.6674 225.391C36.9135 228.206 33.4724 231.021 31.2826 235.401C30.0312 237.903 28.78 240.406 29.0928 243.221C29.0928 245.098 29.7184 246.975 30.9697 248.539C33.1595 250.728 35.6621 252.292 38.7904 252.605C41.9187 252.605 44.7343 252.918 47.5497 251.041C50.9908 248.852 53.8063 245.723 55.6833 242.283C58.1859 238.216 59.75 233.524 60.6885 228.832C61.627 223.514 62.5655 218.509 62.8783 213.191C63.504 209.75 63.1911 206.622 62.5655 203.494ZM57.5602 214.442C56.3089 216.632 54.7448 218.822 53.1806 221.324C52.8678 220.699 53.1806 220.699 53.1806 220.386C54.4319 218.196 55.6833 216.319 56.6217 214.13C57.8731 211.94 59.1244 209.437 60.0629 207.248C60.3757 206.935 60.3757 206.309 60.6885 205.997L61.0013 205.684L61.3142 205.371C61.627 205.371 61.627 205.684 61.627 205.684V205.997C60.3757 208.812 59.1243 211.627 57.5602 214.442Z" fill="#1E2D74"/>
<path d="M61.0011 206.622C61.0011 206.935 60.6884 206.935 60.6884 207.248C60.6884 206.935 60.6884 206.622 61.0011 206.622Z" fill="#1E2D74"/>
<path d="M186.758 179.721C185.194 180.033 183.943 180.033 182.379 180.033C178.312 180.346 173.933 179.408 169.866 179.095C169.553 179.095 169.24 179.095 169.24 178.782C169.553 178.157 169.866 178.469 170.491 178.469C174.558 178.782 178.625 179.095 182.692 179.095C183.004 179.095 183.005 179.095 183.317 179.095C183.63 178.782 184.256 179.095 184.569 179.095C185.507 179.095 186.446 179.095 187.071 178.782C186.758 178.782 186.758 178.469 186.446 178.469C186.446 178.469 186.133 178.469 186.133 178.157C185.507 177.844 184.881 177.844 184.256 177.844C181.128 177.531 178.312 177.218 175.184 176.592C172.368 175.967 169.866 175.341 167.363 174.09C164.548 172.526 161.732 170.962 158.604 169.398C154.537 167.521 150.47 165.644 145.778 165.331C142.962 165.331 140.46 165.331 138.27 166.583C136.08 167.834 134.203 169.398 133.891 172.213C133.578 174.403 133.265 176.28 133.891 178.469C134.516 180.346 135.455 182.223 136.706 183.787C137.332 184.726 137.957 185.351 138.583 185.977C140.773 187.541 143.275 188.479 145.778 189.105C149.219 190.043 152.973 190.356 156.414 190.043C160.481 190.043 163.922 189.105 167.676 187.854C169.24 187.541 170.804 187.228 172.368 186.602C175.184 185.664 177.999 184.413 180.815 183.474C182.379 182.849 184.256 181.91 185.507 180.972C185.82 180.972 186.133 180.659 186.446 180.346C186.758 180.346 187.071 180.033 187.384 179.721C187.697 179.721 187.697 179.408 188.01 179.408C187.697 179.095 187.071 179.721 186.758 179.721Z" fill="#1E2D74"/>
<path d="M99.479 47.0892C98.5405 42.7099 95.0994 39.5818 90.0942 39.5818C88.8429 39.5818 87.5914 39.8946 86.6529 39.8946C84.4632 40.2074 82.2735 41.1458 80.7093 42.7099C79.1452 44.2739 77.8938 45.838 76.9554 47.7148C76.3297 49.9045 75.3912 51.7814 74.7655 53.971C73.5142 58.0376 72.5757 62.4169 71.9501 66.4834C71.0116 71.4884 71.3244 76.8062 71.9501 81.8111C72.2629 84.6264 72.8886 87.4417 73.5142 90.257C73.8271 91.5082 74.1399 92.7595 74.1399 94.0107C74.1399 94.3235 74.4527 94.6363 74.7655 94.6363C75.0784 94.6363 75.3912 94.3235 75.3912 94.0107C75.3912 93.0723 75.7041 92.4467 75.7041 91.821V87.1289C74.7656 88.6929 75.3912 90.5698 74.7655 92.1339C74.1399 88.693 74.1399 85.5648 75.0784 82.1239C75.3912 80.8727 75.7041 79.6215 76.0169 78.683C76.3297 78.0574 76.3297 77.7446 76.6425 77.4318C76.9553 76.1806 77.581 75.2421 78.2067 73.9909C78.2067 73.6781 78.5195 73.6781 78.8323 73.3653C79.1452 73.3653 79.1451 73.0525 79.4579 73.3653C79.7708 73.3653 79.7708 73.6781 79.7708 73.9909C79.458 74.9293 79.458 75.8677 78.8323 76.4934C78.2067 78.0574 77.581 79.3086 76.6425 80.8727C76.6425 81.1855 76.6425 81.4983 76.3297 81.8111C76.3297 82.1239 76.3297 82.4368 76.0169 82.7496C76.0169 82.7496 76.0169 82.7496 76.0169 83.0624C76.0169 83.3752 76.3297 83.3752 76.6425 83.3752C76.9553 82.7496 77.581 81.8111 77.8938 81.1855C78.8323 79.6215 79.7708 78.0574 81.3349 77.119C81.6478 76.8062 81.9606 76.4934 82.2735 76.1805C83.8376 74.3037 85.7145 73.0524 87.2786 71.4884C90.4069 68.3603 93.5353 65.8578 96.3507 62.4169C97.9149 60.5401 99.1661 58.6632 99.7918 56.1607C100.417 52.7198 100.105 49.9045 99.479 47.0892Z" fill="#1E2D74"/>
<path d="M158.291 111.528C157.665 109.651 156.101 108.4 154.224 107.461C152.66 106.836 151.096 106.21 149.532 106.21C148.28 106.21 147.342 106.21 146.09 106.523C143.901 107.149 141.711 107.774 140.147 109.338C138.895 110.59 137.644 111.841 136.705 113.718C135.141 117.471 133.577 120.912 132.952 124.666C132.326 128.107 131.387 131.235 131.075 134.676C130.762 138.117 130.449 141.245 131.075 144.686C131.075 145.624 131.388 146.563 131.388 147.501C131.7 149.691 132.013 151.568 132.326 153.444C132.639 155.321 132.952 157.198 133.577 159.075C133.577 159.388 133.577 159.701 133.89 160.014C133.89 160.014 134.203 160.014 134.203 160.326C134.203 160.639 134.516 160.952 134.829 160.952C135.141 160.639 135.141 160.014 134.829 159.701C134.516 159.388 134.516 158.762 134.516 158.449V158.137C134.516 158.137 134.516 158.137 134.516 157.824C134.203 157.511 134.203 156.885 134.203 156.573C134.203 154.07 134.516 151.568 134.829 149.065C134.829 148.752 135.141 148.752 135.141 148.44C135.454 146.563 136.393 144.686 137.018 142.809C137.331 141.558 137.957 140.932 138.583 139.994C138.895 139.681 139.208 139.368 139.521 139.681C139.834 139.994 139.521 140.306 139.521 140.306C139.208 140.932 139.208 141.871 138.583 142.809C137.957 144.373 137.018 145.624 136.393 147.188C136.08 147.814 136.08 148.127 136.08 148.752C136.08 149.065 136.08 149.378 136.705 149.378C136.705 148.44 137.644 147.814 137.957 147.188C138.583 145.624 139.521 144.686 140.772 143.747C141.398 143.122 142.024 142.496 142.649 141.871C144.213 140.306 145.778 138.742 147.342 137.491C150.47 134.676 153.598 131.861 156.414 128.42C158.604 125.604 160.168 122.789 160.168 119.348C159.855 116.533 159.542 114.03 158.291 111.528Z" fill="#1E2D74"/>
<path d="M272.786 172.526C272.473 172.839 272.473 172.839 272.16 173.152C271.847 173.777 271.534 174.09 270.909 174.09C269.032 175.341 267.155 176.593 264.965 176.905C264.652 176.905 264.652 177.218 264.339 177.218C263.401 177.844 262.462 177.844 261.524 178.157C261.211 178.157 260.898 178.157 260.585 178.157C260.273 178.157 260.272 177.844 260.272 177.844C260.272 177.531 260.585 177.531 260.585 177.531C261.211 177.218 261.837 176.905 262.775 176.593C263.088 176.28 263.401 176.28 264.026 176.28C265.591 175.654 267.155 175.341 268.719 174.403C269.032 174.09 269.657 173.777 269.97 173.464C269.657 173.464 269.657 173.152 269.345 173.152C269.345 173.152 269.345 173.152 269.032 173.152C268.719 173.464 268.406 173.464 268.093 173.464C268.093 173.464 268.093 173.464 267.78 173.464C267.468 173.777 267.155 173.777 266.842 173.777C265.278 174.09 263.401 174.403 261.837 174.09C261.211 174.09 260.585 174.09 259.96 174.09C257.77 174.09 255.267 174.09 253.077 173.777C250.262 173.464 247.759 173.464 244.944 173.464C242.441 173.464 239.626 173.777 237.123 174.403C236.185 174.716 234.933 175.028 233.995 175.341C230.867 177.218 228.364 180.033 226.8 183.474C225.861 185.351 225.861 187.541 226.487 189.731C227.113 191.295 227.738 192.546 228.677 193.797C229.615 194.735 230.867 195.674 232.118 196.612C233.056 197.238 234.308 197.864 235.559 198.176C237.749 198.489 239.626 198.489 241.816 198.176C243.067 198.176 244.005 197.864 244.944 196.925C245.57 196.612 246.508 196.612 246.821 195.987C248.385 195.361 249.636 195.048 250.888 194.11C254.329 192.233 257.77 190.043 261.211 187.854C265.591 185.038 269.032 181.285 271.847 177.218C273.411 175.028 274.975 172.839 276.54 170.649C276.852 170.024 277.478 169.398 277.478 168.772L277.165 168.459C275.914 169.711 274.663 171.588 272.786 172.526Z" fill="#1E2D74"/>
<path d="M267.781 173.464C268.094 173.464 268.094 173.464 267.781 173.464C267.468 173.151 267.155 173.464 266.843 173.464C267.155 173.464 267.468 173.464 267.781 173.464Z" fill="#1E2D74"/>
<path d="M130.762 16.7465C130.45 15.1825 129.824 13.6184 129.198 12.0544C128.885 11.4287 128.26 10.4903 127.634 10.1775C127.008 9.86469 126.695 9.55188 126.383 8.92626C125.131 7.0494 123.254 6.11097 121.065 6.42378C118.249 6.73659 116.059 7.98783 114.495 10.4903C112.618 13.3056 112.618 16.4337 111.993 19.5618C111.68 21.4387 111.993 23.6283 111.993 25.5052C111.993 27.6948 112.618 29.8845 112.931 31.7614C113.87 35.5151 116.059 38.956 118.875 41.7713C119.501 42.3969 119.5 42.7097 119.5 43.6482C120.126 43.6482 120.126 43.0225 120.126 42.7097C119.813 41.7713 120.439 41.1457 120.126 40.2072C120.126 39.8944 120.126 39.8944 120.439 39.8944C120.752 39.8944 120.752 40.2072 120.752 40.5201C120.752 41.4585 120.752 42.3969 120.752 43.3353C120.752 43.6482 120.752 44.2738 121.378 44.2738C122.003 43.3353 122.003 42.3969 122.629 41.4585C123.254 39.8944 124.506 38.6432 125.444 37.0791C126.383 35.5151 127.634 33.951 128.26 32.0742C129.511 28.3205 130.45 24.8796 130.762 20.813C130.762 19.5618 131.075 17.9977 130.762 16.7465ZM120.752 39.2688C120.126 39.2688 120.126 38.956 120.126 38.6432C120.439 36.7663 119.813 34.8895 120.126 33.0126C119.813 31.4486 119.813 29.8845 119.813 28.3205C119.813 28.0077 119.813 27.6949 120.126 27.6949C120.439 27.6949 120.439 28.0077 120.439 28.3205C120.439 29.8845 120.752 31.4486 120.752 33.0126C120.752 35.2023 121.065 37.392 120.752 39.2688Z" fill="#1E2D74"/>
<path d="M89.781 127.481C89.781 126.23 89.7812 124.979 89.1555 123.728C88.5299 122.163 87.9042 120.912 86.9657 119.661C86.6528 119.035 86.0271 118.097 85.0886 117.784C84.4629 117.471 84.1502 117.159 83.5246 116.533C81.9604 114.656 80.0834 114.343 77.8936 114.969C75.0782 115.594 73.2012 117.471 71.9499 120.287C70.6986 123.415 71.0115 126.23 71.0115 129.358C71.0115 131.235 71.3242 132.799 71.6371 134.676C72.2627 137.804 73.2012 140.619 74.7653 143.435C76.6423 146.563 78.8321 149.065 81.9604 151.255C82.2732 150.629 82.2732 149.691 81.9604 149.065C81.6476 147.814 81.3347 146.25 81.6476 144.999C81.0219 141.87 79.7706 139.055 80.0834 135.614C81.3347 136.553 80.7091 137.491 81.3347 138.43C81.6476 139.368 81.6476 140.306 81.9604 140.932C82.2732 141.87 82.2733 142.809 82.2733 143.747C82.5861 144.686 82.8989 145.937 82.8989 147.188C82.8989 149.065 83.5246 150.629 83.8374 152.506C83.8374 152.819 84.1502 152.819 84.463 153.132C85.0887 152.193 85.0887 150.942 85.4015 150.004C86.0272 148.127 86.9657 146.875 87.5914 144.999C88.217 143.122 89.1554 141.558 89.781 139.681C89.781 135.301 90.0938 131.235 89.781 127.481Z" fill="#1E2D74"/>
<path d="M194.579 141.245C194.892 141.245 195.205 141.558 195.518 141.871C196.143 143.435 197.082 144.373 198.02 145.624C198.646 146.25 198.646 146.876 199.584 147.501C199.897 146.563 199.584 145.937 199.271 145.311C198.959 144.686 198.959 144.06 198.959 143.435C198.959 142.809 198.959 142.183 198.959 141.871C198.959 137.804 198.959 133.738 197.394 129.671C197.394 129.045 197.082 128.107 196.456 127.794C196.456 127.794 196.456 127.794 196.143 127.481C194.892 124.04 193.328 120.599 190.199 118.097C188.635 116.846 187.071 115.595 184.881 115.595C184.569 115.595 184.256 115.282 183.943 115.282C182.692 114.656 181.127 114.656 179.876 115.282C178.312 115.907 177.061 117.159 176.122 118.723C175.809 119.348 175.497 119.974 175.184 120.599C174.871 123.102 174.871 125.292 175.809 127.481C176.435 129.045 177.061 130.609 177.686 131.861C178.312 133.112 178.625 134.05 179.563 134.989C180.815 136.553 182.066 138.43 183.63 139.994C187.071 143.435 190.825 145.624 195.518 146.876C195.83 146.876 196.143 146.876 196.456 147.188C196.456 147.188 196.456 147.188 196.769 147.188C197.394 147.188 197.082 147.814 197.707 148.127C198.02 147.188 197.395 146.876 197.082 146.563C195.83 144.686 194.579 143.122 193.64 141.245C193.015 140.307 192.389 139.681 191.451 138.742C191.138 138.43 190.825 138.117 190.512 137.491C189.887 137.178 189.887 136.553 189.574 135.927C189.261 135.302 188.948 134.989 188.635 134.363C188.635 134.05 188.322 133.738 188.635 133.738C188.948 133.425 189.261 133.738 189.261 134.05C189.574 134.363 189.574 134.676 189.574 134.989C189.574 135.302 189.887 135.614 190.199 135.927C192.389 137.491 193.64 139.368 194.579 141.245Z" fill="#1E2D74"/>
<path d="M55.3704 32.6999C55.0576 32.0743 54.7447 31.7615 54.4319 31.1359C53.4934 30.1975 52.8678 28.9462 52.2422 27.695C50.678 25.8181 48.8011 23.9413 47.5497 21.7516C47.2369 21.4388 46.924 21.126 46.924 20.8132C46.924 20.8132 46.924 20.8132 46.6112 20.5003C46.2984 20.1875 46.2984 19.8747 46.6112 19.5619C47.2369 19.2491 47.2369 19.5619 47.5497 20.1875C49.4267 22.3772 50.9909 24.5669 52.555 27.0694C53.1807 27.695 53.4935 28.0078 53.8063 28.9462C54.1191 29.5718 54.4319 30.1975 55.0576 30.8231C55.6833 31.4487 56.3089 32.0743 56.6217 33.0127C56.9346 33.3256 56.9345 33.9512 57.5602 33.6384C57.5602 33.0127 57.5603 32.3871 57.2474 31.7615C56.9346 30.8231 56.9346 29.8846 56.9346 28.9462C56.9346 27.695 56.9346 26.1309 56.9346 24.8797C56.9346 22.3772 56.9345 19.8747 55.996 17.6851C55.3704 16.121 55.0576 14.8698 54.4319 13.3057C53.1806 9.86481 51.3036 6.4239 48.1753 4.23423C46.6112 2.98299 45.0471 1.73175 42.8573 1.73175C42.5445 1.73175 42.2316 1.41894 41.9188 1.41894C40.6675 1.10613 39.7291 0.793323 38.4777 1.10613C35.6623 2.04456 33.7853 3.92142 33.1596 6.73671C32.534 8.92638 32.8468 11.116 33.4725 13.3057C34.0981 15.1826 35.0366 17.0594 35.9751 18.9363C36.6007 20.1875 37.5393 21.4388 38.4777 22.69C40.6675 25.8181 43.4829 28.6334 46.6112 30.5103C49.1138 32.0743 51.6164 33.0127 54.4319 33.3256C55.3704 33.0127 55.6833 33.0127 55.3704 32.6999Z" fill="#1E2D74"/>
<path d="M181.44 80.2472C181.44 80.2472 181.753 79.9344 181.44 80.2472C181.44 79.9344 181.44 80.2472 181.44 80.2472Z" fill="#1E2D74"/>
<path d="M194.892 68.3604C194.579 66.4835 194.579 64.6067 193.015 63.0426C192.702 62.7298 192.702 62.417 192.702 62.1042C192.389 61.1657 191.764 59.9145 190.825 59.2889C188.323 57.7248 185.507 57.7248 183.005 58.9761C180.815 60.2273 179.251 61.7914 178.312 63.981C177.687 65.5451 177.061 67.1091 176.435 68.3604C175.81 69.6116 175.497 70.5501 175.184 71.8013C174.871 73.991 174.558 76.1806 174.245 78.6831C173.932 83.3753 175.184 87.7546 177.374 91.8211C177.999 92.7595 178.312 93.3852 177.999 94.3236C178.312 94.0108 178.312 93.698 178.625 93.0724C178.625 92.4467 178.938 92.1339 179.251 91.8211C179.251 89.9443 179.876 88.3802 180.189 86.8162C180.189 86.8162 180.189 86.8162 180.189 86.5034C180.502 84.3137 180.815 81.8112 181.441 79.6215C181.441 79.3087 181.44 78.9959 181.753 78.6831C181.753 78.6831 181.753 78.6831 181.753 78.3703C181.753 78.0575 181.753 78.0575 181.753 77.7447C181.753 77.4319 182.066 77.1191 182.379 77.4319C182.692 77.4319 182.692 77.7447 182.692 78.0575C182.692 78.6831 182.692 78.9959 182.379 79.6215C182.379 82.124 181.44 84.3137 180.815 86.8162C180.815 87.7546 180.815 88.3802 180.502 89.3186C180.189 90.2571 180.189 91.1955 179.876 92.1339C179.876 92.4467 179.876 93.0724 179.563 93.3852C179.251 94.0108 179.251 94.3236 179.563 94.9492C180.502 94.3236 181.128 93.0724 181.753 92.4467C182.692 90.8827 184.256 89.9443 185.82 88.693C188.323 86.1905 190.512 83.6881 192.077 80.56C192.389 79.9343 192.702 79.3087 193.015 78.3703C193.328 78.0575 193.641 77.7447 193.641 77.1191C194.266 74.6166 195.518 71.8013 194.892 68.3604Z" fill="#1E2D74"/>
<path d="M326.28 254.482C326.28 254.482 326.28 254.169 326.28 254.482C325.967 253.856 325.967 253.231 325.967 252.918C325.967 252.605 325.654 252.605 325.654 252.292C325.341 250.416 325.654 248.539 325.341 246.662C325.341 244.785 325.341 242.908 325.029 241.344C324.09 237.59 322.839 234.149 320.962 230.709C320.336 229.457 319.711 228.206 318.459 227.268C317.208 226.329 315.957 225.391 314.705 224.452C314.08 223.827 313.141 223.514 312.203 223.514C311.577 223.514 310.951 223.514 310.326 223.201C308.136 222.263 306.259 222.888 304.382 224.14C301.879 226.016 300.941 228.832 301.254 231.647C301.566 234.775 302.818 237.278 304.382 240.093C305.008 241.657 305.946 242.908 307.197 244.159C309.7 247.287 312.203 250.103 315.331 251.98C317.521 253.231 319.711 254.169 322.213 254.795C322.526 254.795 322.839 254.795 323.152 255.108H323.464C323.464 255.108 323.464 254.795 323.777 254.795C323.464 254.482 323.152 254.169 323.152 253.856C321.9 252.292 320.962 250.728 320.023 249.164C318.459 246.975 316.582 245.098 315.331 242.908C315.018 242.595 314.392 241.97 315.018 241.657C315.644 241.344 315.957 241.97 315.957 242.595C317.521 244.472 319.085 246.662 320.649 248.852C321.275 249.477 321.9 250.416 322.213 251.354C322.526 252.292 323.464 252.605 323.777 253.544C324.09 253.856 324.403 254.169 324.403 254.482C324.403 254.795 324.716 255.108 325.029 255.421C326.28 255.421 326.28 254.795 326.28 254.482Z" fill="#1E2D74"/>
<path d="M255.267 221.325C254.955 221.325 254.642 221.325 254.016 221.325H248.385C249.949 222.263 251.513 221.637 253.078 221.95C251.513 222.576 246.195 222.576 243.38 221.95C242.754 221.95 242.129 221.95 241.816 221.637H241.503C240.564 221.325 239.939 221.012 239 220.699C238.375 220.386 237.749 220.386 237.123 220.073C236.498 219.76 235.872 219.448 235.246 219.135C234.933 219.135 234.621 218.822 234.308 218.509C234.308 218.196 233.995 218.196 234.308 217.884C234.308 217.571 234.621 217.571 234.934 217.571C235.559 217.884 236.498 218.196 237.123 218.196C237.749 218.196 238.062 218.509 238.688 218.822C240.252 219.76 242.129 220.386 244.006 220.699C244.318 220.699 244.631 220.699 244.631 220.073C243.693 220.073 243.38 219.135 242.442 218.822C240.565 218.196 239 216.945 238.062 215.381C237.749 215.068 237.436 214.756 237.123 214.443C235.246 212.879 233.682 211.002 231.805 209.438C229.303 207.248 227.113 204.746 224.61 202.556C222.733 200.992 220.856 199.741 218.979 198.489C217.728 197.864 216.477 197.551 215.225 197.238C212.41 196.925 209.594 197.238 207.092 198.177C203.338 199.428 201.148 201.93 200.835 205.684C200.21 210.063 201.148 214.13 204.589 217.258C206.153 218.822 207.718 220.073 209.907 220.699C211.784 221.325 213.661 221.95 215.538 222.576C219.918 223.827 224.297 224.453 228.677 225.078C233.995 225.704 239 225.391 244.318 224.453C246.821 223.827 249.636 223.514 252.139 222.889C253.39 222.576 254.642 221.95 255.893 221.95C256.206 221.95 256.519 221.637 256.519 221.325C255.893 221.325 255.267 221.325 255.267 221.325Z" fill="#1E2D74"/>
<path d="M54.432 138.43C54.1192 137.178 53.8064 135.927 53.1807 134.989C51.3037 132.799 49.4268 130.609 46.9241 129.671C44.7344 128.733 42.5445 128.107 40.3547 127.169C38.4778 126.543 36.288 125.917 34.0982 125.605C31.2827 124.979 28.4674 124.353 25.9648 124.04C21.5852 123.415 17.2055 123.728 12.826 124.353C9.07202 124.979 5.31807 125.605 1.56414 126.543C1.25131 126.543 0.938502 126.543 0.312847 126.543C1.90888e-05 126.543 0 126.856 0 127.169C0 127.481 0.312866 127.481 0.625693 127.481C1.56418 127.481 2.18979 127.794 3.12828 127.794C4.69241 127.481 6.25655 127.794 7.82069 127.794C6.88221 127.481 5.94374 127.481 5.00526 127.481C4.06678 127.481 3.12833 127.481 2.50268 127.481V127.169C3.75399 127.169 5.00524 126.856 6.25655 126.856C7.50786 126.856 8.44637 127.169 9.69768 127.169C10.3233 127.169 10.949 127.169 11.5747 127.794C13.4516 127.794 15.0158 128.42 16.5799 129.358C19.0825 129.984 20.6467 131.235 21.2723 132.486C20.6467 132.486 19.7082 132.486 17.8312 131.548C16.8927 131.548 16.5799 130.922 15.6414 130.609C15.0157 130.297 14.0773 129.984 13.4516 129.671C13.1388 129.671 12.8259 129.671 12.5131 129.358C12.5131 129.358 12.5131 129.358 12.2003 129.358C11.8874 129.358 11.2618 129.358 10.949 129.045C10.949 129.358 10.949 129.358 10.949 129.671C11.5746 129.984 12.5131 130.609 13.1388 130.922C14.7029 131.861 16.2671 132.799 17.5184 134.363C17.8312 134.676 18.144 134.989 18.4568 135.302C20.3338 136.866 21.5851 138.743 23.1492 140.307C25.6518 142.809 27.8417 145.624 30.6572 148.127C32.2213 149.691 34.0982 150.942 35.9752 151.881C37.2265 152.506 38.4778 153.132 39.7291 153.132C42.5446 153.445 45.3601 153.445 47.8627 152.506C52.2423 151.255 53.8063 148.44 54.432 144.999C55.0576 142.496 54.7448 140.307 54.432 138.43Z" fill="#1E2D74"/>
<path d="M383.214 219.76C381.65 217.883 379.46 216.632 377.271 216.007C375.707 215.694 374.142 215.381 372.578 215.068C371.327 214.755 370.076 214.755 369.137 214.755C366.947 215.068 364.758 215.068 362.568 215.381C357.563 216.007 353.496 218.196 349.742 221.324C349.116 221.95 348.49 222.263 347.865 221.95C348.178 222.263 348.491 222.263 348.803 222.576C351.619 222.576 354.121 222.888 356.937 222.576C357.563 222.576 358.188 222.576 358.501 222.576C360.378 222.263 362.568 222.263 364.445 222.888C362.255 223.514 360.378 223.514 358.188 223.201C357.875 223.201 357.875 223.201 357.563 223.201C356.937 223.201 356.311 223.201 355.685 223.201C354.747 223.201 353.496 223.201 352.557 223.201C351.932 222.888 351.306 223.201 350.68 223.201C349.742 223.201 349.116 223.201 348.178 223.201C347.865 223.201 347.239 223.201 347.552 223.827C348.491 224.452 349.429 224.765 350.368 225.078C351.932 226.016 353.183 226.955 354.747 227.893C356.937 229.145 358.814 230.709 361.317 231.334C362.881 231.96 364.445 232.273 366.009 232.586C369.45 233.524 373.204 234.15 376.958 232.898C378.835 232.273 381.025 231.96 382.276 229.77C382.589 229.457 382.902 229.457 383.214 229.145C384.153 228.519 385.091 227.893 385.404 226.642C385.717 224.765 385.091 221.95 383.214 219.76Z" fill="#1E2D74"/>
</g>
</svg>
