<svg width="120" height="120" viewBox="0 0 120 120" fill="none" xmlns="http://www.w3.org/2000/svg">
<circle cx="60" cy="60" r="60" fill="#143866"/>
<path d="M74.09 77.43C73.8981 77.4326 73.715 77.5107 73.5803 77.6473C73.4455 77.7839 73.37 77.9681 73.37 78.16V80.82C73.37 81.0136 73.2931 81.1993 73.1562 81.3362C73.0193 81.4731 72.8336 81.55 72.64 81.55H39.18C38.9881 81.5474 38.805 81.4693 38.6703 81.3327C38.5355 81.1961 38.46 81.0119 38.46 80.82V37.18C38.46 36.9881 38.5355 36.8039 38.6703 36.6673C38.805 36.5307 38.9881 36.4526 39.18 36.45H46.46V37.18C46.46 38.1437 46.8421 39.068 47.5226 39.7503C48.2031 40.4327 49.1263 40.8174 50.09 40.82H61.73C62.6946 40.8174 63.6189 40.433 64.301 39.751C64.983 39.0689 65.3674 38.1446 65.37 37.18V36.45H72.64C72.8336 36.45 73.0193 36.5269 73.1562 36.6638C73.2931 36.8007 73.37 36.9864 73.37 37.18V51.37C73.37 51.5619 73.4455 51.7461 73.5803 51.8827C73.715 52.0193 73.8981 52.0974 74.09 52.1C74.1859 52.1 74.2808 52.0811 74.3694 52.0444C74.4579 52.0077 74.5384 51.954 74.6062 51.8862C74.674 51.8184 74.7277 51.7379 74.7644 51.6494C74.8011 51.5608 74.82 51.4659 74.82 51.37V37.18C74.8174 36.6026 74.5868 36.0497 74.1786 35.6414C73.7703 35.2332 73.2174 35.0026 72.64 35H39.18C38.6026 35.0026 38.0497 35.2332 37.6414 35.6414C37.2332 36.0497 37.0026 36.6026 37 37.18V80.82C37.0026 81.3974 37.2332 81.9503 37.6414 82.3586C38.0497 82.7668 38.6026 82.9974 39.18 83H72.64C73.2174 82.9974 73.7703 82.7668 74.1786 82.3586C74.5868 81.9503 74.8174 81.3974 74.82 80.82V78.16C74.82 77.9664 74.7431 77.7807 74.6062 77.6438C74.4693 77.5069 74.2836 77.43 74.09 77.43ZM63.91 36.43V37.16C63.9074 37.7374 63.6768 38.2903 63.2686 38.6986C62.8603 39.1068 62.3074 39.3374 61.73 39.34H50.09C49.5126 39.3374 48.9597 39.1068 48.5514 38.6986C48.1432 38.2903 47.9126 37.7374 47.91 37.16V36.45L63.91 36.43Z" fill="white"/>
<path d="M69.3 46C69.3 45.8081 69.2245 45.624 69.0897 45.4873C68.955 45.3507 68.7719 45.2726 68.58 45.27H51.24C51.0464 45.27 50.8607 45.3469 50.7238 45.4838C50.5869 45.6207 50.51 45.8064 50.51 46C50.51 46.1936 50.5869 46.3793 50.7238 46.5162C50.8607 46.6531 51.0464 46.73 51.24 46.73H68.58C68.7719 46.7274 68.955 46.6493 69.0897 46.5127C69.2245 46.3761 69.3 46.1919 69.3 46Z" fill="white"/>
<path d="M77.1581 64.1868L73.4343 68.804L71.7316 66.8796C71.6487 66.7946 71.5391 66.7472 71.4253 66.7472C71.3115 66.7472 71.202 66.7946 71.1191 66.8796C71.0425 66.9708 71 67.09 71 67.2137C71 67.3374 71.0425 67.4566 71.1191 67.5478L73.1525 69.853C73.2386 69.947 73.3553 69.9999 73.4771 70C73.5384 69.999 73.5989 69.9842 73.6547 69.9566C73.7106 69.929 73.7606 69.8892 73.8017 69.8396L77.8808 64.8283C77.921 64.7805 77.9522 64.7245 77.9726 64.6635C77.993 64.6025 78.0021 64.5378 77.9996 64.4729C77.997 64.4081 77.9828 64.3444 77.9577 64.2856C77.9326 64.2268 77.8971 64.1739 77.8532 64.13C77.8094 64.0862 77.7581 64.0521 77.7022 64.0299C77.6463 64.0077 77.587 63.9977 77.5275 64.0005C77.4681 64.0032 77.4097 64.0188 77.3558 64.0462C77.3019 64.0736 77.2534 64.1123 77.2132 64.1601L77.1581 64.1868Z" fill="white"/>
<path d="M45.43 43.12C44.8528 43.1181 44.288 43.2878 43.8075 43.6077C43.327 43.9276 42.9525 44.3832 42.7316 44.9165C42.5107 45.4498 42.4535 46.0367 42.5671 46.6027C42.6807 47.1687 42.96 47.688 43.3696 48.0948C43.7792 48.5015 44.3005 48.7773 44.8672 48.887C45.4339 48.9967 46.0205 48.9353 46.5522 48.7108C47.084 48.4862 47.537 48.1085 47.8535 47.6259C48.1701 47.1432 48.3359 46.5772 48.33 46C48.3221 45.2352 48.0134 44.5042 47.4707 43.9652C46.928 43.4262 46.1949 43.1226 45.43 43.12ZM45.43 47.49C45.1421 47.4919 44.8601 47.4087 44.6194 47.2507C44.3787 47.0928 44.19 46.8672 44.0772 46.6024C43.9643 46.3375 43.9323 46.0452 43.9851 45.7622C44.0379 45.4792 44.1732 45.2181 44.374 45.0118C44.5748 44.8055 44.8321 44.6631 45.1135 44.6026C45.395 44.5421 45.6881 44.5662 45.9559 44.6718C46.2237 44.7774 46.4543 44.9599 46.6188 45.1962C46.7832 45.4325 46.8741 45.7122 46.88 46C46.884 46.1934 46.8495 46.3857 46.7785 46.5656C46.7076 46.7456 46.6015 46.9096 46.4666 47.0483C46.3317 47.1869 46.1706 47.2974 45.9926 47.3732C45.8147 47.449 45.6234 47.4887 45.43 47.49Z" fill="white"/>
<path d="M56.94 54.76H51.24C51.0624 54.7809 50.8986 54.8663 50.7798 54.9999C50.6609 55.1336 50.5953 55.3062 50.5953 55.485C50.5953 55.6638 50.6609 55.8365 50.7798 55.9701C50.8986 56.1037 51.0624 56.1891 51.24 56.21H56.94C57.0424 56.222 57.1461 56.2123 57.2444 56.1813C57.3427 56.1504 57.4334 56.099 57.5104 56.0305C57.5874 55.962 57.649 55.878 57.6913 55.784C57.7335 55.69 57.7553 55.5881 57.7553 55.485C57.7553 55.3819 57.7335 55.28 57.6913 55.186C57.649 55.092 57.5874 55.008 57.5104 54.9395C57.4334 54.871 57.3427 54.8196 57.2444 54.7887C57.1461 54.7577 57.0424 54.748 56.94 54.76Z" fill="white"/>
<path d="M45.43 52.58C44.854 52.578 44.2904 52.747 43.8106 53.0655C43.3307 53.3841 42.9562 53.8379 42.7344 54.3694C42.5126 54.901 42.4535 55.4864 42.5647 56.0515C42.6758 56.6167 42.9522 57.1361 43.3588 57.5441C43.7653 57.9521 44.2838 58.2302 44.8486 58.3433C45.4134 58.4564 45.999 58.3994 46.5313 58.1794C47.0636 57.9595 47.5187 57.5865 47.8389 57.1077C48.1591 56.629 48.33 56.0659 48.33 55.49C48.33 54.7199 48.0248 53.9813 47.4812 53.4358C46.9376 52.8904 46.2 52.5826 45.43 52.58ZM45.43 56.94C45.1404 56.942 44.8567 56.8578 44.6151 56.6981C44.3735 56.5384 44.1848 56.3105 44.0731 56.0433C43.9613 55.7761 43.9316 55.4818 43.9876 55.1976C44.0436 54.9135 44.1829 54.6524 44.3877 54.4476C44.5924 54.2428 44.8535 54.1036 45.1376 54.0476C45.4218 53.9916 45.7162 54.0213 45.9833 54.1331C46.2505 54.2448 46.4784 54.4335 46.6381 54.6751C46.7978 54.9167 46.882 55.2004 46.88 55.49C46.88 55.8745 46.7272 56.2434 46.4553 56.5153C46.1834 56.7872 45.8146 56.94 45.43 56.94Z" fill="white"/>
<path d="M51.24 65.67H56.94C57.1336 65.67 57.3193 65.5931 57.4562 65.4562C57.5931 65.3193 57.67 65.1336 57.67 64.94C57.67 64.7464 57.5931 64.5607 57.4562 64.4238C57.3193 64.2869 57.1336 64.21 56.94 64.21H51.24C51.0464 64.21 50.8607 64.2869 50.7238 64.4238C50.5869 64.5607 50.51 64.7464 50.51 64.94C50.51 65.1336 50.5869 65.3193 50.7238 65.4562C50.8607 65.5931 51.0464 65.67 51.24 65.67Z" fill="white"/>
<path d="M45.43 62C44.854 61.998 44.2904 62.167 43.8106 62.4856C43.3307 62.8041 42.9562 63.2579 42.7344 63.7895C42.5126 64.321 42.4535 64.9064 42.5647 65.4716C42.6758 66.0367 42.9522 66.5562 43.3588 66.9641C43.7653 67.3721 44.2838 67.6503 44.8486 67.7633C45.4134 67.8764 45.999 67.8194 46.5313 67.5995C47.0636 67.3795 47.5187 67.0065 47.8389 66.5278C48.1591 66.049 48.33 65.486 48.33 64.91C48.33 64.14 48.0248 63.4013 47.4812 62.8559C46.9376 62.3104 46.2 62.0027 45.43 62ZM45.43 66.37C45.1408 66.372 44.8576 66.2881 44.6162 66.1288C44.3747 65.9696 44.1861 65.7423 44.074 65.4757C43.962 65.2091 43.9316 64.9152 43.9868 64.6314C44.042 64.3475 44.1803 64.0864 44.3841 63.8812C44.5879 63.676 44.848 63.536 45.1315 63.4788C45.4149 63.4217 45.709 63.45 45.9764 63.5602C46.2437 63.6704 46.4724 63.8575 46.6332 64.0979C46.7941 64.3382 46.88 64.6208 46.88 64.91C46.884 65.1034 46.8495 65.2957 46.7785 65.4756C46.7076 65.6556 46.6015 65.8197 46.4666 65.9583C46.3317 66.0969 46.1706 66.2074 45.9926 66.2832C45.8147 66.359 45.6234 66.3987 45.43 66.4V66.37Z" fill="white"/>
<path d="M51.24 75.12H62.76C62.951 75.12 63.1341 75.0441 63.2691 74.9091C63.4041 74.7741 63.48 74.5909 63.48 74.4C63.48 74.2081 63.4045 74.0239 63.2697 73.8873C63.135 73.7507 62.9519 73.6726 62.76 73.67H51.24C51.0481 73.6726 50.865 73.7507 50.7303 73.8873C50.5955 74.0239 50.52 74.2081 50.52 74.4C50.52 74.5909 50.5959 74.7741 50.7309 74.9091C50.8659 75.0441 51.049 75.12 51.24 75.12Z" fill="white"/>
<path d="M45.43 71.49C44.854 71.488 44.2904 71.657 43.8106 71.9756C43.3307 72.2941 42.9562 72.7479 42.7344 73.2795C42.5126 73.811 42.4535 74.3964 42.5647 74.9616C42.6758 75.5267 42.9522 76.0462 43.3588 76.4541C43.7653 76.8621 44.2838 77.1402 44.8486 77.2533C45.4134 77.3664 45.999 77.3094 46.5313 77.0894C47.0636 76.8695 47.5187 76.4965 47.8389 76.0177C48.1591 75.539 48.33 74.976 48.33 74.4C48.33 73.63 48.0248 72.8913 47.4812 72.3459C46.9376 71.8004 46.2 71.4927 45.43 71.49ZM45.43 75.85C45.1404 75.852 44.8567 75.7678 44.6151 75.6081C44.3735 75.4485 44.1848 75.2205 44.0731 74.9534C43.9613 74.6862 43.9316 74.3918 43.9876 74.1077C44.0436 73.8235 44.1829 73.5624 44.3877 73.3577C44.5924 73.1529 44.8535 73.0136 45.1376 72.9576C45.4218 72.9016 45.7162 72.9313 45.9833 73.0431C46.2505 73.1548 46.4784 73.3435 46.6381 73.5851C46.7978 73.8268 46.882 74.1104 46.88 74.4C46.88 74.5904 46.8425 74.779 46.7696 74.9549C46.6968 75.1308 46.5899 75.2907 46.4553 75.4253C46.3207 75.56 46.1608 75.6668 45.9849 75.7396C45.809 75.8125 45.6204 75.85 45.43 75.85Z" fill="white"/>
<path d="M81.3903 69.3618L86.8629 64.0174C86.9871 63.8973 87.0756 63.745 87.1186 63.5776C87.1616 63.4102 87.1574 63.2342 87.1064 63.069C87.0505 62.9036 86.9505 62.7565 86.8173 62.6436C86.6841 62.5307 86.5226 62.4563 86.3502 62.4282L78.7758 61.326L75.3923 54.4693C75.3055 54.3261 75.1833 54.2076 75.0373 54.1254C74.8914 54.0432 74.7267 54 74.5593 54C74.3918 54 74.2271 54.0432 74.0812 54.1254C73.9353 54.2076 73.813 54.3261 73.7262 54.4693L70.3299 61.326L62.7683 62.4282C62.5994 62.4589 62.4423 62.5354 62.314 62.6494C62.1858 62.7634 62.0913 62.9105 62.0411 63.0746C61.9908 63.2387 61.9866 63.4134 62.029 63.5797C62.0713 63.746 62.1586 63.8974 62.2813 64.0174L67.7666 69.3618L66.485 76.8978C66.4554 77.0709 66.4745 77.2489 66.5401 77.4118C66.6058 77.5748 66.7153 77.7163 66.8567 77.8206C66.9994 77.921 67.167 77.9801 67.3411 77.9914C67.5152 78.0027 67.6891 77.9658 67.8435 77.8847L74.6105 74.3217L81.3775 77.8847C81.511 77.9585 81.6607 77.9982 81.8133 78C81.9504 78.0003 82.086 77.9705 82.2103 77.9126C82.3347 77.8547 82.4447 77.7702 82.5328 77.665C82.6208 77.5598 82.6847 77.4366 82.7198 77.304C82.7549 77.1714 82.7605 77.0328 82.736 76.8978L81.3903 69.3618ZM79.4679 69.1952L80.5316 75.3598L74.995 72.4505C74.8621 72.3753 74.712 72.3357 74.5593 72.3357C74.4065 72.3357 74.2564 72.3753 74.1235 72.4505L68.5869 75.3598L69.6506 69.1952C69.676 69.0469 69.6648 68.8946 69.6179 68.7517C69.571 68.6087 69.4898 68.4794 69.3815 68.375L64.8445 64.0046L71.0348 63.1075C71.1858 63.0878 71.3294 63.0306 71.4526 62.941C71.5758 62.8515 71.6745 62.7324 71.7397 62.5948L74.508 56.9941L77.2763 62.5948C77.3405 62.7331 77.439 62.8528 77.5623 62.9425C77.6857 63.0322 77.8298 63.089 77.9812 63.1075L84.1587 64.0046L79.737 68.3493C79.6247 68.4563 79.5411 68.5899 79.4941 68.7378C79.447 68.8856 79.438 69.043 79.4679 69.1952Z" fill="white"/>
</svg>
