<svg width="40" height="40" viewBox="0 0 40 40" fill="none" xmlns="http://www.w3.org/2000/svg">
<path d="M28.0831 0H11.9149C8.75563 0.00371264 5.72689 1.26049 3.49317 3.49459C1.25945 5.72868 0.00318145 8.75763 0 11.9169L0 28.0851C0.00371264 31.2444 1.26049 34.2731 3.49459 36.5068C5.72868 38.7405 8.75763 39.9968 11.9169 40H28.0851C31.2444 39.9963 34.2731 38.7395 36.5068 36.5054C38.7405 34.2713 39.9968 31.2424 40 28.0831V11.9149C39.9963 8.75563 38.7395 5.72689 36.5054 3.49317C34.2713 1.25945 31.2424 0.00318145 28.0831 0V0ZM35.977 28.0831C35.977 29.1198 35.7728 30.1463 35.3761 31.104C34.9794 32.0617 34.3979 32.9319 33.6649 33.6649C32.9319 34.3979 32.0617 34.9794 31.104 35.3761C30.1463 35.7728 29.1198 35.977 28.0831 35.977H11.9149C9.82163 35.9764 7.81432 35.1445 6.33438 33.6642C4.85443 32.1839 4.02304 30.1764 4.02304 28.0831V11.9149C4.02357 9.82163 4.85547 7.81432 6.33579 6.33438C7.81611 4.85443 9.82363 4.02304 11.9169 4.02304H28.0851C30.1784 4.02357 32.1857 4.85547 33.6656 6.33579C35.1456 7.81611 35.977 9.82363 35.977 11.9169V28.0851V28.0831Z" fill="#B0008E"/>
<path d="M19.997 9.57446C17.2337 9.57874 14.5849 10.6785 12.6311 12.6326C10.6774 14.5867 9.5782 17.2357 9.57446 19.999C9.57767 22.7629 10.6769 25.4128 12.6312 27.3674C14.5854 29.322 17.235 30.4218 19.999 30.4255C22.7633 30.4223 25.4135 29.3228 27.3681 27.3681C29.3228 25.4135 30.4223 22.7633 30.4255 19.999C30.4212 17.235 29.321 14.5856 27.366 12.6317C25.411 10.6779 22.7609 9.57915 19.997 9.57648V9.57446ZM19.997 26.3712C18.3075 26.3712 16.6872 25.7001 15.4926 24.5054C14.2979 23.3108 13.6268 21.6905 13.6268 20.001C13.6268 18.3115 14.2979 16.6912 15.4926 15.4966C16.6872 14.3019 18.3075 13.6308 19.997 13.6308C21.6864 13.6308 23.3067 14.3019 24.5014 15.4966C25.696 16.6912 26.3672 18.3115 26.3672 20.001C26.3672 21.6905 25.696 23.3108 24.5014 24.5054C23.3067 25.7001 21.6864 26.3712 19.997 26.3712Z" fill="#B0008E"/>
<path d="M30.4255 12.1277C31.8356 12.1277 32.9787 11.0323 32.9787 9.68094C32.9787 8.3296 31.8356 7.23413 30.4255 7.23413C29.0154 7.23413 27.8723 8.3296 27.8723 9.68094C27.8723 11.0323 29.0154 12.1277 30.4255 12.1277Z" fill="#B0008E"/>
</svg>
