<svg width="120" height="120" viewBox="0 0 120 120" fill="none" xmlns="http://www.w3.org/2000/svg">
<circle cx="60" cy="60" r="60" fill="#1D4F91"/>
<path d="M82.0838 62.3993C83.5262 59.7153 84.3113 56.7294 84.375 53.6853C84.3696 50.8593 83.4813 48.105 81.8337 45.8051C80.186 43.5052 77.8607 41.7738 75.1806 40.8513C72.5006 39.9288 69.5989 39.8611 66.8784 40.6575C64.158 41.4539 61.7539 43.0749 60 45.2953C58.2461 43.0749 55.842 41.4539 53.1216 40.6575C50.4011 39.8611 47.4994 39.9288 44.8194 40.8513C42.1393 41.7738 39.814 43.5052 38.1663 45.8051C36.5187 48.105 35.6304 50.8593 35.625 53.6853C35.625 68.8294 58.375 82.8397 59.415 83.4876C59.6033 83.5941 59.816 83.6501 60.0325 83.6501C60.249 83.6501 60.4617 83.5941 60.65 83.4876C63.2382 81.8616 65.7338 80.0934 68.125 78.1912C69.1355 79.2702 70.3611 80.1267 71.7231 80.7059C73.0852 81.2851 74.5536 81.5742 76.0343 81.5547C77.515 81.5351 78.9753 81.2074 80.3215 80.5924C81.6677 79.9774 82.8701 79.0888 83.8515 77.9836C84.833 76.8784 85.5719 75.5809 86.0209 74.1744C86.4699 72.7679 86.619 71.2833 86.4586 69.816C86.2983 68.3487 85.8321 66.931 85.0899 65.6538C84.3477 64.3765 83.3459 63.268 82.1488 62.3993H82.0838ZM60 81.0743C56.3763 78.7257 37.965 66.2055 37.965 53.6853C37.9596 51.2144 38.7711 48.8104 40.2742 46.8454C41.7773 44.8804 43.8881 43.4638 46.2802 42.8147C48.6722 42.1657 51.2122 42.3203 53.5072 43.2547C55.8022 44.1891 57.7243 45.8513 58.9763 47.984C59.0917 48.1478 59.245 48.2814 59.4232 48.3737C59.6014 48.466 59.7992 48.5141 60 48.5141C60.2008 48.5141 60.3986 48.466 60.5768 48.3737C60.755 48.2814 60.9083 48.1478 61.0238 47.984C62.2757 45.8513 64.1979 44.1891 66.4929 43.2547C68.7878 42.3203 71.3278 42.1657 73.7199 42.8147C76.1119 43.4638 78.2227 44.8804 79.7258 46.8454C81.2289 48.8104 82.0405 51.2144 82.035 53.6853C81.967 56.3117 81.2825 58.8856 80.0363 61.2007C78.6923 60.5996 77.2355 60.2904 75.7625 60.2937C73.8853 60.2883 72.0402 60.7793 70.4156 61.7168C68.7909 62.6542 67.4448 64.0045 66.5147 65.6298C65.5846 67.255 65.1037 69.0972 65.1211 70.9682C65.1385 72.8392 65.6536 74.6722 66.6138 76.28C64.4913 77.9877 62.2839 79.5878 60 81.0743ZM75.7625 79.1468C74.1227 79.15 72.5188 78.6683 71.1538 77.7626C69.7888 76.8569 68.724 75.5679 68.0943 74.0588C67.4645 72.5497 67.2981 70.8883 67.616 69.2849C67.934 67.6814 68.722 66.208 69.8804 65.0512C71.0387 63.8943 72.5154 63.106 74.1235 62.7859C75.7315 62.4659 77.3987 62.6285 78.914 63.2533C80.4293 63.878 81.7246 64.9367 82.6359 66.2955C83.5473 67.6543 84.0338 69.252 84.0338 70.8864C84.0338 73.0744 83.1628 75.173 81.6121 76.7217C80.0615 78.2704 77.9577 79.1426 75.7625 79.1468Z" fill="white"/>
<path d="M75.5696 66.0001L80 68.353V73.6471L75.5195 76.0001L71 73.6471V68.353L75.5696 66.0001ZM71.5625 69.2612V73.2829L75.5 75.3324V71.0242L75.4976 71.0259L71.5625 69.2612ZM79.4375 69.2606L76.0625 70.7724V75.0559L79.4375 73.2843V69.2606ZM73.5307 67.7054L71.6379 68.6801L75.4977 70.386L77.1616 69.6512L73.5307 67.7054ZM75.5657 66.6577L74.1573 67.383L77.8169 69.3618L79.3683 68.6771L75.5657 66.6577Z" fill="white"/>
</svg>
