<svg width="120" height="120" viewBox="0 0 120 120" fill="none" xmlns="http://www.w3.org/2000/svg">
<circle cx="60" cy="60" r="60" fill="#2566BB"/>
<path d="M79.3992 85.776H67.3475C66.5553 85.776 65.9072 85.1308 65.9072 84.3358C65.9072 83.5408 66.5553 82.8956 67.3475 82.8956H79.3992C82.2624 82.8956 85.284 81.0002 86.9086 78.1745C88.4727 75.4727 88.5072 71.7655 87.0036 69.1674L78.1117 53.7483C77.7113 53.0599 77.9475 52.1785 78.6417 51.7781C79.333 51.3748 80.2115 51.611 80.6119 52.3081L89.501 67.73C91.5259 71.2384 91.4914 76.0171 89.4117 79.6176C87.2485 83.3565 83.3224 85.776 79.3992 85.776Z" fill="white"/>
<path d="M41.9188 52.0546C41.674 52.0546 41.4263 51.9941 41.1987 51.8616C40.5103 51.4641 40.2741 50.5885 40.6745 49.8943L50.0129 33.7148C52.0551 30.1834 55.8487 28 59.9245 28C64.0032 28 67.7996 30.1949 69.8361 33.7177L76.8183 45.8041C77.2187 46.4925 76.9825 47.3739 76.2826 47.7714C75.597 48.1747 74.7127 47.9413 74.3181 47.2443L67.3474 35.1579C65.8237 32.5165 62.9749 30.8804 59.9274 30.8804C56.8799 30.8804 54.0311 32.5137 52.5073 35.155L43.1661 51.3345C42.9011 51.7954 42.4143 52.0546 41.9188 52.0546Z" fill="white"/>
<path d="M58.709 85.776H40.4584C36.6505 85.776 32.7561 83.3017 30.5468 79.4707C28.4844 75.9134 28.4844 71.2989 30.5468 67.7358L36.8867 56.1334C37.2698 55.4363 38.1483 55.1799 38.8454 55.563C39.5424 55.9432 39.7959 56.8247 39.4128 57.5217L33.0557 69.1501C31.5089 71.8376 31.5089 75.392 33.0384 78.0449C34.7494 80.9945 37.6586 82.9071 40.4584 82.9071H58.709C59.5011 82.9071 60.1492 83.5523 60.1492 84.3474C60.1492 85.1424 59.504 85.776 58.709 85.776Z" fill="white"/>
<path d="M55.9639 92.9772C55.6758 92.9772 55.3907 92.8936 55.1401 92.7179C54.4862 92.2628 54.3278 91.3641 54.7829 90.7131L59.2332 84.3416L54.7886 78.0593C54.3335 77.4026 54.4891 76.5096 55.1314 76.0516C55.7795 75.5937 56.6782 75.7434 57.1391 76.3944L62.1684 83.5062C62.5169 84.0046 62.5169 84.6642 62.1741 85.1625L57.1449 92.3636C56.8655 92.764 56.4161 92.9772 55.9639 92.9772Z" fill="white"/>
<path d="M40.8415 53.9298C40.2366 53.9298 39.6893 53.5409 39.482 52.9648L36.9443 45.6859C36.6793 44.937 37.0768 44.1132 37.8286 43.854C38.5804 43.5775 39.4042 43.9865 39.6663 44.7383L41.8151 50.9111L48.4978 50.0268C49.2755 49.9202 50.01 50.4732 50.1195 51.2683C50.2203 52.0546 49.6643 52.7805 48.8751 52.8899L41.0288 53.924C40.9654 53.9269 40.9049 53.9298 40.8415 53.9298Z" fill="white"/>
<path d="M74.8193 58.4118C74.6004 58.4118 74.3815 58.36 74.1712 58.2563C73.4569 57.8962 73.1688 57.0234 73.5289 56.3206L76.7089 50.0527C76.9681 49.5429 77.501 49.2289 78.0713 49.2721L85.909 49.6956C86.7012 49.7445 87.3089 50.4186 87.2715 51.2107C87.234 52.0028 86.5571 52.7056 85.7593 52.5703L78.8606 52.1929L76.1155 57.6139C75.8505 58.1238 75.3436 58.4118 74.8193 58.4118Z" fill="white"/>
</svg>
