<svg width="516" height="257" viewBox="0 0 516 257" fill="none" xmlns="http://www.w3.org/2000/svg">
<path d="M516 255.964L461.217 220.455C461.217 220.455 383.663 127.794 358.227 113.188C332.79 98.582 293.905 94.6936 293.905 94.6936C293.757 94.5457 288.984 90.225 293.461 94.2498C297.939 98.2746 279.839 82.7093 273.325 76.3473C272.584 75.6075 271.696 74.7197 270.956 73.832C270.511 73.3882 270.215 72.9443 269.919 72.3525C269.771 72.2045 269.771 72.0566 269.623 71.9086C269.475 71.7607 269.475 71.4647 269.475 71.3168V71.1688C269.475 71.1688 269.475 71.0209 269.327 71.0209C268.735 70.577 267.698 70.1331 266.662 69.8372C265.625 69.5413 264.589 69.2454 263.404 68.9495C261.183 68.3577 259.11 67.9138 256.889 67.47C255.853 67.1741 254.669 66.8781 253.632 66.5822C253.04 66.4343 252.596 66.2863 252.003 65.9904C251.707 65.8425 251.411 65.6945 251.115 65.5465C250.819 65.3986 250.523 65.2506 250.227 64.8068C250.079 64.8068 250.079 64.8068 249.931 64.6588L248.894 64.5109C248.302 64.3629 247.413 64.067 246.821 63.3272L246.673 63.1793C246.081 62.5875 245.933 61.9956 245.933 61.4038C245.785 60.9599 245.785 60.5161 245.637 60.0722C244.896 59.0365 244.304 57.8529 243.416 57.1131C242.675 56.3734 241.343 56.0774 240.01 55.4856C239.418 55.1897 238.678 54.8938 238.086 54.5979C237.493 54.302 236.753 53.8581 236.161 53.4143C234.976 52.3786 234.236 51.1949 233.644 50.0113C232.903 48.8277 232.311 47.644 231.423 46.7563C230.534 45.8686 229.498 45.1288 228.313 44.9808C227.129 44.8329 225.944 45.1288 224.612 45.5727C223.427 46.0165 222.095 46.6083 220.614 46.7563C219.133 46.9043 217.653 46.4604 216.468 45.4247C215.284 44.537 214.543 43.2054 213.803 42.1697C213.063 41.134 212.026 40.2463 210.99 39.6545C209.805 39.0627 208.621 38.6188 207.288 38.6188C204.771 38.4708 201.958 39.5065 199.145 39.0627C197.812 38.9147 196.332 38.4708 195.295 37.4352C194.407 36.2515 193.815 35.2158 192.778 34.1801C192.038 33.2924 191.149 32.5526 190.113 31.9608C189.077 31.369 187.892 31.369 186.856 31.517C185.671 31.6649 184.635 31.9608 183.45 32.2567C182.266 32.5526 181.229 32.8486 180.045 33.1445L180.637 34.3281C180.637 34.4761 180.637 34.624 180.637 34.772C179.008 31.6649 177.232 28.5579 175.603 25.8947C174.418 24.2672 173.086 20.8642 171.161 19.9765C168.94 18.7928 168.052 20.2724 166.423 19.9765C163.314 19.3847 165.238 20.5683 163.018 17.4613C162.129 16.2776 161.833 14.6501 160.797 13.0226C157.391 6.36465 153.838 -2.66059 144.806 0.742367C130.147 6.5126 121.116 32.7006 113.564 47.644C113.268 47.644 112.972 47.644 112.676 47.644C112.38 47.644 112.084 47.644 111.788 47.792C111.64 47.792 111.492 47.792 111.343 47.9399H111.047H110.899C109.715 48.3838 109.123 49.4195 108.234 50.7511C107.938 51.047 107.642 51.4908 107.198 51.7868C106.902 51.9347 106.754 52.0827 106.457 52.2306C106.309 52.2306 106.013 52.3786 105.865 52.3786C105.421 52.5265 104.977 52.5265 104.533 52.5265C103.94 52.5265 103.496 52.3786 103.052 52.0827C102.312 51.6388 102.015 51.6388 101.423 51.6388C100.831 51.6388 100.239 51.6388 99.6465 51.9347C98.462 52.2306 97.5736 53.1184 96.8333 54.154C95.9449 55.1897 95.2046 56.6693 93.4278 57.557C92.9836 57.8529 92.5395 58.0009 91.9472 58.0009C91.7991 58.0009 91.7991 58.0009 91.503 58.0009H91.2069C91.0588 58.0009 90.9108 58.0009 90.7627 58.0009L90.3185 57.8529C89.2821 57.557 88.5417 56.9652 87.9495 56.5213C85.4324 54.302 83.9518 51.6388 82.3231 49.4195L82.027 49.1236L81.7308 48.8277L80.9905 48.0879L79.5099 46.4604C78.4735 45.4247 77.437 44.389 76.4006 43.6492C74.3277 41.8738 71.9587 40.9861 69.4416 41.4299C68.8493 41.5779 68.2571 41.7258 67.6648 41.8738L67.2207 42.0217H67.0726L66.6284 42.1697L66.3323 42.3177C66.1842 42.4656 66.0362 42.4656 66.0362 42.6136C65.1478 43.3533 64.2594 44.389 63.6671 45.5727C62.1865 47.9399 61.1501 50.6031 60.2617 53.2663C58.3369 58.5927 56.8562 64.3629 55.3756 69.9852L53.1547 78.4186C52.8585 79.6022 52.5624 80.6379 52.2663 81.8216C54.9314 79.4543 57.5966 77.3829 60.4098 75.1636C62.6307 73.5361 64.7036 72.0566 67.0726 70.725C68.2571 70.1331 69.5897 69.5413 70.7742 69.0975C72.1067 68.6536 73.4393 68.3577 74.9199 68.3577C76.4006 68.3577 78.0293 68.6536 79.2138 69.5413C80.3983 70.4291 81.2867 71.4647 82.175 72.5004C83.8037 74.5718 85.4324 76.6432 87.5053 77.9747C88.5417 78.7145 89.7263 78.8625 90.9108 78.5666C92.0953 78.2707 93.4278 77.8268 94.7604 77.5309C97.2775 76.9391 99.7945 76.6432 102.46 76.6432C106.161 76.9391 109.863 77.8268 113.861 79.3064C116.97 80.49 120.82 81.2298 123.929 82.4134C127.334 83.597 129.851 87.1479 133.405 87.4439C138.143 87.7398 140.068 83.0052 144.362 82.7093C149.1 82.4134 151.617 86.852 153.838 90.255C157.539 96.913 159.76 105.05 165.535 110.081C172.197 115.703 181.822 117.627 189.373 122.065C194.555 125.468 198.849 130.499 203.587 134.641C193.222 126.356 177.232 127.244 172.049 123.989C166.719 120.586 150.728 103.571 135.626 101.795C120.523 100.02 107.79 101.795 107.79 101.795L106.457 104.755C113.712 104.755 121.264 104.459 128.075 104.755C127.778 107.418 127.63 109.933 127.482 112.596C127.482 112.448 127.482 112.3 127.482 112.3C127.334 111.708 127.334 111.117 127.038 110.377C126.89 110.081 126.742 109.637 126.298 109.193C125.854 108.749 125.261 108.453 124.669 108.305C123.485 108.158 122.744 108.453 122.152 108.601C121.56 108.897 120.968 109.193 120.375 109.489C119.339 110.229 118.451 111.117 117.562 112.152C118.895 112.152 120.227 112.004 121.264 111.708L122.892 111.413C123.337 111.265 123.929 111.265 123.929 111.265C123.929 111.265 124.077 111.413 124.225 111.56C124.521 111.856 124.817 112.448 125.113 113.04C125.706 113.928 126.298 114.963 127.334 115.703C127.186 117.627 127.186 119.402 127.038 121.326C127.038 121.178 126.89 121.03 126.89 120.882C126.446 119.846 125.706 118.958 125.113 118.07C123.781 116.443 122.152 114.963 120.523 113.632L119.339 112.744L118.451 113.78C118.006 114.372 117.562 115.111 117.266 115.999C116.97 116.739 116.97 117.627 117.118 118.514C117.71 117.627 118.451 117.035 119.043 116.443C120.079 117.923 121.412 119.106 122.596 120.29C123.337 121.03 124.225 121.621 124.965 122.361C125.558 122.805 126.15 123.249 126.742 123.841C126.742 125.764 126.594 127.836 126.594 129.759C126.15 128.575 125.558 127.244 124.965 126.208C123.633 123.841 122.004 121.621 120.375 119.698L119.191 118.366L118.451 119.402C117.71 120.29 117.266 121.178 116.822 122.065C116.378 122.953 115.933 123.841 115.341 124.728C116.378 124.433 117.266 123.693 118.006 123.101C118.302 122.805 118.747 122.509 119.043 122.213C120.079 124.137 121.412 125.912 122.596 127.688C123.337 128.723 124.225 129.759 124.965 130.795C125.409 131.238 125.706 131.83 126.15 132.422C126.298 132.718 126.446 132.866 126.594 133.162C126.446 140.116 126.446 147.07 126.298 153.876C112.676 154.171 96.093 151.952 82.6192 154.171C79.658 149.437 80.9905 148.549 73.2912 148.549C68.5532 148.549 63.9633 149.141 59.2253 149.733C52.8585 150.325 50.7856 151.656 46.4918 147.809C43.0864 144.702 44.8631 140.264 38.4964 139.672C35.9793 139.228 32.2778 140.264 29.1684 141.003H24.7265C30.0568 135.677 35.091 130.203 40.1251 124.728C42.9383 121.621 45.7515 118.366 48.5647 115.259C51.3779 112.152 54.043 108.897 57.0043 105.79C54.6353 107.566 52.5624 109.489 50.3415 111.56C50.3415 111.117 50.4895 110.821 50.6376 110.377C50.7856 110.081 50.7857 109.637 50.9337 109.341C51.0818 108.749 51.2298 108.158 51.3779 107.714L51.9701 106.086L49.8973 105.938C48.8608 105.79 47.9725 105.938 47.0841 106.086C46.6399 106.086 46.1957 106.234 45.7515 106.382C45.3073 106.53 44.8631 106.53 44.1228 106.678C44.2709 107.27 44.7151 107.714 45.1593 108.01C45.6034 108.305 46.0476 108.601 46.6399 108.749L45.6034 108.897C45.1593 108.897 44.567 108.897 43.9747 109.193C43.6786 109.341 43.3825 109.341 43.0864 109.489C42.7902 109.637 42.4941 109.785 42.198 110.081C42.4941 110.377 42.7902 110.673 42.9383 110.821C43.2344 110.969 43.3825 111.265 43.6786 111.413C43.8267 111.413 43.9747 111.56 44.1228 111.56C44.1228 111.856 44.2709 112.152 44.4189 112.596C44.567 112.892 44.7151 113.336 45.0112 113.632C45.3073 113.928 45.4554 114.224 45.8996 114.52C46.1957 114.076 46.3438 113.78 46.6399 113.484C46.7879 113.188 46.936 112.744 47.0841 112.448C47.2321 111.708 47.2321 111.117 47.2321 110.525L47.0841 109.045C47.5283 109.193 47.9725 109.193 48.2686 109.193C48.2686 109.489 48.4166 109.637 48.5647 109.933C48.7128 110.377 49.0089 110.673 49.305 110.969C49.6011 111.265 49.8973 111.56 50.3415 111.708C49.4531 112.596 48.4166 113.632 47.5283 114.52C44.567 117.479 41.6057 120.586 38.7925 123.841C33.7584 129.463 28.8723 135.381 24.2824 141.447H0V257H299.087V256.26H516V255.964ZM149.988 5.47692C145.842 13.3185 144.954 22.4917 143.325 30.9251C142.141 36.5474 137.995 40.0983 136.662 45.4247C135.478 50.1593 136.07 55.4856 135.034 60.5161C131.332 55.1897 126.594 52.3786 122.448 47.3481C118.006 41.7258 124.077 37.2872 126.594 31.9608C129.407 25.7467 133.553 21.3081 138.143 16.2776C141.252 12.8747 145.694 7.54829 149.84 5.32896V5.47692H149.988ZM220.318 152.988C220.466 152.396 220.762 151.804 221.058 151.36C221.354 150.916 221.651 150.325 222.243 149.881C222.687 149.289 223.279 148.845 224.168 148.253C224.908 148.993 225.056 150.029 225.056 150.916C225.056 151.804 224.76 152.692 224.464 153.432C224.02 154.171 223.427 154.911 222.539 155.355C221.799 155.799 220.762 155.947 219.726 155.651C220.022 154.319 220.17 153.58 220.318 152.988ZM218.985 149.881C218.245 150.473 217.357 150.916 216.32 151.064C215.284 151.212 214.247 151.212 213.359 150.473C214.099 149.585 214.543 148.993 215.136 148.401C215.58 147.809 216.172 147.366 216.764 146.922C217.357 146.478 217.949 146.034 218.689 145.738C219.43 145.442 220.17 144.998 221.354 144.85C221.502 146.034 221.206 146.922 220.91 147.809C220.318 148.549 219.726 149.289 218.985 149.881ZM216.32 125.024C215.876 124.581 215.58 123.989 215.284 123.545L214.543 122.361C212.915 122.213 211.286 121.917 209.805 121.178C211.582 121.03 213.359 120.734 215.136 120.586H215.432L215.876 121.03C216.32 121.473 216.764 121.917 217.209 122.361C217.653 122.805 217.949 123.249 218.393 123.841C219.133 124.728 219.874 125.616 220.762 126.356L221.65 127.096L221.058 127.983C220.318 128.871 219.578 129.315 218.837 129.611C218.097 130.055 217.357 130.203 216.616 130.499C215.876 130.647 215.136 130.943 214.395 131.091C213.655 131.386 212.915 131.386 212.323 131.978C212.323 131.534 212.619 131.238 212.915 130.943C213.211 130.647 213.507 130.351 213.803 130.203C214.395 129.759 215.136 129.315 215.876 129.019C216.616 128.723 217.209 128.279 217.801 127.835C217.949 127.688 218.245 127.54 218.393 127.392C217.357 126.356 216.764 125.616 216.32 125.024ZM226.537 113.188C226.24 110.821 225.352 108.601 223.427 106.826C224.612 107.27 225.796 108.158 226.537 109.193C227.425 110.229 228.017 111.56 228.313 112.892C229.054 115.555 229.054 118.218 228.906 120.734C228.609 123.397 227.869 125.912 226.981 128.279C225.944 130.647 224.76 133.014 222.835 134.789C223.871 132.422 224.464 130.055 225.056 127.688C225.648 125.32 226.092 122.953 226.389 120.438C226.833 118.07 226.833 115.555 226.537 113.188ZM232.607 127.688C232.607 125.616 232.459 123.693 232.459 121.621C232.607 119.55 232.755 117.479 233.496 115.407C233.792 117.479 234.088 119.402 234.384 121.473C234.68 123.545 234.976 125.468 234.976 127.54C235.124 129.611 234.976 131.682 234.68 133.754C234.236 135.825 233.496 138.044 232.015 139.524C232.607 137.453 232.755 135.529 232.755 133.606C232.755 131.682 232.607 129.611 232.607 127.688ZM195.295 66.4343C196.628 69.8372 197.664 73.2402 198.553 76.4952C198.997 78.5666 199.145 79.0104 199.737 80.9338C200.033 81.8216 200.329 82.8573 200.774 83.597C201.218 84.4848 201.81 85.0766 202.55 85.8163C204.031 87.1479 205.66 88.0357 207.436 89.0714C209.213 89.9591 210.99 90.9948 212.767 92.1784L214.099 93.2141C217.209 95.8773 219.578 96.913 223.279 98.8364C225.204 99.8721 226.981 100.76 228.906 101.943C229.794 102.535 230.682 102.979 231.571 103.571L234.236 105.346C237.641 107.418 241.639 108.749 245.785 109.489C249.782 110.081 254.076 111.708 257.926 110.821C258.074 110.821 258.222 110.673 258.37 110.673C258.074 113.188 257.482 115.407 256.001 115.851C255.705 115.999 255.409 115.999 255.113 116.147C250.671 115.851 243.712 116.591 241.343 115.407C239.418 114.52 238.234 113.188 236.309 112.3C234.68 111.708 232.607 112.596 231.275 111.117C228.461 108.01 231.275 104.903 225.944 102.683C221.206 100.464 220.022 99.8721 216.172 96.4691C213.359 93.9539 208.621 91.4386 205.512 90.255C201.81 89.3673 198.849 90.255 197.072 85.5204C196.184 82.4134 197.368 79.3063 196.776 76.0513C196.332 73.5361 193.963 65.8425 190.853 61.9956C191.149 62.2915 191.594 62.4395 192.038 62.7354C193.074 63.4752 194.407 64.8068 195.295 66.4343ZM187.004 59.3325H187.152L187.3 59.4804C187.3 59.4804 187.448 59.6284 187.596 59.6284C187.004 59.4804 186.411 59.6284 185.819 60.0722C184.931 55.9295 184.783 51.7868 184.487 47.792C185.671 51.4908 186.856 55.3377 186.856 59.4804L187.004 59.3325ZM170.421 31.517V31.8129C170.421 39.6545 177.083 43.5013 178.564 50.6031C179.453 55.0418 177.676 58.1488 176.343 62.5875C175.455 66.2863 175.455 70.1331 175.455 74.2759C172.642 72.3525 167.904 68.0618 167.311 64.215C167.015 60.812 169.532 55.4856 170.125 51.9347C171.013 45.2768 167.607 37.1392 170.421 31.517ZM188.484 104.459C187.152 105.05 185.671 105.494 184.339 105.79C182.858 106.086 181.525 106.234 180.045 106.382C178.564 106.53 177.232 106.53 175.751 106.382C174.27 106.234 172.938 105.938 171.753 105.05C173.086 105.494 174.418 105.494 175.899 105.494C177.232 105.346 178.564 105.198 180.045 104.903C181.377 104.607 182.71 104.311 184.042 103.867C185.079 103.571 185.967 103.127 187.004 102.831C186.708 101.795 186.411 100.76 185.967 99.8721C185.523 98.5405 184.931 97.3568 184.339 96.0252C183.746 94.8416 183.154 93.51 182.414 92.3264C182.118 91.7346 181.673 91.1427 181.377 90.6989C181.229 90.4029 180.933 90.255 180.785 90.107C180.637 89.9591 180.637 89.9591 180.489 89.8111L180.341 89.6632L180.193 89.5152C179.304 89.0714 177.972 89.0714 176.639 89.2193C175.307 89.3673 173.974 89.8111 172.642 90.255C171.309 90.6989 169.976 91.1427 168.496 91.4386C167.163 91.7345 165.683 92.0305 164.202 92.0305C167.015 91.4386 169.384 89.9591 172.049 88.7754C173.382 88.1836 174.714 87.5918 176.195 87.2959C177.676 87 179.304 86.7041 181.081 87.4439L181.377 87.5918C181.377 87.5918 181.377 87.5918 181.525 87.7398H181.673C181.822 87.7398 182.118 88.0357 182.266 88.1836C182.562 88.4795 182.858 88.7754 183.154 89.0714C183.746 89.6632 184.042 90.255 184.487 90.9948C185.227 92.3264 185.967 93.51 186.56 94.8416C187.152 96.1732 187.744 97.5048 188.188 98.8364C188.632 100.168 189.077 101.648 189.225 103.275L189.373 104.015L188.484 104.459ZM187.004 88.3316C188.188 88.0357 189.373 87.7398 190.409 87.2959C191.001 87.1479 191.446 86.852 192.186 86.7041C192.482 86.5561 192.926 86.5561 193.37 86.7041C193.815 86.7041 194.111 87 194.555 87.1479C195.739 87.8877 196.48 88.7754 197.368 89.6632L199.737 92.4743C201.366 94.2498 202.846 96.1732 204.327 98.2445C205.808 100.316 206.992 102.387 208.029 104.607L208.473 105.642L207.584 105.938C205.956 106.53 204.179 106.826 202.402 106.826C200.626 106.826 198.997 106.53 197.368 105.938C198.997 105.938 200.626 105.79 202.254 105.494C203.439 105.198 204.623 104.903 205.66 104.459C204.623 102.831 203.587 101.056 202.402 99.4282C200.922 97.5048 199.441 95.7293 197.96 93.8059L195.739 90.9948C194.999 90.107 194.259 89.0714 193.518 88.3316C193.074 88.0357 192.926 87.8877 192.334 87.8877C191.742 87.8877 191.149 88.0357 190.557 88.0357C189.521 88.3316 188.188 88.4795 187.004 88.3316ZM193.667 115.851C192.778 115.999 191.89 116.147 191.15 115.851C191.89 115.407 192.482 114.963 193.074 114.52C193.667 114.076 194.259 113.632 194.999 113.04C196.332 112.152 197.812 111.117 199.737 110.969L200.774 110.821L201.07 111.708C201.218 112.448 201.514 113.336 201.81 114.076C201.958 114.963 202.106 115.851 201.958 116.739C201.07 115.555 200.329 114.668 199.589 113.484C198.553 113.928 197.516 114.52 196.332 114.963C195.295 115.407 194.555 115.703 193.667 115.851ZM200.477 121.178C199.737 121.178 198.997 121.178 198.257 120.882L200.033 119.846C200.626 119.55 201.218 119.106 201.81 118.81C202.995 118.218 204.475 117.627 206.104 117.775H206.992L207.288 118.662C207.584 119.698 207.733 120.586 208.029 121.621L208.325 123.101C208.473 123.545 208.473 124.137 208.621 124.58C208.029 124.433 207.584 123.989 207.288 123.545C206.844 123.101 206.548 122.657 206.252 122.213C205.808 121.621 205.512 120.882 205.215 120.29C204.327 120.438 203.439 120.586 202.402 120.882C201.958 121.03 201.218 121.178 200.477 121.178ZM207.584 137.896C206.548 137.305 205.66 136.565 204.771 135.973L204.623 135.825C205.512 136.565 206.548 137.305 207.584 137.896ZM142.289 148.845C142.289 149.437 142.141 150.029 141.993 150.768C141.993 151.064 141.844 151.36 141.696 151.656C141.548 151.952 141.4 152.396 141.104 152.396C141.252 152.1 141.252 151.804 141.104 151.508C141.104 151.212 140.956 150.916 140.808 150.621C140.66 150.029 140.512 149.437 140.216 148.993C139.92 147.809 139.475 146.774 139.179 145.59C138.587 143.223 137.995 141.003 137.551 138.488C137.255 135.973 137.255 133.606 137.255 131.238C137.255 128.871 137.255 126.504 137.255 123.989C138.735 126.06 139.624 128.427 140.216 130.795C140.808 133.162 141.104 135.529 141.4 137.896C141.696 140.116 142.141 142.631 142.141 144.998C142.437 146.33 142.289 147.513 142.289 148.845ZM148.359 150.325C147.619 148.253 146.879 146.33 146.286 144.406C145.694 142.483 145.102 140.412 144.658 138.488C144.213 136.417 143.917 134.346 143.769 132.274C143.621 130.203 143.769 127.983 144.362 125.912C145.25 127.836 145.99 129.759 146.731 131.83C147.323 133.754 147.915 135.825 148.359 137.748C148.803 139.82 149.1 141.891 149.248 143.963C149.1 146.034 149.1 148.105 148.359 150.325ZM153.097 138.932C153.838 138.636 154.43 138.34 155.17 138.044C155.762 137.748 156.503 137.453 157.243 137.305C158.576 136.861 160.056 136.565 161.685 136.565H162.721L163.314 137.453C163.906 138.488 164.498 139.672 165.09 140.856C165.387 141.447 165.535 142.187 165.831 142.779C165.979 143.519 166.127 144.111 166.127 144.998C165.387 144.554 164.942 144.258 164.35 143.815C163.758 143.371 163.314 142.927 162.721 142.483C161.981 141.743 161.389 141.151 160.648 140.264C159.612 140.264 158.724 140.264 157.539 140.264C156.799 140.264 156.059 140.116 155.318 139.968C154.578 139.672 153.69 139.376 153.097 138.932ZM167.459 151.804C167.459 152.396 167.311 152.988 167.163 153.58C166.571 153.284 166.127 152.692 165.831 152.248C165.387 151.804 165.09 151.36 164.794 150.768C164.498 150.177 164.202 149.733 164.054 149.141C163.166 149.141 162.277 149.141 161.389 149.141C160.648 149.141 160.056 148.993 159.316 148.845C158.576 148.697 157.835 148.401 157.243 147.957C157.983 147.513 158.576 147.218 159.168 146.774C159.76 146.478 160.5 146.182 161.093 146.034C162.425 145.59 163.758 145.442 165.387 145.442H166.867L167.163 146.626C167.459 147.809 167.607 148.845 167.607 150.029C167.607 150.768 167.607 151.212 167.459 151.804ZM168.2 143.371C167.904 142.631 167.756 141.891 167.756 141.299C167.756 140.708 167.607 140.116 167.607 139.524C167.607 139.08 167.607 138.636 167.607 138.34C169.088 138.044 170.717 137.601 172.494 138.192C173.382 138.488 174.27 139.08 174.863 139.968C175.455 140.856 175.751 141.891 175.751 142.927V144.554H174.27C172.642 144.554 170.569 144.258 168.644 143.815L168.2 143.371ZM184.783 155.799C182.118 155.799 179.304 155.947 176.343 155.799H175.751L175.603 155.355C175.307 154.171 174.714 152.84 174.122 151.804C173.53 150.621 172.642 149.585 172.197 148.253L171.901 147.07C173.382 147.218 174.863 146.626 176.195 146.182C176.935 145.886 177.528 145.738 178.416 145.442C178.712 145.442 179.008 145.442 179.156 145.442H179.304H179.452C179.601 145.442 179.601 145.442 179.749 145.442C180.193 145.59 180.637 145.738 180.933 145.886C182.562 146.626 183.746 148.105 184.487 149.585C185.227 151.064 185.671 152.396 186.115 153.728L186.856 155.799H184.783ZM222.095 162.013C220.762 161.421 219.281 160.977 218.097 159.942C216.468 158.462 215.136 156.687 213.655 155.355C212.915 154.763 212.026 154.319 211.138 153.876C210.694 153.728 210.25 153.58 209.805 153.58L209.065 153.432L208.325 153.284C207.288 153.136 206.252 152.988 205.067 152.988C203.883 152.84 202.698 152.692 201.514 152.1C200.329 151.656 199.293 150.916 198.405 150.325C197.368 149.585 196.48 148.845 195.739 148.105C194.111 146.626 192.63 145.146 191.001 144.111C190.557 143.815 190.113 143.667 189.817 143.371C189.521 143.223 188.78 142.927 188.336 142.631C187.448 142.187 186.411 141.743 185.375 141.447C181.525 139.968 177.083 138.932 172.938 136.565C170.865 135.381 169.088 133.902 167.459 132.274C167.311 132.126 167.311 131.978 167.163 131.978C167.163 132.866 167.163 133.754 167.163 134.789C166.127 133.754 165.387 132.57 164.794 131.534C164.35 130.795 164.054 130.055 163.61 129.463C161.833 129.611 159.908 129.907 157.983 129.907C156.799 129.907 155.614 129.907 154.43 129.611C153.245 129.463 152.061 129.167 151.024 128.575C152.209 128.131 153.245 127.836 154.282 127.54C155.318 127.244 156.355 126.948 157.539 126.652C159.02 126.356 160.5 126.06 162.129 125.912C159.908 122.953 157.539 119.994 155.022 117.331C153.541 115.851 151.913 114.52 150.136 113.484C148.359 112.448 146.286 111.856 144.213 111.265C140.068 110.081 135.626 109.637 131.48 108.453C135.774 108.897 140.216 108.897 144.51 109.637C146.731 109.933 148.951 110.525 151.024 111.413C153.097 112.448 155.022 113.78 156.799 115.259C160.204 118.218 163.018 121.621 165.831 125.024C167.163 126.652 168.644 128.427 169.976 129.759C171.457 131.238 172.938 132.422 174.714 133.458C178.12 135.381 182.414 136.565 186.56 138.192C187.596 138.636 188.632 139.08 189.669 139.524C190.261 139.82 190.557 139.968 191.15 140.264C191.742 140.56 192.186 140.856 192.778 141.299C194.703 142.779 196.332 144.406 197.812 145.886C198.553 146.626 199.293 147.366 200.033 147.957C200.922 148.697 201.662 149.141 202.55 149.585C204.179 150.325 206.252 150.473 208.621 151.064L209.509 151.212L210.25 151.36C210.842 151.508 211.434 151.656 212.026 151.952C213.211 152.396 214.099 153.136 214.988 154.023C216.616 155.651 217.801 157.574 219.133 159.202C220.17 160.09 221.354 160.829 222.687 161.569C224.02 162.309 225.352 162.901 226.685 163.493C224.908 162.901 223.427 162.605 222.095 162.013ZM232.459 160.386C231.719 160.977 230.83 161.569 229.794 161.421C230.386 160.681 230.534 160.09 230.83 159.202C230.978 158.462 231.127 157.722 231.275 156.983C231.423 156.243 231.719 155.503 231.867 154.615C231.127 154.467 230.386 154.319 229.646 154.023C228.165 153.284 226.833 151.952 226.685 150.325C227.425 150.621 228.017 150.916 228.609 151.064C229.202 151.212 229.794 151.212 230.386 151.212C231.571 151.212 232.755 151.064 233.94 150.916L236.605 150.473L236.013 153.136C235.568 154.763 235.124 156.391 234.088 158.018C233.644 159.054 233.051 159.794 232.459 160.386Z" fill="#012665"/>
</svg>
