<svg width="50" height="50" viewBox="0 0 50 50" fill="none" xmlns="http://www.w3.org/2000/svg">
<circle cx="25" cy="25" r="25" fill="#FF7F41"/>
<path d="M28.8299 24.2899L24.5899 20.0499C24.497 19.9562 24.3864 19.8818 24.2645 19.8311C24.1427 19.7803 24.012 19.7542 23.8799 19.7542C23.7479 19.7542 23.6172 19.7803 23.4954 19.8311C23.3735 19.8818 23.2629 19.9562 23.1699 20.0499C22.9837 20.2373 22.8792 20.4908 22.8792 20.7549C22.8792 21.0191 22.9837 21.2726 23.1699 21.4599L26.7099 24.9999L23.1699 28.5399C22.9837 28.7273 22.8792 28.9808 22.8792 29.2449C22.8792 29.5091 22.9837 29.7626 23.1699 29.9499C23.2634 30.0426 23.3742 30.116 23.496 30.1657C23.6179 30.2155 23.7483 30.2407 23.8799 30.2399C24.0115 30.2407 24.142 30.2155 24.2638 30.1657C24.3857 30.116 24.4965 30.0426 24.5899 29.9499L28.8299 25.7099C28.9237 25.617 28.9981 25.5064 29.0488 25.3845C29.0996 25.2627 29.1257 25.132 29.1257 24.9999C29.1257 24.8679 29.0996 24.7372 29.0488 24.6154C28.9981 24.4935 28.9237 24.3829 28.8299 24.2899Z" fill="white"/>
</svg>
