<svg width="24" height="24" viewBox="0 0 24 24" fill="none" xmlns="http://www.w3.org/2000/svg">
<path d="M4.31113 4C4.11039 4 3.94311 4.1 3.80928 4.26666L0.129047 9.26666C-0.0716929 9.53333 -0.0382362 9.93333 0.229417 10.1667L3.57508 13C3.03978 13.3667 2.6383 13.9667 2.6383 14.6667C2.6383 15.7667 3.54163 16.6667 4.6457 16.6667C4.81298 16.6667 4.94681 16.6333 5.11409 16.6C5.34829 17.2333 5.95051 17.6667 6.6531 17.6667H6.68655C6.85384 18.4333 7.52297 19 8.32593 19C8.49321 19 8.62704 18.9667 8.76087 18.9333C8.99506 19.5667 9.59728 20 10.3333 20C10.6679 20 10.969 19.9 11.2367 19.7333C11.5712 19.9333 11.9393 20 12.3407 20C12.9095 20 13.3779 19.7333 13.7125 19.4C13.9467 19.1667 14.1139 18.9333 14.2478 18.6333C14.3816 18.6667 14.5489 18.7 14.6827 18.7C15.4187 18.7 16.021 18.2667 16.3221 17.6667C16.4559 17.7 16.5563 17.7 16.6901 17.7C17.4596 17.7 18.0953 17.2333 18.3629 16.5667C18.6306 16.6667 18.8648 16.7 19.099 16.7C19.5674 16.7 20.0692 16.5333 20.4372 16.2C20.8053 15.8667 21.006 15.3333 21.006 14.7667C21.006 14.0667 20.6045 13.5667 20.1027 13.2L23.7495 10.2C24.0171 9.96666 24.084 9.56665 23.8833 9.29999L20.203 4.29999C20.0692 4.09999 19.8016 3.99999 19.5674 4.03333C19.5339 4.03333 19.5005 4.06665 19.467 4.06665C17.4931 4.73332 16.3555 4.69999 14.0136 4.69999C13.2775 4.69999 12.6084 4.9 12.0062 5.26666C11.4039 4.9 10.7348 4.69999 9.99876 4.69999C7.6568 4.69999 6.51927 4.73332 4.54533 4.06665C4.47841 3.99998 4.37804 4 4.31113 4ZM4.61224 5.43333C6.48581 6 7.89099 6 10.0322 6C10.4002 6 10.7014 6.06667 10.969 6.16667L8.52667 8.89998C8.35939 9.06665 8.32593 9.33332 8.39284 9.56665C8.62704 10.2333 9.09543 10.6667 9.56383 10.8667C10.0322 11.0667 10.4672 11.0333 10.7683 11.0333C11.1697 11 11.4374 10.8333 11.7385 10.6667C12.0396 10.5 12.3742 10.2667 12.6753 10.0667C13.0433 9.79998 13.1771 9.69999 13.3779 9.53333L19.3332 14.2333C19.3332 14.2333 19.3666 14.2333 19.3666 14.2667C19.5674 14.4 19.7347 14.7667 19.7681 14.8C19.7681 15.0667 19.7012 15.1667 19.6008 15.2333C19.5005 15.3 19.3666 15.3667 19.1993 15.3667C19.099 15.3667 18.8648 15.2667 18.8648 15.3C18.9652 15.3667 18.7979 15.2667 18.664 15.1667C18.5302 15.0667 18.3629 14.9 18.1287 14.7667C17.6938 14.4333 17.1585 14 16.6232 13.5667C15.5526 12.7 14.482 11.8667 14.482 11.8667C14.1808 11.6333 13.7794 11.6667 13.5452 11.9667C13.311 12.2667 13.3444 12.6667 13.6455 12.9C13.6455 12.9 14.7162 13.7333 15.7868 14.6C16.3221 15 16.8239 15.4333 17.2589 15.7667C17.2589 15.8 17.2589 15.8333 17.2589 15.8667C17.2589 16.1667 17.0247 16.4 16.757 16.4C16.6566 16.4 16.5563 16.3667 16.4894 16.3C16.5563 16.3333 16.4559 16.2667 16.3555 16.2C16.2552 16.1333 16.1548 16.0333 15.9875 15.9C15.6864 15.6667 15.3184 15.3667 14.9504 15.0667C14.2143 14.4667 13.5117 13.8667 13.5117 13.8667C13.3779 13.7333 13.1771 13.7 13.0099 13.7C12.6418 13.7333 12.3742 14.0667 12.4076 14.4333C12.4076 14.6 12.508 14.8 12.6753 14.9C12.6753 14.9 13.4113 15.5 14.1474 16.1C14.5154 16.4 14.8834 16.7 15.1845 16.9333C15.218 16.9667 15.2515 16.9667 15.2515 17C15.1845 17.2333 14.9838 17.4 14.7831 17.4C14.6827 17.4 14.5823 17.3667 14.5154 17.3C14.5154 17.3 13.0433 16.2333 12.2069 15.5333C12.0731 15.4 11.8723 15.3667 11.7051 15.3667C11.337 15.4 11.0694 15.7333 11.1028 16.1C11.1028 16.2667 11.2032 16.4667 11.3705 16.5667C11.9727 17.0333 12.6418 17.5333 13.1437 17.9333V18.0667C13.1437 18.1667 13.0768 18.3667 12.9095 18.5C12.7422 18.6333 12.5749 18.7333 12.4746 18.7333C12.2738 18.7333 12.2069 18.7333 12.1065 18.7C12.14 18.6 12.14 18.5 12.14 18.4C12.14 17.5 11.3705 16.7333 10.4672 16.7333C10.2999 16.7333 10.166 16.7667 10.0322 16.8C9.79802 16.1667 9.1958 15.7333 8.45976 15.7333H8.4263C8.25902 14.9667 7.58988 14.4 6.78692 14.4H6.75347C6.61964 13.7333 6.15125 13.1667 5.54903 12.9L1.66805 9.63332L4.61224 5.43333ZM19.467 5.43333L22.5116 9.56665L19.099 12.3333L13.7794 8.16667C13.5452 7.96667 13.1771 7.96667 12.943 8.16667C12.943 8.16667 12.4746 8.56666 11.9058 8.93333C11.6381 9.13333 11.337 9.33332 11.0694 9.46665C10.8017 9.59999 10.5675 9.66667 10.6344 9.66667C10.4672 9.66667 10.233 9.66666 10.0657 9.6C9.96531 9.56666 9.89839 9.5 9.83148 9.43333L12.3407 6.66667C12.508 6.6 12.6418 6.49999 12.7088 6.36666C13.1437 6.09999 13.5117 6 14.047 6C16.1882 6 17.56 6 19.467 5.43333ZM4.67915 14C5.04718 14 5.34829 14.3 5.34829 14.6667C5.34829 15.0333 5.04718 15.3333 4.67915 15.3333C4.31113 15.3333 4.01002 15.0333 4.01002 14.6667C4.01002 14.3 4.31113 14 4.67915 14ZM6.68655 15.6667C6.88729 15.6667 7.02112 15.8 7.02112 16C7.02112 16.2 6.88729 16.3333 6.68655 16.3333C6.48581 16.3333 6.35199 16.2 6.35199 16C6.35199 15.8 6.48581 15.6667 6.68655 15.6667ZM8.35939 17C8.56013 17 8.69395 17.1333 8.69395 17.3333C8.69395 17.5333 8.56013 17.6667 8.35939 17.6667C8.15865 17.6667 8.02482 17.5333 8.02482 17.3333C8.02482 17.1333 8.15865 17 8.35939 17ZM10.3668 18C10.5675 18 10.7014 18.1333 10.7014 18.3333C10.7014 18.5333 10.5675 18.6667 10.3668 18.6667C10.166 18.6667 10.0322 18.5333 10.0322 18.3333C10.0322 18.1333 10.166 18 10.3668 18Z" fill="#78BE21"/>
</svg>
