<svg width="50" height="50" viewBox="0 0 50 50" fill="none" xmlns="http://www.w3.org/2000/svg">
<circle cx="25" cy="25" r="25" fill="#78BE21"/>
<path d="M28.83 24.2899L24.59 20.0499C24.497 19.9562 24.3864 19.8818 24.2646 19.8311C24.1427 19.7803 24.012 19.7542 23.88 19.7542C23.748 19.7542 23.6173 19.7803 23.4954 19.8311C23.3736 19.8818 23.263 19.9562 23.17 20.0499C22.9838 20.2373 22.8792 20.4908 22.8792 20.7549C22.8792 21.0191 22.9838 21.2726 23.17 21.4599L26.71 24.9999L23.17 28.5399C22.9838 28.7273 22.8792 28.9808 22.8792 29.2449C22.8792 29.5091 22.9838 29.7626 23.17 29.9499C23.2634 30.0426 23.3743 30.116 23.4961 30.1657C23.6179 30.2155 23.7484 30.2407 23.88 30.2399C24.0116 30.2407 24.1421 30.2155 24.2639 30.1657C24.3857 30.116 24.4966 30.0426 24.59 29.9499L28.83 25.7099C28.9237 25.617 28.9981 25.5064 29.0489 25.3845C29.0997 25.2627 29.1258 25.132 29.1258 24.9999C29.1258 24.8679 29.0997 24.7372 29.0489 24.6154C28.9981 24.4935 28.9237 24.3829 28.83 24.2899Z" fill="white"/>
</svg>
