<svg width="50" height="50" viewBox="0 0 50 50" fill="none" xmlns="http://www.w3.org/2000/svg">
<circle r="25" transform="matrix(-1 0 0 1 25 25)" fill="#78BE21"/>
<path d="M21.17 24.2899L25.41 20.0499C25.503 19.9562 25.6136 19.8818 25.7354 19.8311C25.8573 19.7803 25.988 19.7542 26.12 19.7542C26.252 19.7542 26.3827 19.7803 26.5046 19.8311C26.6264 19.8818 26.737 19.9562 26.83 20.0499C27.0162 20.2373 27.1208 20.4908 27.1208 20.7549C27.1208 21.0191 27.0162 21.2726 26.83 21.4599L23.29 24.9999L26.83 28.5399C27.0162 28.7273 27.1208 28.9808 27.1208 29.2449C27.1208 29.5091 27.0162 29.7626 26.83 29.9499C26.7366 30.0426 26.6257 30.116 26.5039 30.1657C26.3821 30.2155 26.2516 30.2407 26.12 30.2399C25.9884 30.2407 25.8579 30.2155 25.7361 30.1657C25.6143 30.116 25.5034 30.0426 25.41 29.9499L21.17 25.7099C21.0763 25.617 21.0019 25.5064 20.9511 25.3845C20.9003 25.2627 20.8742 25.132 20.8742 24.9999C20.8742 24.8679 20.9003 24.7372 20.9511 24.6154C21.0019 24.4935 21.0763 24.3829 21.17 24.2899Z" fill="white"/>
</svg>
