<svg width="84" height="101" viewBox="0 0 84 101" fill="none" xmlns="http://www.w3.org/2000/svg">
<path d="M13.9834 66.536C13.642 66.7813 13.2047 66.9573 12.6714 67.064C12.1487 67.1707 11.61 67.224 11.0554 67.224C10.3834 67.224 9.74338 67.1227 9.13538 66.92C8.53804 66.7067 8.01004 66.3707 7.55138 65.912C7.09271 65.4427 6.72471 64.84 6.44738 64.104C6.18071 63.3573 6.04738 62.456 6.04738 61.4C6.04738 60.3013 6.19671 59.384 6.49538 58.648C6.80471 57.9013 7.19938 57.304 7.67938 56.856C8.17004 56.3973 8.71404 56.072 9.31138 55.88C9.90871 55.6773 10.506 55.576 11.1034 55.576C11.7434 55.576 12.282 55.6187 12.7194 55.704C13.1674 55.7893 13.5354 55.8907 13.8234 56.008L13.3914 57.864C13.146 57.7467 12.8527 57.6613 12.5114 57.608C12.1807 57.5547 11.7754 57.528 11.2954 57.528C10.41 57.528 9.69538 57.8427 9.15138 58.472C8.61804 59.1013 8.35138 60.0773 8.35138 61.4C8.35138 61.976 8.41538 62.504 8.54338 62.984C8.67138 63.4533 8.86338 63.8587 9.11938 64.2C9.38604 64.5307 9.71138 64.792 10.0954 64.984C10.49 65.1653 10.9434 65.256 11.4554 65.256C11.9354 65.256 12.3407 65.208 12.6714 65.112C13.002 65.016 13.29 64.8933 13.5354 64.744L13.9834 66.536ZM14.8068 63C14.8068 61.6453 15.1374 60.6053 15.7988 59.88C16.4601 59.144 17.3881 58.776 18.5828 58.776C19.2228 58.776 19.7774 58.8773 20.2468 59.08C20.7161 59.2827 21.1054 59.5707 21.4148 59.944C21.7241 60.3067 21.9534 60.7493 22.1028 61.272C22.2628 61.7947 22.3428 62.3707 22.3428 63C22.3428 64.3547 22.0121 65.4 21.3508 66.136C20.7001 66.8613 19.7774 67.224 18.5828 67.224C17.9428 67.224 17.3881 67.1227 16.9188 66.92C16.4494 66.7173 16.0548 66.4347 15.7348 66.072C15.4254 65.6987 15.1908 65.2507 15.0308 64.728C14.8814 64.2053 14.8068 63.6293 14.8068 63ZM16.9508 63C16.9508 63.352 16.9828 63.6773 17.0468 63.976C17.1108 64.2747 17.2068 64.536 17.3348 64.76C17.4628 64.984 17.6281 65.16 17.8308 65.288C18.0441 65.4053 18.2948 65.464 18.5828 65.464C19.1268 65.464 19.5321 65.2667 19.7988 64.872C20.0654 64.4773 20.1988 63.8533 20.1988 63C20.1988 62.264 20.0761 61.672 19.8308 61.224C19.5854 60.7653 19.1694 60.536 18.5828 60.536C18.0708 60.536 17.6708 60.728 17.3828 61.112C17.0948 61.496 16.9508 62.1253 16.9508 63ZM29.1605 67V62.456C29.1605 61.8053 29.0645 61.336 28.8725 61.048C28.6912 60.76 28.3765 60.616 27.9285 60.616C27.5338 60.616 27.1978 60.7333 26.9205 60.968C26.6538 61.192 26.4618 61.4747 26.3445 61.816V67H24.2645V59H25.9125L26.1525 60.056H26.2165C26.4618 59.7147 26.7872 59.416 27.1925 59.16C27.5978 58.904 28.1205 58.776 28.7605 58.776C29.1552 58.776 29.5072 58.8293 29.8165 58.936C30.1258 59.0427 30.3872 59.2187 30.6005 59.464C30.8138 59.7093 30.9738 60.0453 31.0805 60.472C31.1872 60.888 31.2405 61.4053 31.2405 62.024V67H29.1605ZM38.3593 67V62.456C38.3593 61.8053 38.2686 61.336 38.0873 61.048C37.9059 60.76 37.5753 60.616 37.0953 60.616C36.7433 60.616 36.4179 60.7387 36.1193 60.984C35.8313 61.2187 35.6393 61.5227 35.5433 61.896V67H33.4633V55.8H35.5433V59.896H35.6073C35.8633 59.5547 36.1779 59.2827 36.5513 59.08C36.9246 58.8773 37.3993 58.776 37.9753 58.776C38.3806 58.776 38.7379 58.8293 39.0473 58.936C39.3566 59.0427 39.6126 59.2187 39.8153 59.464C40.0286 59.7093 40.1833 60.0453 40.2793 60.472C40.3859 60.888 40.4393 61.4053 40.4393 62.024V67H38.3593ZM49.062 66.312C48.742 66.568 48.3047 66.7867 47.75 66.968C47.206 67.1387 46.6247 67.224 46.006 67.224C44.7153 67.224 43.7713 66.8507 43.174 66.104C42.5767 65.3467 42.278 64.312 42.278 63C42.278 61.592 42.614 60.536 43.286 59.832C43.958 59.128 44.902 58.776 46.118 58.776C46.5233 58.776 46.918 58.8293 47.302 58.936C47.686 59.0427 48.0273 59.2187 48.326 59.464C48.6247 59.7093 48.8647 60.04 49.046 60.456C49.2273 60.872 49.318 61.3893 49.318 62.008C49.318 62.232 49.302 62.472 49.27 62.728C49.2487 62.984 49.2113 63.2507 49.158 63.528H44.358C44.39 64.2 44.5607 64.7067 44.87 65.048C45.19 65.3893 45.702 65.56 46.406 65.56C46.8433 65.56 47.2327 65.496 47.574 65.368C47.926 65.2293 48.1927 65.0907 48.374 64.952L49.062 66.312ZM46.086 60.44C45.542 60.44 45.1367 60.6053 44.87 60.936C44.614 61.256 44.4593 61.688 44.406 62.232H47.382C47.4247 61.656 47.334 61.2133 47.11 60.904C46.8967 60.5947 46.5553 60.44 46.086 60.44ZM56.8529 66.504C56.6075 66.6853 56.3249 66.8293 56.0049 66.936C55.6955 67.0427 55.3649 67.1227 55.0129 67.176L54.7249 67.688C55.1622 67.7307 55.5035 67.8427 55.7489 68.024C56.0049 68.216 56.1329 68.504 56.1329 68.888C56.1329 69.1333 56.0689 69.3467 55.9409 69.528C55.8235 69.7093 55.6582 69.8587 55.4449 69.976C55.2315 70.104 54.9809 70.2 54.6929 70.264C54.4049 70.328 54.0955 70.36 53.7649 70.36C53.4342 70.36 53.0929 70.328 52.7409 70.264L52.8849 69.496C52.9595 69.5067 53.0289 69.512 53.0929 69.512C53.1569 69.512 53.2155 69.512 53.2689 69.512C53.6742 69.512 53.9355 69.464 54.0529 69.368C54.1702 69.272 54.2289 69.16 54.2289 69.032C54.2289 68.7333 53.7702 68.5627 52.8529 68.52L53.6529 67.176C53.1302 67.112 52.6875 66.968 52.3249 66.744C51.9622 66.5093 51.6689 66.216 51.4449 65.864C51.2209 65.5013 51.0555 65.08 50.9489 64.6C50.8529 64.1093 50.8049 63.576 50.8049 63C50.8049 61.6453 51.1089 60.6053 51.7169 59.88C52.3249 59.144 53.2102 58.776 54.3729 58.776C54.9595 58.776 55.4289 58.824 55.7809 58.92C56.1435 59.016 56.4689 59.1387 56.7569 59.288L56.2609 60.984C56.0155 60.8667 55.7702 60.776 55.5249 60.712C55.2902 60.648 55.0182 60.616 54.7089 60.616C54.1329 60.616 53.6955 60.808 53.3969 61.192C53.0982 61.5653 52.9489 62.168 52.9489 63C52.9489 63.3413 52.9862 63.656 53.0609 63.944C53.1355 64.232 53.2475 64.4827 53.3969 64.696C53.5462 64.9093 53.7382 65.08 53.9729 65.208C54.2182 65.3253 54.5009 65.384 54.8209 65.384C55.1729 65.384 55.4715 65.3413 55.7169 65.256C55.9622 65.16 56.1809 65.048 56.3729 64.92L56.8529 66.504ZM58.5428 59.464C58.9694 59.272 59.4761 59.1227 60.0628 59.016C60.6494 58.8987 61.2628 58.84 61.9028 58.84C62.4574 58.84 62.9214 58.9093 63.2948 59.048C63.6681 59.176 63.9614 59.3627 64.1748 59.608C64.3988 59.8533 64.5534 60.1467 64.6388 60.488C64.7348 60.8293 64.7828 61.2133 64.7828 61.64C64.7828 62.1093 64.7668 62.584 64.7348 63.064C64.7028 63.5333 64.6814 63.9973 64.6708 64.456C64.6708 64.9147 64.6868 65.3627 64.7188 65.8C64.7508 66.2267 64.8308 66.632 64.9588 67.016H63.2628L62.9268 65.912H62.8468C62.6334 66.2427 62.3348 66.5307 61.9508 66.776C61.5774 67.0107 61.0921 67.128 60.4948 67.128C60.1214 67.128 59.7854 67.0747 59.4868 66.968C59.1881 66.8507 58.9321 66.6907 58.7188 66.488C58.5054 66.2747 58.3401 66.0293 58.2228 65.752C58.1054 65.464 58.0468 65.144 58.0468 64.792C58.0468 64.3013 58.1534 63.8907 58.3668 63.56C58.5908 63.2187 58.9054 62.9467 59.3108 62.744C59.7268 62.5307 60.2174 62.3867 60.7828 62.312C61.3588 62.2267 61.9988 62.2 62.7028 62.232C62.7774 61.6347 62.7348 61.208 62.5748 60.952C62.4148 60.6853 62.0574 60.552 61.5028 60.552C61.0868 60.552 60.6441 60.5947 60.1748 60.68C59.7161 60.7653 59.3374 60.8773 59.0388 61.016L58.5428 59.464ZM61.1828 65.416C61.5988 65.416 61.9294 65.3253 62.1748 65.144C62.4201 64.952 62.6014 64.7493 62.7188 64.536V63.496C62.3881 63.464 62.0681 63.4587 61.7588 63.48C61.4601 63.5013 61.1934 63.5493 60.9588 63.624C60.7241 63.6987 60.5374 63.8053 60.3988 63.944C60.2601 64.0827 60.1908 64.2587 60.1908 64.472C60.1908 64.7707 60.2761 65.0053 60.4468 65.176C60.6281 65.336 60.8734 65.416 61.1828 65.416ZM71.4871 59.464C71.9138 59.272 72.4205 59.1227 73.0071 59.016C73.5938 58.8987 74.2071 58.84 74.8471 58.84C75.4018 58.84 75.8658 58.9093 76.2391 59.048C76.6125 59.176 76.9058 59.3627 77.1191 59.608C77.3431 59.8533 77.4978 60.1467 77.5831 60.488C77.6791 60.8293 77.7271 61.2133 77.7271 61.64C77.7271 62.1093 77.7111 62.584 77.6791 63.064C77.6471 63.5333 77.6258 63.9973 77.6151 64.456C77.6151 64.9147 77.6311 65.3627 77.6631 65.8C77.6951 66.2267 77.7751 66.632 77.9031 67.016H76.2071L75.8711 65.912H75.7911C75.5778 66.2427 75.2791 66.5307 74.8951 66.776C74.5218 67.0107 74.0365 67.128 73.4391 67.128C73.0658 67.128 72.7298 67.0747 72.4311 66.968C72.1325 66.8507 71.8765 66.6907 71.6631 66.488C71.4498 66.2747 71.2845 66.0293 71.1671 65.752C71.0498 65.464 70.9911 65.144 70.9911 64.792C70.9911 64.3013 71.0978 63.8907 71.3111 63.56C71.5351 63.2187 71.8498 62.9467 72.2551 62.744C72.6711 62.5307 73.1618 62.3867 73.7271 62.312C74.3031 62.2267 74.9431 62.2 75.6471 62.232C75.7218 61.6347 75.6791 61.208 75.5191 60.952C75.3591 60.6853 75.0018 60.552 74.4471 60.552C74.0311 60.552 73.5885 60.5947 73.1191 60.68C72.6605 60.7653 72.2818 60.8773 71.9831 61.016L71.4871 59.464ZM74.1271 65.416C74.5431 65.416 74.8738 65.3253 75.1191 65.144C75.3645 64.952 75.5458 64.7493 75.6631 64.536V63.496C75.3325 63.464 75.0125 63.4587 74.7031 63.48C74.4045 63.5013 74.1378 63.5493 73.9031 63.624C73.6685 63.6987 73.4818 63.8053 73.3431 63.944C73.2045 64.0827 73.1351 64.2587 73.1351 64.472C73.1351 64.7707 73.2205 65.0053 73.3911 65.176C73.5725 65.336 73.8178 65.416 74.1271 65.416ZM8.43488 93H1.34688V81.8H3.53888V91.048H8.43488V93ZM9.05112 89C9.05112 87.6453 9.38179 86.6053 10.0431 85.88C10.7045 85.144 11.6325 84.776 12.8271 84.776C13.4671 84.776 14.0218 84.8773 14.4911 85.08C14.9605 85.2827 15.3498 85.5707 15.6591 85.944C15.9685 86.3067 16.1978 86.7493 16.3471 87.272C16.5071 87.7947 16.5871 88.3707 16.5871 89C16.5871 90.3547 16.2565 91.4 15.5951 92.136C14.9445 92.8613 14.0218 93.224 12.8271 93.224C12.1871 93.224 11.6325 93.1227 11.1631 92.92C10.6938 92.7173 10.2991 92.4347 9.97912 92.072C9.66979 91.6987 9.43512 91.2507 9.27512 90.728C9.12579 90.2053 9.05112 89.6293 9.05112 89ZM11.1951 89C11.1951 89.352 11.2271 89.6773 11.2911 89.976C11.3551 90.2747 11.4511 90.536 11.5791 90.76C11.7071 90.984 11.8725 91.16 12.0751 91.288C12.2885 91.4053 12.5391 91.464 12.8271 91.464C13.3711 91.464 13.7765 91.2667 14.0431 90.872C14.3098 90.4773 14.4431 89.8533 14.4431 89C14.4431 88.264 14.3205 87.672 14.0751 87.224C13.8298 86.7653 13.4138 86.536 12.8271 86.536C12.3151 86.536 11.9151 86.728 11.6271 87.112C11.3391 87.496 11.1951 88.1253 11.1951 89ZM25.2769 93C25.2769 94.1627 24.9622 95.016 24.3329 95.56C23.7035 96.1147 22.8235 96.392 21.6929 96.392C20.9249 96.392 20.3169 96.3387 19.8689 96.232C19.4315 96.1253 19.1009 96.0133 18.8769 95.896L19.3089 94.248C19.5542 94.344 19.8369 94.44 20.1569 94.536C20.4875 94.632 20.8929 94.68 21.3729 94.68C22.0982 94.68 22.5889 94.52 22.8449 94.2C23.1115 93.8907 23.2449 93.4533 23.2449 92.888V92.376H23.1809C22.8075 92.8773 22.1462 93.128 21.1969 93.128C20.1622 93.128 19.3889 92.808 18.8769 92.168C18.3755 91.528 18.1249 90.5253 18.1249 89.16C18.1249 87.7307 18.4662 86.648 19.1489 85.912C19.8315 85.176 20.8235 84.808 22.1249 84.808C22.8075 84.808 23.4155 84.856 23.9489 84.952C24.4929 85.048 24.9355 85.16 25.2769 85.288V93ZM21.7569 91.464C22.1622 91.464 22.4715 91.3733 22.6849 91.192C22.9089 91.0107 23.0795 90.7387 23.1969 90.376V86.776C22.8662 86.6373 22.4555 86.568 21.9649 86.568C21.4315 86.568 21.0155 86.7707 20.7169 87.176C20.4182 87.5707 20.2689 88.2053 20.2689 89.08C20.2689 89.8587 20.3969 90.4507 20.6529 90.856C20.9089 91.2613 21.2769 91.464 21.7569 91.464ZM27.183 89C27.183 87.6453 27.5137 86.6053 28.175 85.88C28.8363 85.144 29.7643 84.776 30.959 84.776C31.599 84.776 32.1537 84.8773 32.623 85.08C33.0923 85.2827 33.4817 85.5707 33.791 85.944C34.1003 86.3067 34.3297 86.7493 34.479 87.272C34.639 87.7947 34.719 88.3707 34.719 89C34.719 90.3547 34.3883 91.4 33.727 92.136C33.0763 92.8613 32.1537 93.224 30.959 93.224C30.319 93.224 29.7643 93.1227 29.295 92.92C28.8257 92.7173 28.431 92.4347 28.111 92.072C27.8017 91.6987 27.567 91.2507 27.407 90.728C27.2577 90.2053 27.183 89.6293 27.183 89ZM29.327 89C29.327 89.352 29.359 89.6773 29.423 89.976C29.487 90.2747 29.583 90.536 29.711 90.76C29.839 90.984 30.0043 91.16 30.207 91.288C30.4203 91.4053 30.671 91.464 30.959 91.464C31.503 91.464 31.9083 91.2667 32.175 90.872C32.4417 90.4773 32.575 89.8533 32.575 89C32.575 88.264 32.4523 87.672 32.207 87.224C31.9617 86.7653 31.5457 86.536 30.959 86.536C30.447 86.536 30.047 86.728 29.759 87.112C29.471 87.496 29.327 88.1253 29.327 89ZM41.4396 81.8H43.6316V93H41.4396V81.8ZM46.2101 85H47.7301L47.9701 85.96H48.0341C48.3115 85.5547 48.6368 85.256 49.0101 85.064C49.3941 84.872 49.8581 84.776 50.4021 84.776C51.4048 84.776 52.1568 85.096 52.6581 85.736C53.1595 86.3653 53.4101 87.384 53.4101 88.792C53.4101 89.4747 53.3301 90.0933 53.1701 90.648C53.0101 91.192 52.7701 91.656 52.4501 92.04C52.1408 92.424 51.7568 92.7173 51.2981 92.92C50.8501 93.1227 50.3328 93.224 49.7461 93.224C49.4155 93.224 49.1435 93.1973 48.9301 93.144C48.7168 93.1013 48.5035 93.0267 48.2901 92.92V96.2H46.2101V85ZM49.7781 86.536C49.3728 86.536 49.0528 86.6373 48.8181 86.84C48.5941 87.0427 48.4181 87.3467 48.2901 87.752V91.08C48.4395 91.1973 48.5995 91.2933 48.7701 91.368C48.9515 91.432 49.1861 91.464 49.4741 91.464C50.0715 91.464 50.5195 91.256 50.8181 90.84C51.1168 90.4133 51.2661 89.7147 51.2661 88.744C51.2661 88.04 51.1488 87.496 50.9141 87.112C50.6795 86.728 50.3008 86.536 49.7781 86.536ZM58.6428 90.792C58.6428 90.5787 58.5521 90.408 58.3708 90.28C58.1894 90.152 57.9654 90.0347 57.6988 89.928C57.4321 89.8213 57.1388 89.7147 56.8188 89.608C56.4988 89.4907 56.2054 89.336 55.9388 89.144C55.6721 88.9413 55.4481 88.6907 55.2668 88.392C55.0854 88.0827 54.9948 87.688 54.9948 87.208C54.9948 86.4187 55.2294 85.816 55.6988 85.4C56.1681 84.984 56.8454 84.776 57.7308 84.776C58.3388 84.776 58.8881 84.84 59.3788 84.968C59.8694 85.096 60.2534 85.24 60.5308 85.4L60.0668 86.904C59.8214 86.808 59.5121 86.7067 59.1388 86.6C58.7654 86.4933 58.3868 86.44 58.0028 86.44C57.3841 86.44 57.0748 86.68 57.0748 87.16C57.0748 87.352 57.1654 87.5067 57.3468 87.624C57.5281 87.7413 57.7521 87.8533 58.0188 87.96C58.2854 88.056 58.5788 88.1627 58.8988 88.28C59.2188 88.3973 59.5121 88.552 59.7788 88.744C60.0454 88.9253 60.2694 89.1653 60.4508 89.464C60.6321 89.7627 60.7228 90.1467 60.7228 90.616C60.7228 91.4267 60.4614 92.0667 59.9388 92.536C59.4268 92.9947 58.6534 93.224 57.6188 93.224C57.0534 93.224 56.5201 93.1493 56.0188 93C55.5281 92.8613 55.1281 92.696 54.8188 92.504L55.3948 90.952C55.6401 91.0907 55.9654 91.2293 56.3708 91.368C56.7761 91.496 57.1921 91.56 57.6188 91.56C57.9281 91.56 58.1734 91.5013 58.3548 91.384C58.5468 91.2667 58.6428 91.0693 58.6428 90.792ZM64.5608 85V89.544C64.5608 90.1947 64.6354 90.664 64.7848 90.952C64.9448 91.24 65.2488 91.384 65.6968 91.384C66.0914 91.384 66.4168 91.2667 66.6728 91.032C66.9394 90.7973 67.1368 90.5093 67.2648 90.168V85H69.3448V90.568C69.3448 91.0053 69.3661 91.4373 69.4088 91.864C69.4514 92.28 69.5154 92.6587 69.6008 93H68.0328L67.6648 91.816H67.6008C67.3554 92.2213 67.0141 92.5573 66.5768 92.824C66.1394 93.0907 65.6221 93.224 65.0248 93.224C64.6194 93.224 64.2568 93.1707 63.9368 93.064C63.6168 92.9573 63.3501 92.7813 63.1368 92.536C62.9234 92.2907 62.7581 91.96 62.6408 91.544C62.5341 91.128 62.4808 90.6053 62.4808 89.976V85H64.5608ZM76.1941 93V88.648C76.1941 87.912 76.1248 87.3893 75.9861 87.08C75.8475 86.7707 75.5595 86.616 75.1221 86.616C74.7595 86.616 74.4661 86.7173 74.2421 86.92C74.0181 87.112 73.8475 87.3627 73.7301 87.672V93H71.6501V85H73.2661L73.5061 86.056H73.5701C73.8155 85.7147 74.1248 85.416 74.4981 85.16C74.8821 84.904 75.3728 84.776 75.9701 84.776C76.4821 84.776 76.8981 84.8827 77.2181 85.096C77.5488 85.2987 77.8048 85.6453 77.9861 86.136C78.2315 85.72 78.5461 85.3893 78.9301 85.144C79.3141 84.8987 79.7781 84.776 80.3221 84.776C80.7701 84.776 81.1488 84.8293 81.4581 84.936C81.7781 85.0427 82.0341 85.2293 82.2261 85.496C82.4288 85.752 82.5781 86.0987 82.6741 86.536C82.7701 86.9733 82.8181 87.528 82.8181 88.2V93H80.7381V88.504C80.7381 87.8747 80.6688 87.4053 80.5301 87.096C80.4021 86.776 80.1088 86.616 79.6501 86.616C79.2768 86.616 78.9781 86.7173 78.7541 86.92C78.5408 87.1227 78.3808 87.4 78.2741 87.752V93H76.1941Z" fill="white"/>
<path d="M46.7167 18.8167L39.65 11.75C39.4951 11.5938 39.3108 11.4698 39.1077 11.3852C38.9046 11.3006 38.6867 11.257 38.4667 11.257C38.2467 11.257 38.0288 11.3006 37.8257 11.3852C37.6226 11.4698 37.4383 11.5938 37.2834 11.75C36.9729 12.0623 36.7987 12.4847 36.7987 12.925C36.7987 13.3653 36.9729 13.7877 37.2834 14.1L43.1834 20L37.2834 25.9C36.9729 26.2123 36.7987 26.6347 36.7987 27.075C36.7987 27.5153 36.9729 27.9377 37.2834 28.25C37.4391 28.4045 37.6238 28.5267 37.8268 28.6096C38.0299 28.6926 38.2473 28.7346 38.4667 28.7333C38.686 28.7346 38.9035 28.6926 39.1065 28.6096C39.3096 28.5267 39.4943 28.4045 39.65 28.25L46.7167 21.1833C46.8729 21.0284 46.9969 20.8441 47.0815 20.641C47.1661 20.4379 47.2097 20.22 47.2097 20C47.2097 19.78 47.1661 19.5622 47.0815 19.3591C46.9969 19.156 46.8729 18.9716 46.7167 18.8167Z" fill="#6CADD5"/>
</svg>
