<svg width="625" height="380" viewBox="0 0 625 380" fill="none" xmlns="http://www.w3.org/2000/svg">
<path d="M158.014 145.35L158.003 145.35L157.992 145.35C150.466 145.758 143.022 143.619 136.861 139.279C134.315 137.39 132.267 134.911 130.893 132.054C129.518 129.195 128.86 126.045 128.975 122.875L128.976 122.866V122.857V3.78339V3.75253L128.972 3.7219C128.919 3.29326 128.964 2.85813 129.105 2.44965C129.245 2.04117 129.477 1.67009 129.782 1.36467C130.087 1.05924 130.459 0.827521 130.867 0.687131C131.275 0.546744 131.711 0.5014 132.139 0.554519L132.17 0.558314H132.201H153.78C154.917 0.558314 155.663 0.856107 156.131 1.34977C156.604 1.84837 156.877 2.63363 156.877 3.78339V113.609C156.877 116.113 157.436 118.087 158.661 119.436C159.892 120.792 161.715 121.428 164.046 121.43C165.977 121.509 167.909 121.292 169.774 120.788C170.992 120.795 171.84 120.987 172.393 121.372C172.922 121.742 173.261 122.348 173.319 123.398L173.32 123.414L173.322 123.43L175.249 139.487L175.251 139.505L175.255 139.524C175.334 139.922 175.326 140.332 175.233 140.727C175.14 141.122 174.963 141.492 174.715 141.813C174.466 142.134 174.152 142.398 173.793 142.587C173.434 142.776 173.039 142.886 172.634 142.91L172.568 142.914L172.506 142.934C167.828 144.479 162.94 145.294 158.014 145.35Z" stroke="white"/>
<path d="M279.044 131.631L278.905 131.776V131.869C268.181 140.659 254.741 145.465 240.87 145.465C226.929 145.465 213.423 140.611 202.672 131.736C193.245 122.21 187.957 109.349 187.957 95.9465C187.957 82.5443 193.245 69.6837 202.672 60.1579C213.443 51.3288 226.941 46.5037 240.87 46.5037C254.797 46.5037 268.293 51.3279 279.065 60.1553C288.273 69.7696 293.414 82.5687 293.414 95.8823C293.414 109.206 288.265 122.014 279.044 131.631ZM222.252 115.478L222.272 115.5L222.294 115.52C227.418 120.162 234.084 122.733 240.998 122.733C247.912 122.733 254.578 120.162 259.702 115.52L259.724 115.5L259.744 115.478C264.377 110.151 266.929 103.328 266.929 96.2676C266.929 89.2072 264.377 82.3847 259.744 77.0573L259.724 77.0349L259.702 77.0149C254.578 72.3734 247.912 69.8027 240.998 69.8027C234.084 69.8027 227.418 72.3734 222.294 77.0149L222.272 77.0349L222.252 77.0573C217.619 82.3847 215.067 89.2072 215.067 96.2676C215.067 103.328 217.619 110.151 222.252 115.478Z" stroke="white"/>
<path d="M340.967 141.849C334.764 139.469 329.105 135.859 324.331 131.238C315.164 121.751 310.04 109.075 310.04 95.8822C310.04 82.6904 315.164 70.0144 324.33 60.5277C329.127 55.9475 334.793 52.3733 340.992 50.0156C347.195 47.6568 353.807 46.5635 360.439 46.8L360.455 46.8006L360.47 46.8002C370.221 46.5427 379.766 49.6346 387.513 55.5606L388.317 56.1754V55.1635V53.1082V53.0784L388.314 53.0488C388.263 52.6302 388.307 52.2057 388.442 51.8061C388.576 51.4066 388.798 51.0419 389.09 50.7386C389.383 50.4354 389.74 50.2011 390.134 50.0528C390.529 49.9046 390.952 49.846 391.372 49.8814L391.394 49.8833L391.417 49.8832L412.737 49.7547C412.737 49.7547 412.738 49.7547 412.738 49.7547C413.874 49.755 414.619 50.0527 415.087 50.5462C415.56 51.0448 415.833 51.83 415.833 52.9798V145.079V145.088L415.834 145.097C416.055 151.239 414.906 157.353 412.469 162.995C410.033 168.636 406.37 173.663 401.748 177.712C391.459 186.485 378.227 191.031 364.718 190.436L364.698 190.435L364.679 190.436C352.464 190.865 340.414 187.53 330.158 180.882C325.8 178.02 322.078 174.293 319.221 169.931C316.372 165.581 314.445 160.693 313.559 155.569C313.559 154.937 313.561 154.429 313.61 154.003C313.66 153.571 313.753 153.282 313.9 153.075C314.175 152.688 314.796 152.387 316.527 152.387H338.098C338.915 152.416 339.706 152.68 340.377 153.148C341.047 153.615 341.569 154.265 341.879 155.02C343.321 159.033 346.192 162.373 349.943 164.401L349.943 164.401L349.952 164.405C354.463 166.733 359.484 167.9 364.559 167.801C367.635 167.967 370.714 167.52 373.615 166.485C376.523 165.448 379.195 163.842 381.475 161.761L381.487 161.75L381.499 161.738C383.584 159.559 385.206 156.98 386.267 154.157C387.327 151.338 387.806 148.334 387.675 145.325V137.243V136.255L386.879 136.841C379.242 142.457 369.948 145.362 360.471 145.093L360.455 145.092L360.439 145.093C353.796 145.334 347.173 144.231 340.967 141.849ZM380.869 115.482L380.88 115.469L380.891 115.456C385.229 109.853 387.583 102.968 387.583 95.8822C387.583 88.7963 385.229 81.9112 380.891 76.3086L380.88 76.2942L380.868 76.2807C378.627 73.7849 375.867 71.8099 372.782 70.4942C369.702 69.1807 366.372 68.5561 363.026 68.6643C359.612 68.5593 356.215 69.1961 353.07 70.5308C349.921 71.8676 347.1 73.8726 344.801 76.4072L344.799 76.4093C339.986 81.7771 337.452 88.8084 337.735 96.0124C337.504 103.143 339.98 110.098 344.666 115.478L344.666 115.478L344.674 115.487C346.977 118.014 349.799 120.014 352.947 121.35C356.09 122.684 359.484 123.325 362.897 123.229C366.275 123.331 369.634 122.691 372.737 121.355C375.845 120.016 378.621 118.011 380.869 115.482Z" stroke="white"/>
<path d="M526.825 131.631L526.686 131.776V131.868C515.941 140.613 502.509 145.389 488.651 145.389C474.724 145.389 461.227 140.565 450.456 131.738C441.239 122.102 436.094 109.282 436.094 95.9465C436.094 82.6117 441.239 69.7913 450.456 60.1555C461.237 51.3508 474.73 46.5413 488.651 46.5413C502.572 46.5413 516.064 51.3509 526.846 60.1556C536.054 69.7699 541.195 82.5688 541.195 95.8823C541.195 109.206 536.047 122.014 526.825 131.631ZM469.901 115.474L469.919 115.494L469.938 115.512C472.448 117.9 475.408 119.767 478.644 121.003C481.877 122.238 485.322 122.819 488.78 122.715C492.217 122.802 495.638 122.212 498.846 120.978C502.059 119.742 504.997 117.885 507.492 115.512L507.511 115.494L507.529 115.474C512.085 110.112 514.587 103.304 514.587 96.2676C514.587 89.231 512.085 82.4236 507.529 77.0617L507.511 77.0414L507.492 77.0231C504.997 74.6508 502.059 72.7936 498.846 71.5577C495.638 70.3236 492.217 69.7333 488.78 69.8204C485.322 69.7159 481.877 70.2978 478.644 71.5324C475.408 72.7687 472.448 74.635 469.938 77.0232L469.919 77.0415L469.901 77.0617C465.345 82.4236 462.843 89.231 462.843 96.2676C462.843 103.304 465.345 110.112 469.901 115.474Z" stroke="white"/>
<path d="M32.1018 337.734L32.0919 337.735L32.082 337.735C24.5605 338.104 17.1291 335.969 10.9501 331.665C8.44382 329.748 6.43182 327.26 5.08204 324.408C3.73071 321.553 3.08227 318.416 3.19098 315.259L3.19127 315.25V315.242V245.365V245.334L3.18748 245.303C3.13436 244.875 3.17974 244.44 3.32014 244.031C3.46053 243.623 3.69225 243.252 3.99768 242.946C4.30311 242.641 4.67415 242.409 5.08261 242.269C5.49109 242.128 5.92622 242.083 6.35486 242.136L6.38549 242.14H6.41635H27.996C29.1325 242.14 29.8785 242.438 30.3468 242.931C30.8198 243.43 31.0926 244.215 31.0926 245.365V305.993C31.0926 308.498 31.6517 310.47 32.8578 311.818C34.0717 313.175 35.8629 313.813 38.1345 313.815C40.1064 313.885 42.0779 313.669 43.9875 313.173C45.2067 313.179 46.0551 313.371 46.6082 313.757C47.1377 314.127 47.4767 314.733 47.535 315.783L47.5359 315.799L47.5378 315.815L49.4646 331.872L49.4669 331.89L49.4705 331.909C49.5493 332.307 49.5418 332.717 49.4485 333.112C49.3553 333.507 49.1786 333.877 48.9302 334.198C48.6819 334.519 48.3676 334.783 48.0086 334.972C47.6497 335.161 47.2544 335.271 46.8493 335.295L46.784 335.299L46.7219 335.319C42.0022 336.873 37.0705 337.688 32.1018 337.734ZM29.0726 219.433C25.7693 222.321 21.5302 223.913 17.1419 223.913C12.7537 223.913 8.51462 222.321 5.21127 219.433C3.7245 218.028 2.53986 216.335 1.72979 214.457C0.91848 212.575 0.5 210.548 0.5 208.5C0.5 206.451 0.91848 204.424 1.72979 202.542C2.53929 200.665 3.72281 198.973 5.20809 197.569C8.54688 194.753 12.774 193.208 17.1419 193.208C21.5099 193.208 25.737 194.753 29.0758 197.569C30.5611 198.973 31.7446 200.665 32.5541 202.542C33.3654 204.424 33.7839 206.451 33.7839 208.5C33.7839 210.548 33.3654 212.575 32.5541 214.457C31.744 216.335 30.5594 218.028 29.0726 219.433Z" stroke="white"/>
<path d="M129.332 239.057L129.348 239.057L129.363 239.057C136.037 238.793 142.695 239.873 148.943 242.232C155.187 244.59 160.893 248.177 165.724 252.781C174.715 262.436 179.714 275.139 179.714 288.332C179.714 301.525 174.715 314.228 165.723 323.883C160.915 328.528 155.216 332.151 148.969 334.532C142.717 336.914 136.048 338.004 129.363 337.735L129.348 337.734L129.332 337.735C119.822 337.946 110.503 335.048 102.79 329.48L101.997 328.908V329.885V376.256C101.997 377.392 101.699 378.138 101.206 378.607C100.707 379.08 99.9219 379.353 98.7722 379.353H77.1925H77.1462L77.1007 379.361C76.6881 379.438 76.263 379.414 75.8621 379.289C75.4612 379.165 75.0966 378.945 74.7999 378.648C74.5031 378.352 74.2831 377.987 74.159 377.586C74.0348 377.185 74.0103 376.76 74.0874 376.348L74.0959 376.302V376.256V270.962C74.2509 269.867 74.1506 268.75 73.8026 267.699C73.4507 266.637 72.8552 265.671 72.0638 264.88C71.2724 264.089 70.307 263.493 69.2445 263.141C68.1938 262.793 67.077 262.693 65.9814 262.848H61.7784C60.4112 262.848 59.4761 262.597 58.8934 262.173C58.3402 261.771 58.0396 261.165 58.0396 260.265V245.108V245.09L58.0383 245.073C57.9798 244.249 58.2054 243.43 58.6776 242.752C59.1499 242.075 59.8401 241.58 60.6333 241.349L60.6491 241.345L60.6647 241.339C65.0503 239.745 69.6918 238.971 74.3574 239.057L74.3841 239.057L74.4106 239.055C79.0253 238.647 83.6568 239.625 87.7118 241.866C91.7667 244.106 95.0605 247.506 97.171 251.63L97.4858 252.245L97.9716 251.754C102.061 247.617 106.952 244.357 112.344 242.174C117.736 239.991 123.517 238.93 129.332 239.057ZM108.924 307.858L108.933 307.87L108.944 307.881C111.281 310.323 114.088 312.267 117.197 313.595C120.306 314.923 123.651 315.607 127.031 315.607C130.412 315.607 133.757 314.923 136.866 313.595C139.974 312.267 142.782 310.323 145.119 307.881L145.124 307.875L145.13 307.869C150.036 302.396 152.617 295.227 152.323 287.883C152.659 280.532 150.073 273.345 145.128 267.893L145.128 267.893L145.119 267.883C142.782 265.441 139.974 263.497 136.866 262.169C133.757 260.841 130.412 260.157 127.031 260.157C123.651 260.157 120.306 260.841 117.197 262.169C114.088 263.497 111.281 265.441 108.944 267.883L108.934 267.893L108.925 267.904C104.174 273.449 101.698 280.587 101.997 287.883C101.737 295.172 104.207 302.295 108.924 307.858Z" stroke="white"/>
<path d="M240.856 337.735L240.837 337.734L240.818 337.735C229.382 338.205 218.043 335.47 208.079 329.839C204.115 327.45 200.739 324.199 198.202 320.328C195.669 316.464 194.038 312.081 193.427 307.502C193.43 306.274 193.653 305.477 194.101 304.979C194.542 304.489 195.302 304.181 196.652 304.181H215.524C216.327 304.214 217.105 304.468 217.774 304.913C218.441 305.358 218.973 305.977 219.313 306.704C222.125 313.915 229.458 317.409 240.827 317.412C244.846 317.593 248.849 316.784 252.481 315.053C253.791 314.46 254.916 313.523 255.736 312.342C256.557 311.159 257.041 309.775 257.137 308.339L257.138 308.322V308.305C257.138 306.522 256.585 304.992 255.475 303.707C254.374 302.434 252.749 301.432 250.648 300.644L250.639 300.641L250.63 300.638C245.721 299.004 240.645 297.919 235.497 297.404C229.462 296.721 223.478 295.652 217.58 294.204L217.58 294.204L217.571 294.202C211.917 292.922 206.776 289.98 202.809 285.754C200.48 282.884 198.766 279.567 197.772 276.007C196.776 272.441 196.525 268.709 197.034 265.042C197.542 261.375 198.8 257.852 200.728 254.692C202.655 251.535 205.209 248.808 208.234 246.679C217.402 240.841 228.159 237.998 239.015 238.542L239.036 238.543L239.057 238.543C249.578 238.187 259.988 240.789 269.104 246.055L269.108 246.057C272.75 248.119 275.886 250.968 278.287 254.396C280.681 257.812 282.285 261.718 282.984 265.83C282.978 267.027 282.703 267.835 282.245 268.344C281.791 268.849 281.081 269.142 280.016 269.142H261.005H260.99L260.976 269.143C260.276 269.184 259.58 269.013 258.978 268.653C258.38 268.293 257.903 267.762 257.609 267.128C256.291 263.977 253.814 261.451 250.689 260.071C247.219 258.259 243.346 257.358 239.433 257.453C235.597 257.247 231.77 258.012 228.308 259.677C227.026 260.176 225.922 261.046 225.136 262.175C224.347 263.311 223.915 264.656 223.897 266.039L223.897 266.054L223.897 266.069C223.984 267.932 224.667 269.718 225.844 271.165C227.015 272.605 228.615 273.634 230.411 274.101C235.372 275.969 240.528 277.267 245.782 277.973L245.783 277.973C251.772 278.761 257.715 279.873 263.584 281.303L263.584 281.303L263.592 281.305C269.25 282.585 274.395 285.531 278.364 289.763C280.478 292.085 282.111 294.803 283.169 297.761C284.227 300.719 284.688 303.857 284.526 306.995L284.525 307.014L284.526 307.033C284.634 311.387 283.612 315.695 281.559 319.536C279.506 323.377 276.493 326.62 272.812 328.949L272.81 328.951C263.298 335.057 252.152 338.121 240.856 337.735Z" stroke="white"/>
<path d="M420.3 331.86L420.301 331.875L420.304 331.891C420.366 332.281 420.35 332.68 420.256 333.064C420.162 333.448 419.992 333.809 419.756 334.126C419.521 334.444 419.224 334.711 418.884 334.912C418.544 335.114 418.167 335.245 417.775 335.299L417.731 335.305L417.688 335.319C413.045 336.834 408.202 337.649 403.319 337.735L403.298 337.735L403.277 337.737C398.481 338.234 393.637 337.484 389.216 335.561C384.794 333.637 380.944 330.605 378.037 326.758L377.716 326.333L377.312 326.68C368.336 334.397 356.731 338.357 344.91 337.735L344.885 337.734L344.86 337.735C339.382 337.987 333.911 337.091 328.799 335.103C323.69 333.116 319.053 330.083 315.185 326.197C311.343 322.122 308.362 317.314 306.422 312.06C304.481 306.804 303.621 301.21 303.893 295.613L303.894 295.601V295.589V245.365C303.894 244.215 304.167 243.43 304.64 242.931C305.108 242.438 305.854 242.14 306.99 242.14H328.57C329.707 242.14 330.453 242.438 330.921 242.931C331.394 243.43 331.667 244.215 331.667 245.365V291.725C331.429 297.626 333.448 303.396 337.312 307.862L337.319 307.87L337.326 307.878C339.263 309.933 341.618 311.549 344.232 312.617C346.84 313.683 349.646 314.179 352.461 314.072C355.335 314.196 358.205 313.749 360.907 312.759C363.615 311.766 366.099 310.246 368.215 308.287L368.225 308.278L368.235 308.268C370.24 306.202 371.8 303.747 372.818 301.054C373.835 298.364 374.291 295.495 374.156 292.623V245.365C374.156 244.215 374.429 243.43 374.902 242.931C375.37 242.438 376.116 242.14 377.253 242.14H399.089C400.226 242.14 400.972 242.438 401.44 242.931C401.913 243.43 402.186 244.215 402.186 245.365V305.865C402.186 308.431 402.744 310.433 403.93 311.797C405.127 313.172 406.887 313.813 409.099 313.815C411.135 313.893 413.172 313.671 415.144 313.157L415.144 313.157L415.152 313.154C415.565 313.039 415.999 313.018 416.421 313.094C416.843 313.169 417.243 313.34 417.589 313.592C417.936 313.844 418.221 314.172 418.423 314.55C418.626 314.928 418.74 315.347 418.757 315.776L418.757 315.79L418.758 315.803L420.3 331.86Z" stroke="white"/>
<path d="M624.406 331.848L624.409 331.891L624.42 331.933C624.516 332.321 624.526 332.726 624.447 333.118C624.369 333.511 624.205 333.881 623.966 334.202C623.728 334.524 623.421 334.788 623.068 334.977C622.715 335.166 622.325 335.274 621.926 335.295L621.859 335.298L621.796 335.318C617.071 336.856 612.141 337.67 607.172 337.734L607.163 337.735L607.153 337.735C599.627 338.123 592.186 335.985 586.015 331.659L586.013 331.658C583.372 329.825 581.225 327.368 579.761 324.506C578.298 321.644 577.562 318.465 577.622 315.251V315.242V285.068C577.895 279.185 575.924 273.418 572.107 268.933L572.108 268.932L572.099 268.923C570.247 266.86 567.961 265.234 565.405 264.161C562.855 263.091 560.101 262.599 557.338 262.719C554.841 262.628 552.354 263.103 550.066 264.11C547.772 265.12 545.737 266.637 544.114 268.548L544.108 268.555L544.102 268.562C540.64 272.957 538.87 278.449 539.114 284.039V331.427C539.114 332.576 538.841 333.362 538.368 333.86C537.9 334.354 537.154 334.652 536.017 334.652H514.309H514.278L514.248 334.655C513.819 334.709 513.384 334.663 512.976 334.523C512.567 334.382 512.196 334.151 511.891 333.845C511.585 333.54 511.353 333.169 511.213 332.76C511.073 332.352 511.027 331.917 511.08 331.488L511.084 331.457V331.427V285.068C511.367 279.256 509.552 273.535 505.969 268.949L505.964 268.943L505.959 268.937C504.346 266.993 502.325 265.428 500.038 264.353C497.755 263.28 495.263 262.722 492.74 262.719C490.052 262.612 487.373 263.073 484.875 264.072C482.375 265.072 480.114 266.589 478.241 268.523L478.233 268.532L478.225 268.541C474.467 272.802 472.531 278.368 472.834 284.042V331.427V331.457L472.837 331.488C472.89 331.917 472.845 332.352 472.705 332.76C472.564 333.169 472.333 333.54 472.027 333.845C471.722 334.151 471.351 334.382 470.942 334.523C470.534 334.663 470.099 334.709 469.67 334.655L469.639 334.652H469.609H448.671C447.535 334.652 446.789 334.354 446.32 333.86C445.847 333.362 445.574 332.576 445.574 331.427V270.962C445.729 269.867 445.629 268.75 445.281 267.699C444.929 266.637 444.334 265.671 443.542 264.88C442.751 264.088 441.786 263.493 440.723 263.141C439.672 262.793 438.556 262.693 437.46 262.848H433.257C431.89 262.848 430.955 262.597 430.372 262.173C429.819 261.77 429.518 261.165 429.518 260.265V245.108V245.09L429.517 245.072C429.458 244.249 429.684 243.43 430.156 242.752C430.629 242.075 431.319 241.579 432.112 241.349L432.128 241.345L432.143 241.339C436.529 239.745 441.17 238.971 445.836 239.057L445.862 239.057L445.888 239.055C450.331 238.677 454.791 239.562 458.753 241.61C462.715 243.658 466.017 246.784 468.278 250.628L468.597 251.17L469.053 250.737C473.337 246.677 478.412 243.544 483.961 241.534C489.51 239.525 495.414 238.681 501.304 239.056L501.332 239.058L501.36 239.056C507.069 238.778 512.763 239.848 517.981 242.182C523.198 244.516 527.792 248.046 531.39 252.487L531.754 252.937L532.146 252.511C536.347 247.945 541.51 244.37 547.262 242.043C553.013 239.716 559.21 238.696 565.403 239.056L565.43 239.058L565.456 239.056C570.994 238.797 576.525 239.689 581.7 241.677C586.873 243.663 591.578 246.7 595.518 250.596C599.372 254.662 602.359 259.468 604.3 264.724C606.242 269.982 607.095 275.579 606.808 281.177L606.807 281.19V281.202V305.993C606.807 308.499 607.367 310.466 608.535 311.812C609.713 313.169 611.439 313.813 613.59 313.815C615.606 313.908 617.625 313.691 619.575 313.173C620.814 313.181 621.69 313.428 622.267 313.848C622.834 314.26 623.174 314.885 623.251 315.795C623.251 315.796 623.251 315.796 623.251 315.797L624.406 331.848Z" stroke="white"/>
</svg>
